<svg width="60" height="60" viewBox="0 0 60 60" fill="none" xmlns="http://www.w3.org/2000/svg">
<circle cx="30" cy="30" r="30" fill="#F1DA71"/>
<path d="M19.002 20.2013C18.9565 19.7327 19.0095 19.2599 19.1576 18.8131C19.3057 18.3662 19.5457 17.9553 19.862 17.6068C20.1784 17.2582 20.5642 16.9797 20.9946 16.7891C21.425 16.5985 21.8905 16.5 22.3612 16.5H27.75C28.0484 16.5 28.3345 16.6185 28.5455 16.8295C28.7565 17.0405 28.875 17.3266 28.875 17.625V18.4845C28.875 20.0505 27.7567 21.144 26.913 21.7897C26.8127 21.8633 26.7252 21.953 26.6543 22.0552L26.6272 22.1115L26.625 22.125V22.1317L26.6317 22.1543C26.6392 22.1768 26.6663 22.2165 26.7128 22.2735C26.8864 22.4555 27.0924 22.6035 27.3202 22.71C27.9525 23.025 28.8975 23.25 30 23.25C31.107 23.25 32.052 23.025 32.6775 22.71C32.9062 22.6037 33.1129 22.4557 33.2873 22.2735C33.3251 22.2321 33.3548 22.1841 33.375 22.1317V22.1115L33.348 22.0552C33.277 21.953 33.1896 21.8633 33.0893 21.7897C32.2455 21.144 31.1273 20.0505 31.1273 18.4845V17.625C31.1273 17.327 31.2455 17.0412 31.456 16.8303C31.6665 16.6194 31.952 16.5006 32.25 16.5H37.6388C38.1095 16.5 38.575 16.5985 39.0054 16.7891C39.4358 16.9797 39.8216 17.2582 40.138 17.6068C40.4543 17.9553 40.6943 18.3662 40.8424 18.8131C40.9905 19.2599 41.0435 19.7327 40.998 20.2013L40.4513 26.625H40.9845C41.4233 26.625 41.9295 26.2942 42.5033 25.545C42.9757 24.9285 43.6912 24.375 44.625 24.375C45.903 24.375 46.7557 25.3807 47.2215 26.3145C47.7233 27.3158 48 28.6208 48 30C48 31.3792 47.7233 32.6842 47.2215 33.6855C46.7557 34.6192 45.903 35.625 44.625 35.625C43.6912 35.625 42.9757 35.0715 42.5033 34.455C41.9295 33.7057 41.4233 33.375 40.9845 33.375H40.4513L40.998 39.7987C41.0435 40.2673 40.9905 40.7401 40.8424 41.187C40.6943 41.6338 40.4543 42.0447 40.138 42.3932C39.8216 42.7418 39.4358 43.0203 39.0054 43.2109C38.575 43.4015 38.1095 43.5 37.6388 43.5H32.25C31.9516 43.5 31.6655 43.3815 31.4545 43.1705C31.2435 42.9595 31.125 42.6734 31.125 42.375V41.5155C31.125 39.9495 32.2432 38.856 33.087 38.2103C33.1873 38.1367 33.2748 38.047 33.3458 37.9447L33.3727 37.8885L33.375 37.875V37.8682C33.3551 37.8151 33.3253 37.7663 33.2873 37.7242C33.1134 37.5431 32.9074 37.3958 32.6798 37.29C32.0475 36.975 31.1025 36.75 30 36.75C28.8975 36.75 27.948 36.975 27.3225 37.29C27.0938 37.3963 26.8871 37.5443 26.7128 37.7265C26.6749 37.7679 26.6452 37.8159 26.625 37.8682V37.875L26.6272 37.8885L26.6543 37.9447C26.6903 38.0055 26.7667 38.0977 26.913 38.2103C27.7567 38.856 28.875 39.9495 28.875 41.5155V42.375C28.875 42.6734 28.7565 42.9595 28.5455 43.1705C28.3345 43.3815 28.0484 43.5 27.75 43.5H22.3612C21.8905 43.5 21.425 43.4015 20.9946 43.2109C20.5642 43.0203 20.1784 42.7418 19.862 42.3932C19.5457 42.0447 19.3057 41.6338 19.1576 41.187C19.0095 40.7401 18.9565 40.2673 19.002 39.7987L19.551 33.375H19.0155C18.5768 33.375 18.0705 33.7057 17.4968 34.455C17.0243 35.0715 16.3088 35.625 15.375 35.625C14.097 35.625 13.2442 34.6192 12.7785 33.6855C12.2767 32.6842 12 31.3792 12 30C12 28.6208 12.2767 27.3158 12.7785 26.3145C13.2442 25.3807 14.097 24.375 15.375 24.375C16.3088 24.375 17.0243 24.9285 17.4968 25.545C18.0705 26.2942 18.5768 26.625 19.0155 26.625H19.551L19.002 20.2013ZM22.3612 18.75C22.2039 18.7498 22.0483 18.7827 21.9045 18.8464C21.7606 18.9101 21.6318 19.0033 21.5262 19.1199C21.4206 19.2365 21.3406 19.374 21.2915 19.5234C21.2423 19.6729 21.225 19.831 21.2407 19.9875L21.243 20.0032L21.8955 27.6532C21.9089 27.8085 21.8899 27.9649 21.8397 28.1125C21.7895 28.26 21.7091 28.3955 21.6038 28.5104C21.4984 28.6253 21.3704 28.717 21.2277 28.7798C21.085 28.8425 20.9309 28.875 20.775 28.875H19.0155C17.4495 28.875 16.356 27.7567 15.7103 26.913C15.6367 26.8127 15.547 26.7252 15.4448 26.6543L15.3885 26.6272L15.375 26.625H15.3682C15.3151 26.6449 15.2663 26.6747 15.2242 26.7128C15.0431 26.8866 14.8958 27.0926 14.79 27.3202C14.475 27.9525 14.25 28.8975 14.25 30C14.25 31.1025 14.475 32.052 14.79 32.6775C14.9475 32.9925 15.105 33.1838 15.2265 33.2873C15.2679 33.3251 15.3159 33.3548 15.3682 33.375H15.375L15.3885 33.3727L15.4448 33.3458C15.547 33.2748 15.6367 33.1873 15.7103 33.087C16.356 32.2432 17.4495 31.125 19.0155 31.125H20.775C20.9307 31.1251 21.0846 31.1574 21.2271 31.2201C21.3696 31.2827 21.4976 31.3742 21.6029 31.4888C21.7082 31.6035 21.7886 31.7387 21.839 31.886C21.8893 32.0333 21.9086 32.1894 21.8955 32.3445L21.243 40.0125C21.2273 40.1688 21.2445 40.3267 21.2935 40.476C21.3426 40.6253 21.4223 40.7627 21.5277 40.8793C21.633 40.9958 21.7616 41.0891 21.9052 41.1529C22.0488 41.2168 22.2041 41.2498 22.3612 41.25H26.5868C26.4787 40.8765 26.148 40.458 25.545 39.9967C24.9285 39.5243 24.375 38.8088 24.375 37.875C24.375 36.597 25.3807 35.7442 26.3145 35.2785C27.3158 34.7767 28.6208 34.5 30 34.5C31.3792 34.5 32.6842 34.7767 33.6855 35.2785C34.6192 35.7442 35.625 36.597 35.625 37.875C35.625 38.8088 35.0715 39.5243 34.455 39.9967C33.852 40.458 33.5212 40.8743 33.4132 41.25H37.6388C37.7961 41.2502 37.9517 41.2173 38.0955 41.1536C38.2394 41.0899 38.3682 40.9967 38.4738 40.8801C38.5794 40.7635 38.6594 40.626 38.7085 40.4766C38.7577 40.3271 38.775 40.169 38.7592 40.0125L38.757 39.9967L38.1045 32.3468C38.0911 32.1915 38.1101 32.0351 38.1603 31.8875C38.2105 31.74 38.2909 31.6045 38.3962 31.4896C38.5016 31.3747 38.6296 31.283 38.7723 31.2202C38.915 31.1575 39.0691 31.125 39.225 31.125H40.9845C42.5505 31.125 43.644 32.2432 44.2897 33.087C44.4022 33.2332 44.4945 33.3098 44.5552 33.3458L44.6115 33.3727L44.625 33.375H44.6318C44.6849 33.3551 44.7337 33.3253 44.7757 33.2873C44.9569 33.1134 45.1042 32.9074 45.21 32.6798C45.525 32.0498 45.75 31.1047 45.75 30C45.75 28.8953 45.525 27.948 45.21 27.3225C45.1037 27.0938 44.9557 26.8871 44.7735 26.7128C44.7321 26.6749 44.6841 26.6452 44.6318 26.625H44.625L44.6115 26.6272L44.5552 26.6543C44.453 26.7252 44.3633 26.8127 44.2897 26.913C43.644 27.7567 42.5505 28.875 40.9845 28.875H39.225C39.0691 28.875 38.915 28.8425 38.7723 28.7798C38.6296 28.717 38.5016 28.6253 38.3962 28.5104C38.2909 28.3955 38.2105 28.26 38.1603 28.1125C38.1101 27.9649 38.0911 27.8085 38.1045 27.6532L38.757 19.9875C38.7727 19.8312 38.7555 19.6733 38.7065 19.524C38.6574 19.3747 38.5777 19.2373 38.4723 19.1207C38.367 19.0042 38.2384 18.9109 38.0948 18.8471C37.9512 18.7832 37.7959 18.7502 37.6388 18.75H33.4132C33.5212 19.1235 33.852 19.542 34.455 20.0032C35.0715 20.4757 35.625 21.1912 35.625 22.125C35.625 23.403 34.6192 24.2557 33.6855 24.7215C32.6842 25.2232 31.3792 25.5 30 25.5C28.6208 25.5 27.3158 25.2232 26.3145 24.7215C25.3807 24.2557 24.375 23.403 24.375 22.125C24.375 21.1912 24.9285 20.4757 25.545 20.0032C26.148 19.542 26.4787 19.1258 26.5868 18.75H22.3612Z" fill="black"/>
</svg>
