<svg width="60" height="60" viewBox="0 0 60 60" fill="none" xmlns="http://www.w3.org/2000/svg">
<circle cx="30" cy="30" r="30" fill="#B3C8FF"/>
<path d="M20.8337 43.3332C18.3059 43.3332 16.1464 42.4582 14.3553 40.7082C12.5642 38.9582 11.6681 36.8193 11.667 34.2915C11.667 32.1248 12.3198 30.1943 13.6253 28.4998C14.9309 26.8054 16.6392 25.7221 18.7503 25.2498C19.4448 22.6943 20.8337 20.6248 22.917 19.0415C25.0003 17.4582 27.3614 16.6665 30.0003 16.6665C33.2503 16.6665 36.0075 17.7987 38.272 20.0632C40.5364 22.3276 41.6681 25.0843 41.667 28.3332C43.5837 28.5554 45.1742 29.3821 46.4387 30.8132C47.7031 32.2443 48.3348 33.9176 48.3337 35.8332C48.3337 37.9165 47.6048 39.6876 46.147 41.1465C44.6892 42.6054 42.9181 43.3343 40.8337 43.3332H20.8337Z" fill="black"/>
</svg>
