<?xml version="1.0" encoding="utf-8"?>
<!-- Generator: Adobe Illustrator 27.3.1, SVG Export Plug-In . SVG Version: 6.00 Build 0)  -->
<svg version="1.1" xmlns="http://www.w3.org/2000/svg" xmlns:xlink="http://www.w3.org/1999/xlink" x="0px" y="0px"
	 viewBox="0 0 236.27 190.14" style="enable-background:new 0 0 236.27 190.14;" xml:space="preserve">
<style type="text/css">
	.st0{display:none;}
	.st1{display:inline;fill:#DF2526;}
	.st2{display:inline;fill:#121212;}
	.st3{display:inline;fill:#15264C;}
	.st4{fill:#FFFFFF;}
	.st5{display:inline;fill:#FFFFFF;}
	.st6{fill:url(#SVGID_1_);}
	.st7{fill:url(#SVGID_00000111163087129248496910000012334476758891094194_);}
</style>
<g id="Layer_2_copy" class="st0">
</g>
<g id="Layer_4" class="st0">
	<rect x="-185.69" y="-429.26" class="st2" width="1080" height="1080"/>
</g>
<g id="Layer_2">
	<g>
		<path class="st4" d="M157.75,48.6l14.07,1.12c0,0-18.21-34-54.46-30.03c0,0-35.39,0.86-48.33,36.08c0,0-43.33,8.29-35.39,60.93
			c0,0,7.68,48.33,70.43,39.87c4.79-0.65,11.6-2.44,17.78-7.59c5.81-4.84,16.97-16.51,21.12-21.69c0,0,20.48,7.83,26.93-6.44
			c0,0,5.55-15.75-12.2-18.64c-2.2-0.36-9.05-0.99-7.02-5.52c1.77-3.95,13.55-1.12,17.17,2.24l3.02-9.67c0,0-12.6-7.51-23.99-2.59
			c0,0-12.69,7.34-3.8,20.63c3.64,5.44,11.31,4.79,15.45,6.3c2.13,0.78,3.19,5.12-0.86,6.21c-2.87,0.77-5.7,0.95-13.98-2.76
			c-1.06-0.48-3.62-2.93-3.62-2.93s-10.96,13.12-26.96,26.81c-8.82,7.55-28.94,6.04-39.5,3.83c-13.2-2.76-28.91-17.52-29.6-36.22
			c0,0-4.03-30.38,26.47-41.89c0,0,16.34-7.02,35.56,5.52L115,64c0,0-10.82-9.55-31.88-10.24c0,0,10.59-22.55,37.74-22.67
			C120.87,31.08,140.66,29.18,157.75,48.6z"/>
		<path class="st4" d="M93.88,110.14h12.49c0,0-3.51,15.45-18.61,15.79c0,0-17.69,1.81-21.75-17.17c0,0-2.85-19.68,19.16-23.13
			c0,0,10.7-0.43,16.48,6.65c0,0,27.27-29.69,38.23-32.8c0,0,26.21-12.97,50.83,7.85c0,0,26.01,17.84,13.12,59.26
			c0,0-11.75,38.63-70.08,28.31l9.78-11.51c0,0,47.07,11.74,53.28-35.67c0,0,1.28-40.46-41.89-40.62c0,0-14.61,0.81-30.61,19.22
			l-17.84,17.61H94.98c0,0-0.86-9.55-11.85-6.79c0,0-10.41,3.16-4.26,14.61C78.87,111.75,87.61,121.53,93.88,110.14z"/>
	</g>
	<g class="st0">
		<path class="st5" d="M275.99,107.45c-1.98,3.98-5.03,7.25-9.16,9.79c-4.13,2.54-8.8,3.81-14,3.81c-8.7,0-15.66-2.42-20.9-7.25
			c-5.23-4.83-7.85-11.67-7.85-20.53c0-9.14,2.58-16.45,7.75-21.93c5.17-5.48,11.88-8.22,20.14-8.22c5.94,0,10.85,1.32,14.75,3.96
			c3.89,2.64,6.88,6.28,8.96,10.92l-11.17,4.18c-1.28-2.84-2.91-4.89-4.9-6.15c-1.99-1.26-4.46-1.89-7.4-1.89
			c-4.32,0-7.88,1.71-10.66,5.14c-2.79,3.42-4.18,7.79-4.18,13.11c0,5.6,1.43,9.91,4.3,12.93c2.86,3.02,6.74,4.53,11.64,4.53
			c2.71,0,5.08-0.62,7.11-1.88s3.61-3.1,4.73-5.55L275.99,107.45z"/>
	</g>
</g>
</svg>
