<?xml version="1.0" encoding="utf-8"?>
<!-- Generator: Adobe Illustrator 27.3.1, SVG Export Plug-In . SVG Version: 6.00 Build 0)  -->
<svg version="1.1" xmlns="http://www.w3.org/2000/svg" xmlns:xlink="http://www.w3.org/1999/xlink" x="0px" y="0px"
	 viewBox="0 0 1080 1080" style="enable-background:new 0 0 1080 1080;" xml:space="preserve">
<style type="text/css">
	.st0{display:none;}
	.st1{display:inline;fill:#DF2526;}
	.st2{display:inline;fill:#121212;}
	.st3{display:inline;fill:#15264C;}
	.st4{fill:#FFFFFF;}
	.st5{display:inline;fill:#FFFFFF;}
	.st6{fill:url(#SVGID_1_);}
	.st7{fill:url(#SVGID_00000021840827494274895230000002132995484050008490_);}
</style>
<g id="Layer_2_copy" class="st0">
</g>
<g id="Layer_4" class="st0">
	<rect x="0" class="st2" width="1080" height="1080"/>
</g>
<g id="Layer_2">
	<g>
		<path class="st4" d="M343.44,477.87l14.07,1.12c0,0-18.21-34-54.46-30.03c0,0-35.39,0.86-48.33,36.08c0,0-43.33,8.29-35.39,60.93
			c0,0,7.68,48.33,70.43,39.87c4.79-0.65,11.6-2.44,17.78-7.59c5.81-4.84,16.97-16.51,21.12-21.69c0,0,20.48,7.83,26.93-6.44
			c0,0,5.55-15.75-12.2-18.64c-2.2-0.36-9.05-0.99-7.02-5.52c1.77-3.95,13.55-1.12,17.17,2.24l3.02-9.67c0,0-12.6-7.51-23.99-2.59
			c0,0-12.69,7.34-3.8,20.63c3.64,5.44,11.31,4.79,15.45,6.3c2.13,0.78,3.19,5.12-0.86,6.21c-2.87,0.77-5.7,0.95-13.98-2.76
			c-1.06-0.48-3.62-2.93-3.62-2.93s-10.96,13.12-26.96,26.81c-8.82,7.55-28.94,6.04-39.5,3.83c-13.2-2.76-28.91-17.52-29.6-36.22
			c0,0-4.03-30.38,26.47-41.89c0,0,16.34-7.02,35.56,5.52l8.98-8.17c0,0-10.82-9.55-31.88-10.24c0,0,10.59-22.55,37.74-22.67
			C306.56,460.35,326.35,458.45,343.44,477.87z"/>
		<path class="st4" d="M279.57,539.4h12.49c0,0-3.51,15.45-18.61,15.79c0,0-17.69,1.81-21.75-17.17c0,0-2.85-19.68,19.16-23.13
			c0,0,10.7-0.43,16.48,6.65c0,0,27.27-29.69,38.23-32.8c0,0,26.21-12.97,50.83,7.85c0,0,26.01,17.84,13.12,59.26
			c0,0-11.75,38.63-70.08,28.31l9.78-11.51c0,0,47.07,11.74,53.28-35.67c0,0,1.28-40.46-41.89-40.62c0,0-14.61,0.81-30.61,19.22
			l-17.84,17.61h-11.51c0,0-0.86-9.55-11.85-6.79c0,0-10.41,3.16-4.26,14.61C264.56,541.01,273.3,550.79,279.57,539.4z"/>
	</g>
	<g>
		<path class="st4" d="M461.68,536.71c-1.98,3.98-5.03,7.25-9.16,9.79c-4.13,2.54-8.8,3.81-14,3.81c-8.7,0-15.66-2.42-20.9-7.25
			c-5.23-4.83-7.85-11.67-7.85-20.53c0-9.14,2.58-16.45,7.75-21.93c5.17-5.48,11.88-8.22,20.14-8.22c5.94,0,10.85,1.32,14.75,3.96
			c3.89,2.64,6.88,6.28,8.96,10.92l-11.17,4.18c-1.28-2.84-2.91-4.89-4.9-6.15c-1.99-1.26-4.46-1.89-7.4-1.89
			c-4.32,0-7.88,1.71-10.66,5.14c-2.79,3.42-4.18,7.79-4.18,13.11c0,5.6,1.43,9.91,4.3,12.93c2.86,3.02,6.74,4.53,11.64,4.53
			c2.71,0,5.08-0.62,7.11-1.88s3.61-3.1,4.73-5.55L461.68,536.71z"/>
		<path class="st4" d="M496.66,550.3c-8.07,0-14.7-2.61-19.88-7.83c-5.18-5.22-7.77-12.02-7.77-20.41c0-8.85,2.63-16.02,7.89-21.48
			c5.26-5.47,12.15-8.2,20.66-8.2c8.05,0,14.6,2.62,19.67,7.85c5.06,5.23,7.6,12.14,7.6,20.7c0,8.8-2.62,15.9-7.87,21.29
			C511.7,547.61,504.94,550.3,496.66,550.3z M496.89,539.25c4.4,0,7.94-1.56,10.62-4.67c2.68-3.11,4.02-7.43,4.02-12.95
			c0-5.75-1.3-10.23-3.91-13.44c-2.6-3.2-6.08-4.8-10.43-4.8c-4.48,0-8.09,1.65-10.82,4.94c-2.73,3.29-4.1,7.65-4.1,13.07
			c0,5.5,1.37,9.84,4.1,13.05S492.62,539.25,496.89,539.25z"/>
		<path class="st4" d="M537.34,549.33v-56.02h19.84c9.95,0,17.41,2.27,22.38,6.82c4.97,4.54,7.46,11.37,7.46,20.49
			c0,8.72-2.71,15.69-8.14,20.9c-5.43,5.21-12.66,7.81-21.7,7.81H537.34z M549.95,503.78v35.08h6.25c5.47,0,9.76-1.62,12.87-4.86
			c3.11-3.24,4.67-7.65,4.67-13.22c0-5.29-1.54-9.44-4.63-12.46c-3.09-3.02-7.42-4.53-12.99-4.53H549.95z"/>
		<path class="st4" d="M619.48,538.35l10.62-5.55c1.2,2.42,2.77,4.21,4.71,5.35c1.94,1.15,4.07,1.72,6.39,1.72
			c2.84,0,4.95-0.54,6.33-1.62c1.38-1.08,2.07-2.57,2.07-4.47c0-1.95-0.75-3.49-2.25-4.61c-1.5-1.12-3.86-1.98-7.09-2.58
			c-6.2-1.2-10.75-3.12-13.65-5.76c-2.9-2.64-4.36-6.29-4.36-10.96c0-5.31,1.88-9.56,5.62-12.73c3.75-3.18,8.7-4.77,14.84-4.77
			c4.19,0,7.86,0.85,11.02,2.54c3.15,1.69,5.62,4.12,7.42,7.27l-10.39,5.35c-1.04-1.77-2.23-3.05-3.55-3.85
			c-1.33-0.79-3.05-1.19-5.16-1.19c-2.45,0-4.33,0.53-5.64,1.6c-1.32,1.07-1.97,2.41-1.97,4.02c0,1.64,0.65,2.96,1.95,3.96
			c1.3,1,3.74,1.82,7.3,2.44c5.94,1.07,10.42,3.04,13.46,5.92c3.03,2.88,4.55,6.78,4.55,11.7c0,5.57-1.78,9.99-5.35,13.26
			c-3.57,3.27-8.66,4.9-15.27,4.9c-4.79,0-9.11-1.05-12.95-3.14C624.29,545.06,621.4,542.13,619.48,538.35z"/>
		<path class="st4" d="M686.76,531.08v18.24h-12.62v-56.02h19.49c6.98,0,12.3,1.52,15.96,4.57c3.66,3.05,5.49,7.55,5.49,13.52
			c0,6.2-2.05,11.03-6.15,14.49c-4.1,3.46-9.6,5.2-16.5,5.2H686.76z M686.76,503v18.4h5.27c3.12,0,5.53-0.82,7.23-2.46
			c1.69-1.64,2.54-4,2.54-7.07c0-2.84-0.83-5.03-2.48-6.56c-1.65-1.54-4.02-2.3-7.09-2.3H686.76z"/>
		<path class="st4" d="M774.98,549.33h-12.66v-22.5h-23.2v22.5H726.5v-56.02h12.62v22.34h23.2v-22.34h12.66V549.33z"/>
		<path class="st4" d="M824.6,549.33h-33.59v-56.02h32.3v10.47h-19.69v12.19h18.32v10.39h-18.32v12.5h20.98V549.33z"/>
		<path class="st4" d="M882.31,549.33h-14.18l-8.32-15.16c-1.12-2.06-2.19-3.52-3.22-4.38c-1.03-0.86-2.29-1.29-3.77-1.29h-3.4
			v20.82H836.8v-56.02h20c6.95,0,12.09,1.45,15.41,4.34s4.98,6.75,4.98,11.56c0,3.52-1.04,6.71-3.12,9.59
			c-2.08,2.88-5,4.86-8.75,5.96v0.16c1.43,0.57,2.77,1.53,4.02,2.87c1.25,1.34,2.56,3.21,3.95,5.61L882.31,549.33z M849.42,502.92
			v15.9h5.47c2.89,0,5.12-0.76,6.68-2.29s2.34-3.55,2.34-6.07c0-2.42-0.73-4.28-2.19-5.59c-1.46-1.3-3.66-1.95-6.6-1.95H849.42z"/>
		<path class="st4" d="M926.55,549.33h-33.59v-56.02h32.3v10.47h-19.69v12.19h18.32v10.39h-18.32v12.5h20.98V549.33z"/>
	</g>
</g>
</svg>
