<svg width="124" height="124" viewBox="0 0 124 124" fill="none" xmlns="http://www.w3.org/2000/svg">
<circle cx="62" cy="62" r="62" fill="black"/>
<path d="M43.4875 32.2102C43.7926 32.3683 44.0485 32.6072 44.227 32.9009C44.4056 33.1945 44.5 33.5316 44.5 33.8752C44.5 36.8002 45.5075 38.4952 46.6675 40.1727C46.7775 40.3327 46.8925 40.4961 47.0125 40.6627C48.12 42.2327 49.5 44.1827 49.5 47.0002C49.5 48.1493 49.2737 49.2871 48.8339 50.3487C48.3942 51.4103 47.7497 52.3749 46.9372 53.1874C46.1247 53.9999 45.1601 54.6444 44.0985 55.0842C43.0369 55.5239 41.8991 55.7502 40.75 55.7502C39.6009 55.7502 38.4631 55.5239 37.4015 55.0842C36.3399 54.6444 35.3753 53.9999 34.5628 53.1874C33.7503 52.3749 33.1058 51.4103 32.6661 50.3487C32.2263 49.2871 32 48.1493 32 47.0002C32 44.9427 32.21 42.7002 33.6225 40.2002C35.0025 37.7577 37.4375 35.2352 41.5475 32.3427C41.8278 32.1454 42.1569 32.0287 42.499 32.0053C42.841 31.982 43.1829 32.0528 43.4875 32.2102ZM50.055 40.6852C52.2296 39.2663 54.7352 38.4362 57.3268 38.276C59.9184 38.1159 62.5072 38.6312 64.8399 39.7716C67.1727 40.912 69.1694 42.6384 70.6348 44.782C72.1002 46.9255 72.9841 49.4127 73.2 52.0002H66.3775C63.8911 52.0002 61.5065 52.9879 59.7484 54.7461C57.9902 56.5043 57.0025 58.8888 57.0025 61.3752V68.2002C55.2615 68.0549 53.5592 67.6065 51.9725 66.8752C51.9325 68.0977 51.8475 69.4327 51.7225 70.8327C53.419 71.4605 55.1974 71.8394 57.0025 71.9577V77.6252C57.0025 80.1116 57.9902 82.4962 59.7484 84.2544C61.5065 86.0125 63.8911 87.0002 66.3775 87.0002H82.6275C85.1139 87.0002 87.4985 86.0125 89.2566 84.2544C91.0148 82.4962 92.0025 80.1116 92.0025 77.6252V61.3752C92.0025 58.8888 91.0148 56.5043 89.2566 54.7461C87.4985 52.9879 85.1139 52.0002 82.6275 52.0002H76.9625C76.7445 48.731 75.6737 45.5759 73.8566 42.8494C72.0396 40.1228 69.5398 37.9201 66.6063 36.4605C63.6728 35.001 60.408 34.3356 57.1373 34.5308C53.8666 34.7259 50.7041 35.7747 47.965 37.5727C48.19 37.9577 48.445 38.3427 48.7275 38.7502C48.8225 38.8919 48.9308 39.0452 49.0525 39.2102C49.3475 39.6252 49.7 40.1152 50.055 40.6852ZM82.63 55.7502C84.1218 55.7502 85.5526 56.3429 86.6075 57.3978C87.6624 58.4526 88.255 59.8834 88.255 61.3752V77.6252C88.255 79.1171 87.6624 80.5478 86.6075 81.6027C85.5526 82.6576 84.1218 83.2502 82.63 83.2502H66.38C64.8882 83.2502 63.4574 82.6576 62.4025 81.6027C61.3476 80.5478 60.755 79.1171 60.755 77.6252V71.8352C64.8273 71.2856 68.6066 69.414 71.512 66.5081C74.4175 63.6022 76.2885 59.8227 76.8375 55.7502H82.63ZM60.755 68.0427V61.3752C60.755 59.8834 61.3476 58.4526 62.4025 57.3978C63.4574 56.3429 64.8882 55.7502 66.38 55.7502H73.045C72.5245 58.8212 71.0616 61.6543 68.8591 63.8568C66.6566 66.0593 63.826 67.5222 60.755 68.0427ZM32 65.2177C32 62.7102 32.2 59.5977 33.29 57.0327C35.3725 58.5827 37.955 59.5002 40.75 59.5002C43.4401 59.5042 46.0591 58.6367 48.215 57.0277C49.3025 59.5952 49.5 62.7127 49.5 65.2177C49.5 69.3752 48.84 75.7427 47.63 81.0927C47.03 83.7627 46.265 86.2902 45.3225 88.1927C44.855 89.1427 44.2925 90.0352 43.605 90.7177C42.9125 91.4027 41.955 92.0002 40.755 92.0002C39.555 92.0002 38.6 91.4027 37.9075 90.7152C37.22 90.0352 36.6575 89.1427 36.1875 88.1952C35.245 86.2902 34.48 83.7627 33.875 81.0952C32.6625 75.7427 32 69.3752 32 65.2202" fill="white"/>
</svg>
