<svg width="124" height="124" viewBox="0 0 124 124" fill="none" xmlns="http://www.w3.org/2000/svg">
<circle cx="62" cy="62" r="62" fill="black"/>
<path d="M48.5759 49.5194L45.7063 52.3924L45.7033 52.3894C45.238 52.8365 45.1276 53.5398 45.4289 54.1091L46.1925 55.6081C46.4043 56.0165 46.5177 56.4695 46.5236 56.9285C46.5296 57.3904 46.4282 57.8464 46.2253 58.2607C46.0911 58.5408 45.9718 58.812 45.8584 59.0802C45.7481 59.3455 45.6377 59.6346 45.5363 59.9177L45.5393 59.9148C45.235 60.7969 44.5281 61.4824 43.6361 61.7626L42.0372 62.2812V62.2782C41.7389 62.3736 41.4794 62.5613 41.2915 62.8146C41.1065 63.068 41.0081 63.3779 41.0141 63.6908V67.8096C41.0051 68.4534 41.4227 69.0286 42.0372 69.2223L43.6361 69.7379C44.528 70.0181 45.235 70.7065 45.5392 71.5887C45.6377 71.8688 45.748 72.152 45.8614 72.4262C45.9747 72.7004 46.0941 72.9656 46.2283 73.2428H46.2253C46.634 74.0833 46.622 75.0667 46.1925 75.8953L45.4289 77.3944V77.3914C45.1246 77.9606 45.238 78.664 45.7033 79.111L48.6176 82.0258C48.8384 82.2493 49.1247 82.3983 49.432 82.452C49.7452 82.4997 50.0644 82.449 50.3448 82.303L51.8392 81.54V81.543C52.6684 81.1138 53.6528 81.0989 54.4911 81.5072C54.7715 81.6413 55.0459 81.7605 55.3114 81.8738C55.5858 81.99 55.8662 82.0943 56.1466 82.1957C57.0326 82.4967 57.7216 83.203 58.002 84.0942L58.5241 85.6916C58.712 86.3086 59.2877 86.7229 59.9321 86.7139H64.0574C64.7018 86.7228 65.2775 86.3085 65.4654 85.6916L65.9874 84.0942C66.2679 83.203 66.9539 82.4967 67.8369 82.1957C68.1203 82.0943 68.4007 81.99 68.6722 81.8738C68.9466 81.7576 69.2151 81.6413 69.4954 81.5072C70.3367 81.0989 71.318 81.1138 72.1473 81.543L73.6537 82.303C73.9342 82.452 74.2533 82.5056 74.5635 82.4579C74.8738 82.4043 75.1572 82.2553 75.3779 82.0347L78.2922 79.12V79.117C78.7606 78.6699 78.8709 77.9696 78.5696 77.4003L77.806 75.9013C77.3765 75.0728 77.3645 74.0922 77.7672 73.2517C77.9015 72.9716 78.0267 72.7004 78.1341 72.4351C78.2415 72.1699 78.3579 71.8838 78.4563 71.5976H78.4533C78.6054 71.1625 78.856 70.7661 79.1871 70.4442C79.5182 70.1253 79.9179 69.8869 80.3534 69.7439L81.9523 69.2283H81.9553C82.2536 69.1359 82.5161 68.9481 82.701 68.6948C82.883 68.4385 82.9814 68.1315 82.9814 67.8156V63.6968C82.9874 63.0501 82.5728 62.4749 81.9553 62.2841L80.3564 61.7656H80.3534C79.4644 61.4854 78.7605 60.8 78.4532 59.9177C78.3548 59.6376 78.2444 59.3545 78.1311 59.0802C78.0177 58.806 77.8984 58.5408 77.7642 58.2607L77.7672 58.2637C77.3585 57.4261 77.3734 56.4427 77.8059 55.6141L78.5696 54.115C78.8708 53.5458 78.7575 52.8454 78.2921 52.3984L75.4226 49.5194C75.0467 51.8143 74.0832 53.975 72.6245 55.7901C73.8028 57.0388 74.7514 58.4902 75.4226 60.0698C75.4226 60.0817 75.4345 60.0996 75.4405 60.1115C76.8037 63.3512 76.9528 66.9723 75.8551 70.3101C74.7573 73.6479 72.4903 76.4763 69.4715 78.2762C66.4498 80.0763 62.8822 80.723 59.4221 80.1031C55.9619 79.4802 52.8417 77.6294 50.6403 74.8905C48.4359 72.1546 47.2994 68.7123 47.4336 65.2016C47.5708 61.6908 48.9698 58.3469 51.3801 55.7897C49.9214 53.9747 48.9579 51.814 48.582 49.5191L48.5759 49.5194ZM78.3341 40.5012C77.9731 40.6979 77.5197 40.5697 77.3139 40.2121C77.1111 39.8544 77.2274 39.4014 77.5794 39.1868L81.9465 36.6684C82.1195 36.5611 82.3313 36.5313 82.5282 36.582C82.725 36.6327 82.8951 36.7608 82.9965 36.9396C83.0979 37.1155 83.1247 37.3271 83.0681 37.5208C83.0114 37.7175 82.8801 37.8844 82.7012 37.9798L78.3341 40.5012ZM35.4811 64.9961C35.8987 64.9961 36.2387 65.3359 36.2387 65.7531C36.2387 66.1733 35.8987 66.5131 35.4811 66.5131H28.4115C28.3637 66.5101 28.316 66.5071 28.2683 66.4982C27.9103 67.4221 26.9438 67.9586 25.9685 67.7768C24.9931 67.595 24.2891 66.7455 24.2891 65.7532C24.2891 64.7637 24.993 63.9143 25.9685 63.7295C26.9438 63.5477 27.9104 64.0842 28.2683 65.0081C28.316 64.9992 28.3637 64.9962 28.4115 64.9962L35.4811 64.9961ZM88.521 66.5131H88.518C88.1004 66.5131 87.7603 66.1734 87.7603 65.7531C87.7603 65.3359 88.1004 64.9961 88.518 64.9961H95.5876C95.6353 64.9961 95.683 64.9991 95.7308 65.008C96.0887 64.0842 97.0552 63.5477 98.0306 63.7295C99.006 63.9142 99.71 64.7637 99.71 65.7531C99.71 66.7455 99.006 67.5949 98.0306 67.7767C97.0552 67.9585 96.0887 67.422 95.7308 66.4981C95.683 66.507 95.6353 66.51 95.5876 66.513L88.521 66.5131ZM89.6187 79.5072C90.5434 79.8678 91.0804 80.8335 90.8984 81.808C90.7164 82.7825 89.8633 83.4889 88.87 83.4889C87.8797 83.4889 87.0265 82.7825 86.8446 81.808C86.6597 80.8335 87.1996 79.8678 88.1243 79.5072C88.1154 79.4625 88.1094 79.4178 88.1094 79.3701V76.357H82.0391H82.0421C81.6305 76.3451 81.3053 76.0083 81.3053 75.597C81.3053 75.1857 81.6305 74.849 82.0421 74.837H88.8701H88.8671C89.0699 74.837 89.2638 74.9145 89.407 75.0576C89.5502 75.2006 89.6307 75.3944 89.6307 75.594V79.3701C89.6307 79.4148 89.6276 79.4625 89.6187 79.5072ZM94.8478 73.4929C95.7725 73.8506 96.3095 74.8192 96.1275 75.7937C95.9456 76.7682 95.0924 77.4746 94.0992 77.4746C93.1058 77.4746 92.2557 76.7683 92.0708 75.7937C91.8888 74.8192 92.4258 73.8505 93.3505 73.4929C93.3416 73.4482 93.3386 73.4005 93.3386 73.3528V70.3398H87.2683C87.0625 70.3487 86.8626 70.2712 86.7164 70.1282C86.5673 69.9851 86.4837 69.7854 86.4837 69.5798C86.4837 69.3741 86.5673 69.1774 86.7164 69.0344C86.8626 68.8913 87.0624 68.8138 87.2683 68.8198H94.0963C94.2991 68.8198 94.493 68.9003 94.6362 69.0403C94.7794 69.1834 94.8599 69.3771 94.8599 69.5798V73.3558V73.3528C94.8599 73.4005 94.8568 73.4452 94.8478 73.4929ZM94.0036 53.9061C94.994 53.9061 95.8471 54.6125 96.029 55.587C96.2109 56.5616 95.6741 57.5272 94.7464 57.8848C94.7553 57.9325 94.7613 57.9802 94.7613 58.0279V61.801C94.7613 62.2182 94.4212 62.558 94.0036 62.558H87.1697C86.752 62.558 86.412 62.2212 86.412 61.801C86.412 61.3837 86.752 61.044 87.1697 61.044H93.2429V58.0279C93.2429 57.9802 93.2459 57.9325 93.2519 57.8848C92.3302 57.5242 91.7962 56.5586 91.9781 55.584C92.1601 54.6125 93.0104 53.9061 94.0036 53.9061ZM88.8699 48.02H88.867C89.8603 48.017 90.7164 48.7234 90.8984 49.6979C91.0833 50.6725 90.5434 51.6411 89.6187 51.9987C89.6276 52.0434 89.6306 52.0911 89.6306 52.1358V55.9119C89.6306 56.1116 89.5501 56.3053 89.4069 56.4483C89.2637 56.5914 89.0698 56.6689 88.867 56.6689H82.042C81.6303 56.657 81.3052 56.3202 81.3052 55.9089C81.3052 55.4976 81.6303 55.1608 82.042 55.1489H88.1123L88.1093 52.1358C88.1093 52.0911 88.1153 52.0464 88.1242 52.0017C87.1995 51.6441 86.6596 50.6784 86.8415 49.7039C87.0235 48.7294 87.8766 48.023 88.8699 48.023L88.8699 48.02ZM34.3807 79.5098C33.459 79.8674 32.922 80.8331 33.1069 81.8046C33.2889 82.7762 34.1391 83.4825 35.1293 83.4825C36.1196 83.4825 36.9699 82.7762 37.1518 81.8046C37.3337 80.8331 36.7998 79.8674 35.875 79.5098C35.884 79.4651 35.8899 79.4174 35.8899 79.3727V76.3566H41.9602H41.9573C42.3689 76.3447 42.694 76.0079 42.694 75.5966C42.694 75.1854 42.3689 74.8486 41.9573 74.8367H35.1233H35.1263C34.7087 74.8367 34.3686 75.1764 34.3686 75.5937V79.3697C34.3686 79.4144 34.3716 79.4621 34.3806 79.5068L34.3807 79.5098ZM29.1545 73.4925H29.1575C28.2298 73.8532 27.6928 74.8188 27.8748 75.7933C28.0597 76.7679 28.9099 77.4742 29.9032 77.4742C30.8964 77.4742 31.7496 76.7679 31.9315 75.7933C32.1165 74.8188 31.5766 73.8531 30.6518 73.4925C30.6608 73.4478 30.6638 73.4001 30.6638 73.3554V70.3394H36.7341C36.9399 70.3483 37.1398 70.2708 37.2889 70.1278C37.4351 69.9847 37.5186 69.785 37.5186 69.5794C37.5186 69.3737 37.4351 69.1771 37.2889 69.034C37.1398 68.8909 36.9399 68.8135 36.7341 68.8194H29.9031C29.7003 68.8194 29.5064 68.8999 29.3632 69.04C29.22 69.183 29.1395 69.3767 29.1395 69.5794V73.3554V73.3525C29.1395 73.4002 29.1425 73.4449 29.1514 73.4925H29.1545ZM29.9957 53.9058C29.0054 53.9058 28.1522 54.6121 27.9703 55.5866C27.7884 56.5612 28.3253 57.5268 29.253 57.8844C29.2441 57.9321 29.2381 57.9798 29.2381 58.0275V61.8006C29.2381 62.2178 29.5781 62.5576 29.9958 62.5576H36.8237C37.2443 62.5576 37.5844 62.2208 37.5844 61.8006C37.5844 61.3833 37.2443 61.0436 36.8237 61.0436H30.7564V58.0275C30.7564 57.9798 30.7505 57.9321 30.7445 57.8845C31.6662 57.5238 32.2032 56.5582 32.0212 55.5866C31.8393 54.6121 30.989 53.9058 29.9957 53.9058ZM35.1264 48.0196C34.1331 48.0196 33.2829 48.726 33.101 49.7005C32.9161 50.6751 33.456 51.6407 34.3807 51.9983C34.3718 52.043 34.3688 52.0907 34.3688 52.1354V55.9115C34.3688 56.3287 34.7089 56.6685 35.1265 56.6685H41.9604H41.9574C42.3691 56.6566 42.6942 56.3198 42.6942 55.9085C42.6942 55.4972 42.3691 55.1605 41.9574 55.1485H35.8871L35.8901 52.1354C35.8901 52.0907 35.8842 52.046 35.8752 52.0013C36.7969 51.6407 37.3339 50.6751 37.149 49.7035C36.967 48.729 36.1168 48.0256 35.1265 48.0226L35.1264 48.0196ZM46.4199 39.1861C46.5988 39.2814 46.7331 39.4483 46.7868 39.645C46.8434 39.8417 46.8166 40.0504 46.7152 40.2292C46.6137 40.405 46.4467 40.5332 46.2468 40.5838C46.05 40.6345 45.8412 40.6047 45.6652 40.4974L41.2981 37.979C40.9461 37.7674 40.8298 37.3114 41.0356 36.9568C41.2384 36.5991 41.6918 36.471 42.0527 36.6677L46.4199 39.1861ZM53.4417 32.7277C53.6416 33.0884 53.5163 33.5414 53.1583 33.7499C52.8004 33.9556 52.344 33.8394 52.1322 33.4847L49.6086 29.1215C49.4028 28.7608 49.528 28.2989 49.889 28.0902C50.2499 27.8816 50.7123 28.0038 50.9241 28.3644L53.4417 32.7277ZM62.7604 30.6385C62.7604 31.0587 62.4203 31.3985 61.9997 31.3985C61.5791 31.3985 61.2391 31.0587 61.2391 30.6385V25.6047C61.2391 25.1845 61.5791 24.8447 61.9997 24.8447C62.4203 24.8447 62.7604 25.1845 62.7604 25.6047V30.6385ZM71.8675 33.4818C71.6587 33.8454 71.1934 33.9705 70.8324 33.7589C70.4685 33.5503 70.3432 33.0854 70.552 32.7247L73.0726 28.3615H73.0756C73.2844 27.9979 73.7497 27.8727 74.1107 28.0843C74.4746 28.293 74.5999 28.7579 74.3911 29.1185L71.8675 33.4818ZM64.425 71.7016C64.8844 71.2456 65.2036 70.6674 65.3467 70.0356H58.653C58.9274 71.2516 59.8462 72.2232 61.0453 72.5689C62.2474 72.9176 63.542 72.5838 64.425 71.7016ZM70.8056 62.1524H53.1946C52.777 62.1524 52.3981 62.4027 52.2401 62.7902C52.079 63.1746 52.1685 63.6217 52.4668 63.9138C52.6607 64.1105 52.9232 64.2208 53.1946 64.2208H70.8056C71.2202 64.2178 71.5961 63.9674 71.7542 63.583C71.9153 63.1985 71.8258 62.7545 71.5334 62.4594C71.3395 62.2656 71.077 62.1554 70.8056 62.1524ZM67.9658 65.7407H56.037V65.9761C56.043 67.3798 57.1795 68.5153 58.5844 68.5243H65.4184H65.4154C66.8203 68.5153 67.9568 67.3798 67.9628 65.9761L67.9658 65.7407ZM56.037 60.6384H67.9627V60.5341C67.9418 58.9753 68.6279 57.4911 69.83 56.5016C70.2477 56.147 70.6414 55.7655 71.0024 55.3572C71.0203 55.3393 71.0382 55.3185 71.0561 55.3006L71.065 55.2916L71.062 55.2946C73.1262 52.958 74.2031 49.9151 74.0718 46.8036C73.9436 43.6922 72.6131 40.7505 70.364 38.5956C68.1149 36.4379 65.117 35.2339 61.9999 35.2339C58.8828 35.2339 55.8878 36.4379 53.6358 38.5956C51.3866 40.7504 50.0592 43.692 49.9279 46.8036C49.7967 49.9152 50.8765 52.958 52.9377 55.2946L52.9467 55.3035V55.3006C52.9646 55.3185 52.9795 55.3363 52.9944 55.3572C53.3583 55.7655 53.7521 56.147 54.1697 56.5016C55.3718 57.4911 56.058 58.9753 56.037 60.531L56.037 60.6384ZM55.1958 47.4773C55.1958 47.8975 54.8557 48.2372 54.4351 48.2372C54.0145 48.2372 53.6745 47.8975 53.6745 47.4773C53.6745 45.2718 54.5515 43.1558 56.1116 41.5941C57.6746 40.0354 59.7925 39.1592 61.9999 39.1592C62.4175 39.1592 62.7576 39.499 62.7576 39.9192C62.7576 40.3364 62.4175 40.6762 61.9999 40.6762C58.2443 40.6792 55.1988 43.7221 55.1988 47.4773L55.1958 47.4773Z" fill="white"/>
</svg>
