<svg width="124" height="124" viewBox="0 0 124 124" fill="none" xmlns="http://www.w3.org/2000/svg">
<circle cx="62" cy="62" r="62" fill="black"/>
<path fill-rule="evenodd" clip-rule="evenodd" d="M33.0733 85.6913C33.5335 79.521 38.6841 74.6143 44.914 74.6143C47.8061 74.6143 50.4623 75.6714 52.5278 77.4187C49.6244 79.6446 47.4966 82.8643 46.6727 86.5883H33.9003C33.4145 86.5883 33.0363 86.1783 33.0733 85.6913ZM55.4457 29.3075C57.0735 26.7294 59.2553 24.2601 61.9883 21.9771C64.7212 24.2601 66.903 26.7294 68.5309 29.3075H55.4457ZM55.065 52.442C51.082 45.7303 50.7922 38.3224 54.1985 31.5105H69.7723C73.1786 38.3225 72.8917 45.7305 68.9058 52.442C68.67 52.8373 68.2808 53.0607 67.8234 53.0607H56.1471C55.6925 53.0607 55.3008 52.8373 55.065 52.442ZM41.0482 62.3537C39.4971 63.534 38.4971 65.4103 38.4971 67.5186C38.4971 71.0936 41.3693 73.9897 44.9147 73.9897C48.4602 73.9897 51.3323 71.0936 51.3323 67.5186C51.3323 63.1215 47.0909 60.0474 42.9941 61.3425L39.0083 52.0182C40.1447 51.0184 40.5509 49.3971 39.9885 47.9648L49.6903 39.973C49.7471 38.9245 49.8778 37.8704 50.0823 36.8133L38.6081 46.2667C36.253 44.7198 33.0684 46.4071 33.0684 49.2946C33.0684 51.4287 34.8922 53.0988 37.0001 52.8925L41.0482 62.3537ZM73.8861 36.7875C74.0935 37.8446 74.2241 38.9016 74.2838 39.95L84.0111 47.9654C83.4486 49.4005 83.8548 51.0219 84.9912 52.0187L81.0054 61.343C76.9088 60.0483 72.6672 63.122 72.6672 67.5191C72.6672 71.0941 75.5394 73.9902 79.0848 73.9902C82.6303 73.9902 85.5024 71.0941 85.5024 67.5191C85.5024 65.4079 84.4996 63.5345 82.9513 62.3542L86.9967 52.8928C89.1047 53.099 90.9285 51.429 90.9285 49.2949C90.9285 46.4074 87.7439 44.7173 85.3887 46.267L73.8861 36.7875ZM59.1872 34.7766C57.6304 36.3464 57.6304 38.8959 59.1872 40.4656C60.744 42.0354 63.2724 42.0354 64.8292 40.4656C66.386 38.8959 66.386 36.3464 64.8292 34.7766C63.2696 33.2068 60.744 33.2068 59.1872 34.7766ZM67.3748 55.2666L66.8918 56.5815C66.7043 57.0885 66.247 57.4094 65.71 57.4094H58.2955C57.7585 57.4094 57.3011 57.0885 57.1137 56.5815L56.6307 55.2666H67.3748ZM53.7297 54.2698C53.5252 54.0664 53.3433 53.8315 53.1899 53.5737C51.5848 50.8695 50.4911 47.9848 49.9825 45.0054C46.5536 48.5231 46.2893 53.3588 48.3774 57.0049L48.5337 57.2771L53.7297 54.2698ZM70.2555 54.2612L75.4658 57.2804L75.622 57.0083C77.7158 53.3531 77.4459 48.5031 73.997 44.9853C73.4913 47.9731 72.3947 50.8634 70.7867 53.5734C70.6333 53.8283 70.4544 54.0578 70.2555 54.2612ZM48.5253 89.0028C48.4827 89.5586 48.9145 90.0255 49.4657 90.0255L74.5341 90.0226C75.0852 90.0226 75.5142 89.5557 75.4744 89C74.9517 81.9789 69.0909 76.3984 62.0002 76.3984C54.9096 76.3984 49.0482 81.9786 48.5261 89.0029L48.5253 89.0028ZM61.9995 60.9587C57.9654 60.9587 54.6955 64.2558 54.6955 68.3206C54.6955 72.3884 57.9654 75.6826 61.9995 75.6826C66.0336 75.6826 69.3006 72.3854 69.3006 68.3206C69.3006 64.2558 66.0336 60.9587 61.9995 60.9587ZM71.4686 77.4184C73.5339 75.671 76.1902 74.6139 79.0824 74.6139C85.3154 74.6139 90.4657 79.521 90.9232 85.6909C90.9601 86.1779 90.5822 86.5876 90.0965 86.5876L77.3241 86.5905C76.5002 82.8637 74.3749 79.6442 71.4686 77.4184Z" fill="white"/>
</svg>
