<svg width="124" height="124" viewBox="0 0 124 124" fill="none" xmlns="http://www.w3.org/2000/svg">
<circle cx="62" cy="62" r="62" fill="black"/>
<path d="M85.9669 71.4669L72.375 85.0588L67.0331 79.7169L64.125 82.625L72.375 90.875L88.875 74.375L85.9669 71.4669ZM47.625 70.25H60V74.375H47.625V70.25ZM47.625 62H64.125V66.125H47.625V62Z" fill="white"/>
<path d="M43.5 37.25H60V49.625C60 51.8937 61.8563 53.75 64.125 53.75H76.5V66.125H80.625V49.625C80.625 49.0063 80.4188 48.5938 80.0063 48.1813L65.5688 33.7437C65.1563 33.3312 64.7437 33.125 64.125 33.125H43.5C41.2312 33.125 39.375 34.9812 39.375 37.25V86.75C39.375 89.0187 41.2312 90.875 43.5 90.875H57.9375V86.75H43.5V37.25ZM64.125 38.075L75.675 49.625H64.125V38.075Z" fill="white"/>
</svg>
