<svg width="124" height="124" viewBox="0 0 124 124" fill="none" xmlns="http://www.w3.org/2000/svg">
<circle cx="62" cy="62" r="62" fill="black"/>
<path fill-rule="evenodd" clip-rule="evenodd" d="M70.3909 40.4684C70.8722 40.4653 71.3378 40.6449 71.6909 40.97C71.7097 40.9855 71.7284 41.004 71.7472 41.0226C72.494 41.7657 72.494 42.9638 71.7472 43.7069L66.1659 49.2365C65.4159 49.9734 64.2065 49.9734 63.4565 49.2365L60.7472 46.5522V46.5491C60.0034 45.8092 60.0065 44.611 60.7534 43.871C61.4972 43.1342 62.7065 43.1311 63.4565 43.8648L64.8128 45.2085L69.0377 41.0227C69.3971 40.6666 69.8847 40.4653 70.3909 40.4684ZM71.9659 39.4622C69.2377 36.7593 64.9596 36.3414 61.7531 38.4653C58.5437 40.5892 57.2968 44.6636 58.7718 48.196C60.25 51.7285 64.0405 53.7348 67.8246 52.9887C71.6087 52.2425 74.334 48.9514 74.334 45.1278C74.3371 43.0038 73.4846 40.9638 71.9659 39.4622ZM66.2472 35.524C61.6222 35.524 57.6407 38.7624 56.7375 43.2549C55.8375 47.7473 58.2657 52.2492 62.5375 54.0016C66.8094 55.754 71.7376 54.2741 74.3064 50.4659C76.8751 46.6547 76.3719 41.577 73.1001 38.3385C71.2845 36.5335 68.819 35.5209 66.2472 35.524ZM71.2409 33.1803C70.7597 32.9821 70.2691 32.815 69.7691 32.6756C69.4503 32.6106 69.2003 32.3629 69.1409 32.0471L68.7128 29.8521H63.7784L63.3534 32.044C63.294 32.3413 63.0722 32.5797 62.7753 32.6602C61.7534 32.9419 60.7722 33.3444 59.8471 33.8583C59.5752 34.0348 59.2252 34.0317 58.9596 33.8521L57.0909 32.5982L53.6034 36.0535L54.869 37.9049L54.8658 37.908C55.0346 38.1557 55.0471 38.4808 54.8971 38.7439C54.3752 39.6572 53.9658 40.6294 53.6784 41.6387C53.6127 41.9576 53.3596 42.2022 53.0377 42.261L50.8221 42.6852V47.5739L53.0377 47.9981V47.995C53.3377 48.0538 53.5784 48.2736 53.6596 48.5678C53.944 49.5801 54.3502 50.5554 54.869 51.4688C55.0471 51.7382 55.044 52.0849 54.8627 52.3512L53.5971 54.2026L57.0846 57.6578L58.9565 56.404C59.2096 56.2337 59.5346 56.2213 59.8002 56.373C60.7221 56.89 61.7034 57.2957 62.7221 57.5804C63.044 57.6454 63.2908 57.8931 63.3502 58.2089L63.7752 60.4009H68.7096L69.1346 58.2089H69.1409C69.1971 57.9117 69.419 57.6733 69.7159 57.5959C70.7377 57.3142 71.7221 56.9117 72.6471 56.3947C72.9159 56.2213 73.2659 56.2244 73.5315 56.4039L75.4003 57.6578L78.8878 54.2026L77.6222 52.3512L77.6253 52.3481C77.4566 52.0973 77.4441 51.7753 77.5941 51.5121C78.1191 50.5988 78.5285 49.6266 78.8159 48.6174C78.8784 48.2985 79.1315 48.0539 79.4503 47.995L81.6628 47.574V42.6853L79.4503 42.2642V42.2611C79.1503 42.2054 78.9096 41.9825 78.8284 41.6914C78.544 40.679 78.1378 39.7038 77.619 38.7873C77.4409 38.521 77.444 38.1743 77.6253 37.908L78.8878 36.0566L75.4002 32.6013L73.5315 33.8552V33.8521C73.2784 34.0224 72.9534 34.0348 72.6878 33.8862C72.2221 33.6199 71.7378 33.3846 71.2409 33.1803ZM35.7785 73.3521L30.9191 78.3058C30.7754 78.4544 30.7004 78.6556 30.7098 78.86C30.716 79.0798 30.8098 79.2872 30.9691 79.4389L44.9595 93.0152C45.0377 93.0957 45.1283 93.1577 45.2314 93.201C45.3314 93.2413 45.4408 93.2629 45.5502 93.2598C45.6564 93.2598 45.7627 93.2413 45.8595 93.201C45.9533 93.1639 46.0345 93.105 46.1033 93.0307L50.9595 88.0739V88.077C51.1033 87.9284 51.1814 87.7272 51.1752 87.5228C51.1658 87.303 51.072 87.0956 50.9158 86.9439L36.919 73.3644C36.8409 73.287 36.7502 73.2251 36.6471 73.1817C36.5471 73.1415 36.4377 73.1198 36.3284 73.1229C36.2221 73.1198 36.1159 73.1415 36.019 73.1786C35.9284 73.2189 35.844 73.2777 35.7752 73.352L35.7785 73.3521ZM63.9537 74.5409L69.6568 74.4728V74.4697C69.685 74.4697 69.7162 74.4697 69.7443 74.4666C72.2443 74.3861 74.2256 72.3458 74.2037 69.869C74.2037 69.8411 74.2037 69.8101 74.1974 69.7823C74.1818 69.1847 74.0443 68.5996 73.8006 68.0547L85.3534 58.3454C86.0909 57.6921 87.0065 57.268 87.9846 57.1286C88.7253 57.0357 89.469 57.2648 90.0253 57.7571C90.0628 57.7912 90.1097 57.8376 90.1628 57.8871C90.7659 58.4754 91.1566 59.2463 91.269 60.0791C91.3847 60.8346 91.1597 61.6024 90.6565 62.1844C90.6347 62.2061 90.6065 62.2371 90.5659 62.2773L74.8627 78.0428C74.5065 78.4205 74.1096 78.7611 73.6814 79.0552C73.3127 79.3059 72.8877 79.4638 72.447 79.5196L55.0998 81.5816C53.1811 81.8076 51.9811 83.1018 50.8185 84.3495L50.6779 84.4981L39.6403 73.7822C41.9403 70.1815 44.431 67.7852 47.1154 66.5963C49.8622 65.3795 52.8529 65.4259 56.0874 66.7294C56.703 66.9833 57.3686 67.1071 58.0342 67.0885L69.5686 66.9028H69.5718C70.3655 66.8997 71.1249 67.2124 71.6874 67.7697C72.2436 68.3115 72.5718 69.0484 72.5998 69.8224V69.8719V69.8812C72.6123 71.4943 71.3311 72.8224 69.7061 72.8813H69.653L63.9311 72.9525C63.7186 72.9556 63.5186 73.0423 63.3686 73.1909C63.2218 73.3426 63.1374 73.5439 63.1405 73.7544C63.1467 74.1909 63.5092 74.5439 63.9499 74.5377L63.9537 74.5409ZM37.9721 79.4699C37.9721 79.9034 37.6159 80.2563 37.1784 80.2563C36.7377 80.2563 36.3846 79.9034 36.3846 79.4699C36.3846 79.0365 36.7377 78.6835 37.1752 78.6835C37.6127 78.6835 37.969 79.0365 37.969 79.4699H37.9721ZM38.8752 77.7888C39.444 78.3491 39.6939 79.1542 39.5377 79.9343C39.3815 80.7145 38.844 81.3678 38.1002 81.6712C37.3596 81.9746 36.5127 81.8941 35.8471 81.4514C35.1815 81.0086 34.7815 80.2625 34.7815 79.4699C34.7846 78.5071 35.369 77.6432 36.2659 77.2748C37.1596 76.9064 38.1908 77.1107 38.8784 77.7888H38.8752ZM70.5912 42.1284C70.535 42.082 70.4662 42.0603 70.3912 42.0603C70.31 42.0572 70.2318 42.0913 70.1756 42.147L65.3818 46.8964H65.3787C65.2287 47.0481 65.0256 47.1317 64.81 47.1317C64.5975 47.1317 64.3943 47.0481 64.2443 46.8964L62.3256 44.9954H62.3225C62.2006 44.8809 62.01 44.884 61.8912 45.0016C61.7756 45.1193 61.7725 45.3081 61.885 45.4289L64.5944 48.1131C64.7162 48.2308 64.9131 48.2308 65.0319 48.1131L70.6131 42.5835H70.6163C70.735 42.4628 70.735 42.2708 70.6163 42.1501L70.5912 42.1284Z" fill="white"/>
</svg>
