<svg width="102" height="103" viewBox="0 0 102 103" fill="none" xmlns="http://www.w3.org/2000/svg">
<path d="M69.6357 81.1384C84.4877 70.8759 89.715 47.1343 80.0627 28.9064C70.4104 10.6785 50.1493 11.5477 35.1059 20.303C18.3178 30.0737 5.08628 50.442 17.2349 68.9149C29.3835 87.3879 54.7837 91.4009 69.6357 81.1384Z" fill="#FFE7D5"/>
<path fill-rule="evenodd" clip-rule="evenodd" d="M60.5493 48.908C60.5728 48.9408 60.5915 48.9783 60.6103 49.0158C60.6501 49.1025 60.6712 49.194 60.6759 49.283L65.7009 58.5152C65.7126 58.5363 65.7243 58.5574 65.7384 58.5761L65.7407 58.5785C65.7525 58.5926 65.7642 58.609 65.7759 58.6254C65.8814 58.759 66.0243 58.8527 66.1814 58.8996C66.3806 58.9582 66.6009 58.9418 66.7931 58.8363L72.3337 55.8199C72.5259 55.7145 72.6595 55.5387 72.7181 55.3395C72.7767 55.1402 72.7603 54.9199 72.6571 54.7254L67.5993 45.435C67.4938 45.2428 67.3181 45.1092 67.1188 45.0506C66.9196 44.9921 66.6993 45.0085 66.5048 45.1116L60.9642 48.128C60.772 48.2334 60.6384 48.4092 60.5798 48.6084C60.554 48.7069 60.5423 48.8072 60.5493 48.908ZM47.1831 36.512C46.8902 36.219 46.8902 35.7433 47.1831 35.4527C47.4761 35.1597 47.9518 35.1597 48.2425 35.4527L50.0706 37.2831L53.755 33.5988C54.048 33.3058 54.5237 33.3058 54.8167 33.5988C55.1097 33.8917 55.1097 34.3675 54.8167 34.6581L50.6003 38.8745C50.3073 39.1675 49.8316 39.1675 49.5386 38.8745L47.1831 36.512ZM51.0011 43.6652C52.3839 43.1824 53.5933 42.5754 54.5425 41.741C55.5175 40.8855 56.2347 39.7723 56.6097 38.2723C56.7925 37.5504 56.8933 36.7887 56.9472 36.0223C57.0034 35.2208 57.0105 34.4333 57.0034 33.6738C56.994 32.823 56.9636 31.9442 56.9331 31.0652L56.9144 30.5355C55.9182 30.4887 54.9315 30.334 53.9777 30.0762C52.9464 29.7973 51.9433 29.3941 51.0011 28.8738C50.0589 29.3941 49.0581 29.7973 48.0246 30.0762C47.0707 30.334 46.0839 30.4887 45.0879 30.5355L45.0691 31.0769C45.0387 31.9535 45.0082 32.8301 44.9988 33.6761C44.9894 34.4355 44.9965 35.2253 45.0551 36.0246C45.109 36.791 45.2121 37.5527 45.3926 38.2746C45.7699 39.7746 46.4871 40.8879 47.4597 41.7433C48.4113 42.5753 49.6184 43.1824 51.0011 43.6652ZM55.5269 42.8684C56.7269 41.816 57.6082 40.4543 58.0629 38.6379C58.2668 37.8222 58.3816 36.9785 58.4426 36.1301C58.5012 35.3168 58.5082 34.4801 58.4988 33.6644C58.4894 32.7621 58.459 31.8926 58.4285 31.0207L58.3886 29.7855C58.3769 29.373 58.0324 29.0472 57.6199 29.059C56.5231 29.0613 55.4262 28.916 54.3668 28.6301C53.3191 28.3465 52.3136 27.9246 51.3855 27.3715C51.1371 27.2238 50.8371 27.2355 50.6074 27.3762C49.6839 27.9293 48.6808 28.3465 47.6355 28.63C46.5691 28.9183 45.4652 29.0636 44.3613 29.0589C43.9558 29.0589 43.6253 29.3824 43.6136 29.7855L43.5738 31.03C43.5433 31.8972 43.5129 32.7644 43.5035 33.6644C43.4941 34.48 43.5011 35.3167 43.5597 36.13C43.6207 36.9785 43.7332 37.8222 43.9394 38.6378C44.3965 40.4542 45.2754 41.816 46.4754 42.8683C47.6449 43.8948 49.1051 44.6097 50.7644 45.1652C50.9238 45.2191 51.0902 45.2144 51.2379 45.1652C52.8972 44.6097 54.3574 43.8949 55.5269 42.8684ZM59.5441 50.3264L64.0839 58.6676C63.648 58.9254 63.3738 59.2512 63.1089 59.5652C62.9542 59.7504 62.8019 59.9308 62.5956 60.0551C62.2511 59.6004 61.855 59.1434 61.4073 58.6887C60.8683 58.1402 60.2542 57.5918 59.5605 57.0387C59.9871 56.9074 60.3902 56.7012 60.7698 56.4246C61.105 56.1809 61.18 55.7121 60.9363 55.3793C60.6925 55.0442 60.2261 54.9692 59.8909 55.2129C59.5464 55.4637 59.1831 55.6207 58.7987 55.6864C58.4448 55.7473 58.0651 55.7309 57.6621 55.6418L52.5246 51.5754C52.3839 51.4489 52.1941 51.3786 51.9902 51.3879L50.0355 51.4911C49.8527 51.5004 49.6722 51.5754 49.5339 51.7184L47.7621 53.5512C47.216 53.9661 46.6277 54.1653 46.1261 54.17C45.8613 54.1723 45.6245 54.1207 45.4441 54.02C45.3035 53.9403 45.2003 53.8278 45.1464 53.6848C45.0761 53.4973 45.0785 53.2418 45.1746 52.9208L46.9511 49.2387L50.1058 47.9169C50.6753 47.7411 51.2823 47.7247 51.9245 47.8653C52.6112 48.0153 53.3378 48.3458 54.1042 48.852C54.13 48.8731 54.1604 48.8919 54.1886 48.9083L57.6549 50.8559V50.8536C57.8565 50.9661 58.1049 50.9848 58.3299 50.8817L59.5441 50.3264ZM64.9511 59.9078C64.6394 60.0695 64.4425 60.3039 64.2503 60.5312C64.0066 60.8218 63.7675 61.1031 63.4183 61.3234C63.4909 61.457 63.5589 61.5906 63.6222 61.7218C63.648 61.7781 63.6667 61.8343 63.6784 61.8906C63.8097 62.3945 63.8003 62.8796 63.6456 63.3484C63.4933 63.8125 63.2073 64.239 62.7831 64.6328C62.7597 64.6562 62.7339 64.6749 62.7081 64.6937C62.3519 64.9796 61.9675 65.1578 61.5597 65.2281L61.5269 65.2328C61.4355 65.2468 61.344 65.2562 61.2503 65.2585C61.2269 65.4085 61.1894 65.5562 61.1378 65.7015C60.9831 66.1468 60.7136 66.5617 60.3268 66.9437L60.3221 66.9484C59.9143 67.3468 59.4925 67.6093 59.0565 67.7312C58.9276 67.7687 58.7987 67.7921 58.6721 67.8062C58.6534 67.9257 58.6276 68.0429 58.5925 68.1578C58.4682 68.5703 58.2409 68.9476 57.9081 69.2898C57.5003 69.782 57.0221 70.0796 56.4761 70.1804C56.2581 70.2203 56.0354 70.2273 55.8057 70.2039C55.7823 70.2999 55.7495 70.396 55.7143 70.4898C55.5456 70.921 55.2597 71.2984 54.8565 71.6195L54.7956 71.664C54.3761 71.9499 53.9519 72.1093 53.5253 72.1421C53.0706 72.1796 52.6299 72.0718 52.2104 71.821C52.1378 71.7789 52.0745 71.7249 52.0229 71.664L51.8518 71.4648L50.7292 72.4398C50.6354 72.5218 50.5229 72.5757 50.4104 72.6039C49.5995 72.7937 48.9174 72.7749 48.362 72.5593C48.0057 72.421 47.7104 72.2124 47.4783 71.9359C47.1619 72.0554 46.8432 72.0905 46.5315 72.0577C46.1682 72.0202 45.8283 71.896 45.5213 71.7109C45.2401 71.5421 44.9799 71.3148 44.7549 71.0617C44.4128 70.6773 44.1503 70.2109 44.0049 69.7609C43.7471 69.7421 43.4963 69.6812 43.2596 69.5851C42.826 69.4093 42.444 69.1187 42.1416 68.7624C41.8463 68.4155 41.6237 68.0007 41.4995 67.5718C41.469 67.464 41.4432 67.3515 41.4245 67.2413C41.094 67.2694 40.7729 67.2319 40.4729 67.1429C40.0276 67.0093 39.6315 66.7608 39.3198 66.4351C39.0057 66.1069 38.776 65.7062 38.6635 65.2702C38.4994 64.6327 38.5838 63.9296 39.0174 63.2851C39.0408 63.2522 39.0643 63.2218 39.0901 63.1936C39.1463 63.128 39.2026 63.0601 39.2588 62.9968C38.8416 62.6218 38.5486 62.2585 38.2603 61.8999C37.9064 61.464 37.5596 61.0327 36.9267 60.5991C36.7158 60.7491 36.4814 60.864 36.2377 60.9366C35.6728 61.103 35.0447 61.0538 34.4892 60.7515L28.9486 57.7351C28.3908 57.4327 28.0087 56.9288 27.8423 56.3664C27.6759 55.8015 27.7251 55.1734 28.0275 54.6179L33.0853 45.3275C33.39 44.772 33.8916 44.3877 34.4564 44.2212C35.0189 44.0548 35.6494 44.104 36.2049 44.4064L41.7455 47.4228C42.3033 47.7251 42.6853 48.229 42.8518 48.7939C42.9502 49.1314 42.9737 49.49 42.9127 49.8439L42.9221 49.8486L42.9619 49.8673C43.3135 50.0384 43.726 50.2376 44.0776 50.397C44.2159 50.4392 44.3541 50.4532 44.4924 50.4415C44.5698 50.4345 44.6495 50.4204 44.7291 50.397L45.7158 48.358C45.7908 48.1892 45.9268 48.0486 46.1119 47.9712L49.5526 46.5322L49.6112 46.5111C50.4526 46.2416 51.3315 46.2064 52.2455 46.408C53.108 46.5978 54.0034 46.9986 54.9292 47.615L58.0557 49.3705L59.0518 48.9134C59.0448 48.6697 59.0776 48.4259 59.1456 48.1939C59.312 47.6291 59.694 47.1275 60.2518 46.8228L65.7925 43.8064C66.3503 43.5041 66.9784 43.4549 67.5409 43.6213C68.1058 43.7877 68.6073 44.1697 68.9097 44.7276L73.9675 54.018C74.2722 54.5758 74.319 55.2039 74.1526 55.7664C73.9862 56.3313 73.6042 56.8328 73.0464 57.1375L67.5034 60.1539C66.9502 60.4539 66.3221 60.5008 65.7597 60.3344C65.4667 60.2477 65.1902 60.1046 64.9511 59.9078ZM36.0641 59.3851C36.0782 59.3453 36.0969 59.3054 36.1157 59.2679C36.1766 59.1554 36.2657 59.064 36.3641 59.0007L41.3563 49.8297C41.4618 49.6375 41.4782 49.4172 41.4172 49.2157C41.3586 49.0165 41.225 48.8407 41.0328 48.7352L35.4922 45.7188C35.3 45.6134 35.0797 45.597 34.8782 45.6579C34.679 45.7165 34.5032 45.8501 34.3977 46.0423L29.3399 55.3327C29.2344 55.5249 29.218 55.7452 29.2789 55.9467C29.3375 56.1459 29.4711 56.3217 29.6633 56.4272L35.204 59.4436C35.3961 59.549 35.6165 59.5654 35.818 59.5068C35.9071 59.4764 35.9914 59.4367 36.0641 59.3851ZM37.843 59.4085L42.3055 51.2101C42.6008 51.3531 42.9477 51.5242 43.4703 51.7562C43.5149 51.782 43.5641 51.8031 43.6133 51.8195C43.7399 51.8594 43.8664 51.8898 43.993 51.9109L43.7961 52.3164C43.7774 52.3586 43.761 52.4008 43.7492 52.443C43.5383 53.118 43.5524 53.7086 43.7352 54.1984C43.918 54.6953 44.2602 55.075 44.7078 55.3258C45.1133 55.5531 45.6055 55.668 46.1328 55.6633C46.9578 55.6539 47.893 55.3445 48.7227 54.6953C48.7508 54.6742 48.7766 54.6484 48.8024 54.625L50.4032 52.968L51.786 52.8953L56.8625 56.9148L56.8649 56.9172L56.8789 56.9242L56.8813 56.9265L56.9047 56.9383L56.9117 56.9429L56.9258 56.95C58.3039 57.8875 59.443 58.8156 60.343 59.7343C60.875 60.2781 61.3227 60.8148 61.6836 61.3468L61.7071 61.3797C61.9157 61.6914 62.0961 62.0008 62.2461 62.3078C62.293 62.5117 62.2883 62.7039 62.2297 62.8844C62.1594 63.1 62.0071 63.3156 61.775 63.5312C61.625 63.6484 61.4727 63.7211 61.3157 63.7468L61.2993 63.7492C61.1938 63.7633 61.0813 63.7586 60.9618 63.7351C60.2024 62.7226 59.4688 61.8414 58.7586 61.0937C57.9875 60.2828 57.2399 59.6219 56.5203 59.1156C56.1828 58.8789 55.714 58.9586 55.4773 59.2984C55.2383 59.6359 55.3203 60.1047 55.6601 60.3414C56.3023 60.7914 56.9726 61.3867 57.6758 62.125C58.3578 62.8422 59.0656 63.693 59.7969 64.6727C59.811 64.8602 59.7899 65.0383 59.7313 65.2094C59.6516 65.4367 59.5063 65.6594 59.2906 65.8727C59.0656 66.093 58.8524 66.2313 58.6578 66.2875C58.5594 66.3157 58.4633 66.3204 58.3649 66.3063C57.9102 65.7321 57.3805 65.1321 56.7758 64.511C56.1125 63.8313 55.3555 63.1188 54.5047 62.3758C54.1953 62.1039 53.7219 62.1367 53.45 62.4461C53.1782 62.7555 53.211 63.2289 53.5203 63.5008C54.336 64.2133 55.0649 64.8953 55.7047 65.5539C56.2789 66.1446 56.7805 66.7118 57.207 67.2555C57.2234 67.4242 57.2094 67.5813 57.1672 67.7242C57.1109 67.9141 56.9984 68.0946 56.8297 68.2633C56.8086 68.2844 56.7875 68.3078 56.7711 68.3313C56.5859 68.5516 56.4008 68.6781 56.2133 68.7133C56.0352 68.7461 55.8219 68.7086 55.5734 68.6008C54.9875 67.9164 54.4414 67.3071 53.9375 66.7773C53.4031 66.2148 52.9109 65.732 52.4586 65.3312C52.1492 65.057 51.6758 65.0875 51.4039 65.3969C51.1321 65.7062 51.1602 66.1773 51.4696 66.4515C51.8774 66.8125 52.3391 67.2672 52.8547 67.8109C53.3281 68.3101 53.8414 68.882 54.3922 69.5242C54.3992 69.6836 54.3782 69.8289 54.3289 69.9554C54.2633 70.1265 54.1367 70.2883 53.9516 70.4383C53.7547 70.5695 53.5766 70.6422 53.4172 70.6539C53.3047 70.6633 53.1899 70.6422 53.075 70.5906C51.8445 69.1726 51.0641 68.2562 50.7313 67.8578C50.6985 67.4031 50.5766 66.9414 50.3493 66.5195C49.9954 65.8632 49.4001 65.3101 48.5071 65.0359C48.4555 64.7476 48.3571 64.4687 48.2141 64.2109C48.0219 63.8593 47.7501 63.5429 47.4266 63.2968C47.0985 63.046 46.7141 62.8632 46.2969 62.7882C46.1798 62.7671 46.0626 62.7554 45.9454 62.7507C45.936 62.6781 45.9219 62.6078 45.9079 62.5351C45.8071 62.0781 45.5798 61.6281 45.2282 61.1851L45.186 61.1359C44.7501 60.6765 44.2579 60.4046 43.7118 60.3249H43.7095C43.1774 60.2452 42.6196 60.353 42.0384 60.6437C41.579 60.871 41.0985 61.2062 40.5993 61.6445C40.5009 61.7288 40.4024 61.8203 40.304 61.914C39.9477 61.5952 39.6923 61.2788 39.4392 60.9671C39.0149 60.4445 38.6001 59.9335 37.843 59.4085ZM41.818 65.5867L44.443 63.2805C44.4758 63.1398 44.4758 62.9969 44.4453 62.8562C44.3961 62.6359 44.2719 62.3969 44.0703 62.1391C43.8781 61.9469 43.6836 61.8344 43.482 61.8039C43.2594 61.7711 42.9992 61.8297 42.7039 61.9773L42.6992 61.9797C42.3617 62.1461 41.9891 62.4086 41.5836 62.7672C41.3609 62.9617 41.1336 63.1844 40.8969 63.4305H40.8945C40.6859 63.6508 40.4703 63.8875 40.2524 64.1477C40.093 64.3961 40.0649 64.6633 40.1258 64.9023C40.1727 65.0875 40.2711 65.2609 40.407 65.3992C40.543 65.5422 40.7164 65.65 40.9086 65.7086C41.1735 65.7883 41.4899 65.7649 41.818 65.5867ZM44.293 68.2586L46.5313 66.3649C46.6672 66.2618 46.7797 66.1446 46.8594 66.0086C46.9368 65.8797 46.9954 65.7321 47.0375 65.5633C47.0704 65.3594 47.0141 65.1344 46.8993 64.9258C46.8055 64.7547 46.6719 64.6 46.5172 64.4805C46.3672 64.3657 46.2008 64.2836 46.0321 64.2532C45.868 64.225 45.6899 64.2414 45.5141 64.3258L42.9078 66.6157C42.875 66.7821 42.8914 66.9719 42.9453 67.1594C43.011 67.3867 43.1305 67.6071 43.2875 67.7946C43.4375 67.9727 43.6203 68.1157 43.8195 68.1953C43.9672 68.2563 44.1289 68.282 44.293 68.2586ZM50.881 70.3375C50.6326 70.0492 50.4122 69.7914 50.2247 69.5688L48.6942 71.0359C48.7552 71.0922 48.8278 71.1367 48.9052 71.1672C49.1442 71.2586 49.4747 71.2656 49.9036 71.1859L50.881 70.3375ZM49.238 68.2656C49.2169 68.1648 49.2169 68.0617 49.238 67.9609C49.2193 67.7078 49.1536 67.4547 49.0294 67.2273C48.8794 66.9461 48.631 66.7023 48.2701 66.543C48.2302 66.6273 48.1857 66.707 48.1388 66.7844C47.9536 67.0914 47.7169 67.3515 47.4357 67.5625L45.4107 69.2758C45.4786 69.5172 45.6474 69.8102 45.8794 70.0703C46.0036 70.2109 46.1466 70.3352 46.3013 70.4266C46.4302 70.5039 46.5614 70.5578 46.6833 70.5695C46.8474 70.5859 47.0302 70.532 47.2224 70.3727L49.2192 68.4602L49.2263 68.4156C49.2286 68.3688 49.2333 68.3172 49.238 68.2656Z" fill="#7B563A"/>
</svg>
