<svg width="131" height="122" viewBox="0 0 131 122" fill="none" xmlns="http://www.w3.org/2000/svg">
<path d="M72.8692 0.153613C41.3443 -2.26865 8.04208 24.2389 1.06359 59.6538C-5.9149 95.0687 22.6054 116.221 52.728 120.902C86.344 126.127 126.813 113.028 130.666 74.5279C134.519 36.0284 104.394 2.57588 72.8692 0.153613Z" fill="#BCCFFF"/>
<g clip-path="url(#clip0_152_17)">
<path fill-rule="evenodd" clip-rule="evenodd" d="M74.9856 52.8942C75.2491 52.761 75.4141 52.4912 75.4141 52.1961C75.4141 51.9011 75.2491 51.6312 74.9856 51.498L68.4505 48.22C68.2102 48.0995 67.9234 48.1121 67.6957 48.2542C67.4662 48.3963 67.3263 48.6464 67.3263 48.9181V55.4741C67.3263 55.7458 67.4662 55.9959 67.6957 56.138C67.9234 56.2801 68.2102 56.2928 68.4505 56.1722L74.9856 52.8942ZM72.9004 52.1961L68.8808 54.2129V50.1793L72.9004 52.1961Z" fill="black"/>
<path fill-rule="evenodd" clip-rule="evenodd" d="M60.03 46.272V54.8176L53.7375 48.5047C53.2714 48.037 52.6406 47.775 51.9818 47.775C51.323 47.775 50.6906 48.037 50.2245 48.5047L50.223 48.5063C49.7569 48.974 49.4958 49.6086 49.4958 50.2696C49.4958 50.4256 49.5098 50.5815 49.5378 50.7327C49.5316 50.7545 49.5254 50.7764 49.5207 50.7982C49.5207 50.7982 48.4828 55.0796 47.6081 58.6968C46.8607 61.7808 45.2325 64.6589 42.9314 66.968C40.8386 69.0682 38.2858 71.6298 36.4882 73.4337C35.4689 74.4565 35.1193 75.9003 35.4425 77.21L35.1768 77.475C34.4543 78.2 34.0488 79.1838 34.0488 80.2097C34.0488 81.2357 34.4543 82.2195 35.1768 82.9445C36.6451 84.4163 38.5732 86.3527 40.0415 87.8246C40.764 88.5511 41.7444 88.958 42.7667 88.958C43.7875 88.958 44.7679 88.5511 45.4904 87.8246L45.7561 87.5595C46.7162 87.7965 47.7479 87.6702 48.632 87.1806C48.7019 87.2633 48.7765 87.3428 48.8542 87.4207L50.1064 88.679C50.397 88.9705 50.8118 89.0968 51.2158 89.0204C51.5436 88.9565 51.828 88.7632 52.0097 88.4887L56.9226 93.4203C57.527 94.0252 58.3458 94.3651 59.2003 94.3651C60.0533 94.3651 60.8721 94.0252 61.4765 93.4203L61.4781 93.4187C62.0809 92.8122 62.4212 91.9906 62.4212 91.133C62.4212 90.2771 62.0809 89.4554 61.4781 88.8489L54.7583 82.1072L55.3968 80.6104L55.9624 80.0445C58.2619 77.7354 61.1316 76.1014 64.2033 75.3515C67.8094 74.4721 72.0759 73.4322 72.0759 73.4322C72.0977 73.4275 72.1194 73.4213 72.1396 73.4135C72.2919 73.4431 72.4457 73.4571 72.6026 73.4571C73.2614 73.4571 73.8938 73.1952 74.3583 72.7274L74.3615 72.7243C74.8276 72.2581 75.0886 71.6236 75.0886 70.9625C75.0886 70.3014 74.8276 69.6669 74.3615 69.2007L68.316 63.1341H78.0391C80.2671 63.1341 82.0741 61.3208 82.0741 59.085V45.3069C82.0741 43.0711 80.2671 41.2578 78.0391 41.2578H71.0551C71.0039 40.3161 70.6201 39.3884 69.9023 38.6681L69.9007 38.6666C68.3548 37.1152 65.8502 37.1152 64.3058 38.6666L63.9842 38.9893L63.4917 38.4951C62.749 37.7513 61.7438 37.3335 60.6934 37.3335C59.6447 37.3335 58.6379 37.7513 57.8968 38.4951L57.8952 38.4982C57.1525 39.2419 56.7361 40.2522 56.7361 41.3046C56.7361 42.3586 57.1525 43.3674 57.8952 44.1126C58.1873 44.4057 59.0745 45.3038 60.03 46.272ZM56.5357 86.0955L54.0995 83.6507L52.6856 86.9624L58.0226 92.3164C58.3349 92.6298 58.7575 92.806 59.2003 92.806C59.6416 92.806 60.0657 92.6298 60.378 92.3164L60.3796 92.3149C60.6919 92.0015 60.8675 91.5774 60.8675 91.133C60.8675 90.6903 60.6919 90.2646 60.3796 89.9512L57.6342 87.1978L57.0329 87.8027C56.7284 88.1068 56.2374 88.1068 55.9329 87.8027C55.6299 87.4987 55.6299 87.0045 55.9329 86.7004L56.5357 86.0955ZM36.1448 78.7208L44.249 86.8548C43.8357 87.204 43.3121 87.3989 42.7667 87.3989C42.1561 87.3989 41.5719 87.1557 41.14 86.7222L36.2753 81.8422C35.8449 81.4087 35.6025 80.8225 35.6025 80.2097C35.6025 79.6625 35.7952 79.1355 36.1448 78.7208ZM51.1117 86.6864L53.7748 80.453C53.1968 80.1645 52.479 80.2627 51.9973 80.7445L49.9526 82.7979C48.9831 83.7692 48.9831 85.3455 49.9526 86.3184L50.874 87.243L50.9921 86.967C51.0138 86.8688 51.0527 86.7721 51.1117 86.6864ZM50.7031 52.5148L49.1167 59.0663C48.3041 62.4216 46.5345 65.557 44.0299 68.0703L40.2031 71.912L45.6193 77.3472C45.9223 77.6512 45.9223 78.1454 45.6193 78.4495C45.3164 78.7535 44.8238 78.7535 44.5208 78.4495L39.1046 73.0143L37.5866 74.536C36.6435 75.4824 36.6435 77.0166 37.5866 77.963L45.0041 85.4063C45.7809 86.1859 46.9555 86.3247 47.8722 85.8195C47.4139 84.4163 47.7417 82.8104 48.8542 81.694L50.8988 79.6422C51.915 78.6225 53.464 78.4588 54.6495 79.1558L54.8639 78.9422C57.1945 76.6019 60.0626 74.9024 63.1452 74.02L58.0987 68.9575C57.7958 68.6534 57.7958 68.1592 58.0987 67.8551C58.4033 67.5511 58.8942 67.5511 59.1988 67.8551L64.9009 73.5772L70.3653 72.2457L50.7031 52.5148ZM52.639 49.607L73.263 70.303C73.437 70.4776 73.5349 70.7146 73.5349 70.9625C73.5349 71.2104 73.437 71.4474 73.263 71.622L73.2599 71.6251C73.0859 71.7998 72.8497 71.898 72.6026 71.898C72.3556 71.898 72.1194 71.7998 71.9454 71.6251C67.9679 67.6337 55.299 54.9206 51.3214 50.9292C51.1474 50.7545 51.0495 50.516 51.0495 50.2696C51.0495 50.0217 51.1474 49.7848 51.3214 49.6086L51.323 49.607C51.4986 49.4324 51.7347 49.3342 51.9818 49.3342C52.2273 49.3342 52.465 49.4324 52.639 49.607ZM61.5837 56.3768L64.1753 58.979C64.3136 58.7591 64.556 58.6126 64.8341 58.6126C64.9615 58.6126 65.0904 58.6126 65.2225 58.6126C65.6513 58.6126 65.9994 58.9618 65.9994 59.3922C65.9994 59.7773 65.7197 60.0984 65.3546 60.1608L66.7716 61.5827C66.8089 61.5781 66.8461 61.5749 66.8865 61.5749C70.6869 61.5749 74.767 61.5749 78.0391 61.5749C79.4095 61.5749 80.5204 60.4602 80.5204 59.085V45.3069C80.5204 43.9318 79.4095 42.817 78.0391 42.817H70.8299C70.6388 43.3518 70.3296 43.8538 69.9023 44.2826L69.7485 44.4369C69.8868 44.5835 69.9722 44.7815 69.9722 44.9998C69.9722 45.4504 69.6071 45.8168 69.1565 45.8168C69.0213 45.8168 68.8846 45.8168 68.7494 45.8168C68.6391 45.8168 68.5335 45.7949 68.4356 45.7544L65.8005 48.3987C65.3142 48.8867 64.6554 49.1595 63.9687 49.1595C63.2819 49.1595 62.6232 48.8867 62.1384 48.3987C61.969 48.2287 61.781 48.0401 61.5837 47.8405V56.3768ZM68.3299 60.1717C68.4589 60.1717 68.5879 60.1717 68.7184 60.1717C69.1472 60.1717 69.4952 59.8225 69.4952 59.3922C69.4952 58.9618 69.1472 58.6126 68.7184 58.6126C68.5879 58.6126 68.4589 58.6126 68.3299 58.6126C67.9011 58.6126 67.5531 58.9618 67.5531 59.3922C67.5531 59.8225 67.9011 60.1717 68.3299 60.1717ZM71.8258 60.1717C71.9548 60.1717 72.0853 60.1717 72.2142 60.1717C72.643 60.1717 72.9911 59.8225 72.9911 59.3922C72.9911 58.9618 72.643 58.6126 72.2142 58.6126C72.0853 58.6126 71.9548 58.6126 71.8258 58.6126C71.397 58.6126 71.0489 58.9618 71.0489 59.3922C71.0489 59.8225 71.397 60.1717 71.8258 60.1717ZM75.3216 60.1717C75.4522 60.1717 75.5811 60.1717 75.7101 60.1717C76.1389 60.1717 76.4869 59.8225 76.4869 59.3922C76.4869 58.9618 76.1389 58.6126 75.7101 58.6126C75.5811 58.6126 75.4522 58.6126 75.3216 58.6126C74.8928 58.6126 74.5448 58.9618 74.5448 59.3922C74.5448 59.8225 74.8928 60.1717 75.3216 60.1717ZM78.8175 60.1717C78.9387 60.1717 79.0599 60.1717 79.1764 60.1717C79.6052 60.1717 79.9533 59.8225 79.9533 59.3922C79.9533 58.9618 79.6052 58.6126 79.1764 58.6126C79.0599 58.6126 78.9387 58.6126 78.8175 58.6126C78.3887 58.6126 78.0406 58.9618 78.0406 59.3922C78.0406 59.8225 78.3887 60.1717 78.8175 60.1717ZM61.4656 45.5205L63.2369 47.2964C63.4311 47.4913 63.6937 47.6004 63.9687 47.6004C64.2437 47.6004 64.5078 47.4913 64.702 47.2964L68.8038 43.1803C69.7423 42.2385 69.7423 40.7121 68.8038 39.7704L68.8023 39.7689C67.8638 38.8271 66.3427 38.8271 65.4043 39.7689C64.9599 40.2148 64.6104 40.5656 64.5435 40.6326C64.2608 40.9148 63.9842 40.8712 63.9842 40.8712C63.9811 40.8712 63.7045 40.9148 63.4202 40.6295C63.341 40.5484 62.9137 40.1212 62.3932 39.5989C61.9426 39.1468 61.332 38.8926 60.6934 38.8926C60.0564 38.8926 59.4458 39.1468 58.9952 39.5989L58.9937 39.6005C58.5431 40.0526 58.2899 40.6654 58.2899 41.3046C58.2899 41.9439 58.5431 42.5582 58.9937 43.0103C59.5142 43.5326 59.9414 43.9598 60.0207 44.0409C60.0704 44.0892 60.1092 44.1391 60.1388 44.1875L61.217 45.2695C61.318 45.3334 61.4035 45.4192 61.4656 45.5205ZM72.4146 45.8168C72.5514 45.8168 72.6865 45.8168 72.8217 45.8168C73.2723 45.8168 73.6374 45.4504 73.6374 44.9998C73.6374 44.5492 73.2723 44.1828 72.8217 44.1828C72.6865 44.1828 72.5514 44.1828 72.4146 44.1828C71.9656 44.1828 71.6005 44.5492 71.6005 44.9998C71.6005 45.4504 71.9656 45.8168 72.4146 45.8168ZM76.0799 45.8168C76.2166 45.8168 76.3533 45.8168 76.4869 45.8168C76.9375 45.8168 77.3026 45.4504 77.3026 44.9998C77.3026 44.5492 76.9375 44.1828 76.4869 44.1828C76.3533 44.1828 76.2166 44.1828 76.0799 44.1828C75.6308 44.1828 75.2657 44.5492 75.2657 44.9998C75.2657 45.4504 75.6308 45.8168 76.0799 45.8168Z" fill="black"/>
<path fill-rule="evenodd" clip-rule="evenodd" d="M83.651 55.0815C84.1715 55.6038 84.8238 56.2874 84.6779 56.141C84.6779 56.141 86.5645 58.0342 87.8944 59.3687C88.3801 59.8561 89.0383 60.1295 89.7254 60.1295C90.4125 60.1295 91.0708 59.8561 91.5565 59.3687C92.6746 58.2467 94.322 56.5935 95.6585 55.2524C97.2038 53.7017 97.2038 51.1881 95.6585 49.6374L95.6563 49.636C94.1117 48.0853 91.6069 48.0853 90.0616 49.636L89.7395 49.9592L89.2479 49.4651C88.5059 48.7206 87.4997 48.3022 86.4505 48.3022C85.4013 48.3022 84.3951 48.7206 83.6532 49.4651L83.651 49.4673C82.9091 50.2118 82.4922 51.2215 82.4922 52.2744C82.4922 53.3272 82.9091 54.337 83.651 55.0815ZM85.8945 55.1573C85.8648 55.1082 85.8256 55.0592 85.7775 55.0102C85.6968 54.9299 85.2703 54.5019 84.7498 53.9796C84.2988 53.5271 84.0456 52.9141 84.0456 52.2744C84.0456 51.6354 84.2988 51.0217 84.7498 50.5699L84.7512 50.5677C85.2022 50.1159 85.813 49.8618 86.4505 49.8618C87.0873 49.8618 87.6989 50.1159 88.1491 50.5677C88.6696 51.09 89.0968 51.5187 89.1768 51.599C89.4604 51.8836 89.7373 51.8412 89.7395 51.8412C89.7425 51.8412 90.0179 51.8851 90.3 51.6012C90.3659 51.5358 90.7169 51.1836 91.1604 50.7386C92.0985 49.7964 93.6193 49.7964 94.5582 50.7386L94.5597 50.7401C95.4978 51.6815 95.4978 53.2084 94.5597 54.1498L90.4585 58.266C90.2637 58.4607 90.0001 58.5707 89.7254 58.5707C89.4507 58.5707 89.1871 58.4607 88.9924 58.266L85.8945 55.1573Z" fill="black"/>
<path fill-rule="evenodd" clip-rule="evenodd" d="M89.0898 40.2754C89.3961 40.5827 91.5859 42.7972 91.5859 42.7972C91.9318 43.1439 92.401 43.3388 92.8897 43.3388C93.3785 43.3388 93.8476 43.1439 94.1935 42.7972L96.6064 40.3755C97.6406 39.3381 97.6406 37.656 96.6064 36.6183L96.6055 36.6174C95.5836 35.5923 93.9352 35.5801 92.8984 36.5807L92.8348 36.5169C92.3382 36.0185 91.6652 35.7388 90.963 35.7388C90.2608 35.7388 89.5873 36.0185 89.0907 36.5169L89.0898 36.5182C88.5932 37.0165 88.3145 37.6919 88.3145 38.3966C88.3145 39.1012 88.5932 39.777 89.0898 40.2754ZM90.8868 39.8907C90.8611 39.8535 90.8297 39.8164 90.7931 39.7792C90.7456 39.732 90.4947 39.4802 90.1885 39.1725C89.9833 38.967 89.8679 38.6877 89.8679 38.3966C89.8679 38.1054 89.9833 37.8265 90.1885 37.6206L90.1893 37.6193C90.3945 37.4134 90.6729 37.298 90.963 37.298C91.2531 37.298 91.531 37.4134 91.7362 37.6193C92.0425 37.9266 92.2938 38.1789 92.3409 38.2261C92.621 38.5076 92.8958 38.463 92.898 38.4626C92.9006 38.463 93.1742 38.508 93.4538 38.2274C93.4926 38.1889 93.6991 37.9817 93.96 37.7199C94.3869 37.291 95.0796 37.291 95.5065 37.7199L95.5078 37.7207C95.9351 38.1496 95.9351 38.8442 95.5078 39.273L93.0945 41.6947C93.0404 41.749 92.9664 41.78 92.8897 41.78C92.8131 41.78 92.739 41.7494 92.685 41.6947L90.8868 39.8907Z" fill="black"/>
<path fill-rule="evenodd" clip-rule="evenodd" d="M76.3283 34.6279C76.6018 34.9024 78.5576 36.8805 78.5576 36.8805C78.882 37.2058 79.322 37.3888 79.7807 37.3888C80.2394 37.3888 80.6794 37.2058 81.0035 36.8805L83.1588 34.7177C84.1147 33.7585 84.1147 32.2035 83.1588 31.2443C83.1584 31.2443 83.158 31.2439 83.1576 31.2435C82.2329 30.3151 80.7514 30.2854 79.7905 31.1541C79.3314 30.6934 78.7089 30.4346 78.06 30.4346C77.4107 30.4346 76.7882 30.693 76.3291 31.1537C76.3291 31.1541 76.3287 31.1545 76.3283 31.1549C75.8693 31.6155 75.6113 32.2402 75.6113 32.8914C75.6113 33.543 75.8693 34.1676 76.3283 34.6279ZM78.0565 34.1723C78.0316 34.1372 78.0016 34.1024 77.967 34.0673C77.9246 34.0251 77.7005 33.8003 77.427 33.5258C77.2593 33.3575 77.1652 33.1291 77.1652 32.8914C77.1652 32.6536 77.2593 32.4256 77.427 32.2574C77.4274 32.257 77.4278 32.2566 77.4278 32.2562C77.5955 32.0879 77.8227 31.9935 78.06 31.9935C78.2969 31.9935 78.5241 32.0879 78.6918 32.2562C78.9653 32.5307 79.1898 32.7559 79.2318 32.7981C79.5115 33.0788 79.7858 33.0339 79.7881 33.0335C79.7908 33.0339 80.064 33.0796 80.3433 32.7993C80.3779 32.7649 80.5623 32.5798 80.7954 32.346C81.1443 31.9958 81.71 31.9958 82.0594 32.346C82.0594 32.3464 82.0598 32.3464 82.0601 32.3468C82.4091 32.697 82.4091 33.265 82.0601 33.6152L79.9052 35.778C79.8722 35.8108 79.8274 35.8296 79.7807 35.8296C79.734 35.8296 79.6893 35.8112 79.6562 35.778L78.0565 34.1723Z" fill="black"/>
<path fill-rule="evenodd" clip-rule="evenodd" d="M45.5309 47.0981C45.9281 47.5269 46.4799 47.7795 47.0645 47.8004C47.6473 47.8216 48.2163 47.6089 48.6438 47.21L48.6459 47.2081C49.0734 46.8092 49.326 46.2552 49.3474 45.6703C49.369 45.0836 49.158 44.5131 48.7607 44.0843C48.3809 43.6743 47.9465 43.2056 47.5674 42.7964C47.1694 42.3668 46.6176 42.1142 46.0338 42.0941C45.4502 42.0722 44.882 42.2856 44.4545 42.6845L44.4524 42.6865C44.0249 43.0854 43.7715 43.6386 43.7509 44.2242C43.7285 44.8101 43.9395 45.3806 44.3375 45.8102L45.5309 47.0981ZM46.6702 46.035L45.4769 44.7471C45.3596 44.6205 45.2967 44.4538 45.3034 44.2801C45.3097 44.1082 45.383 43.9454 45.5095 43.8274L45.5116 43.8254C45.6381 43.7074 45.8052 43.6459 45.9765 43.652C46.1496 43.6579 46.3108 43.733 46.4281 43.8595L47.6214 45.1474C47.7387 45.274 47.8015 45.4407 47.7941 45.6136C47.7885 45.7864 47.7145 45.9483 47.588 46.0664L47.5859 46.0683C47.4594 46.1863 47.2931 46.2487 47.121 46.2417C46.9486 46.2366 46.7875 46.1616 46.6702 46.035Z" fill="black"/>
<path fill-rule="evenodd" clip-rule="evenodd" d="M50.7341 42.9176C50.7341 43.5033 50.9666 44.0655 51.3804 44.4804C51.7927 44.8943 52.3534 45.1274 52.9369 45.1274H52.9398C53.5233 45.1274 54.084 44.8943 54.4963 44.4804C54.91 44.0655 55.1426 43.5033 55.1426 42.9176C55.1426 42.3576 55.1426 41.7173 55.1426 41.1585C55.1426 40.5717 54.91 40.0095 54.4963 39.5956C54.084 39.1807 53.5233 38.9486 52.9398 38.9486H52.9369C52.3534 38.9486 51.7927 39.1807 51.3804 39.5956C50.9666 40.0095 50.7341 40.5717 50.7341 41.1585V42.9176ZM52.2892 42.9176V41.1585C52.2892 40.9856 52.3562 40.8205 52.4789 40.6978C52.6002 40.5762 52.7643 40.507 52.9369 40.507H52.9398C53.1124 40.507 53.2765 40.5762 53.3977 40.6978C53.5204 40.8205 53.5875 40.9856 53.5875 41.1585V42.9176C53.5875 43.0905 53.5204 43.2556 53.3977 43.3772C53.2765 43.4999 53.1124 43.568 52.9398 43.568H52.9369C52.7643 43.568 52.6002 43.4999 52.4789 43.3772C52.3562 43.2556 52.2892 43.0905 52.2892 42.9176Z" fill="black"/>
<path fill-rule="evenodd" clip-rule="evenodd" d="M76.2552 77.9267C76.664 78.3082 77.1314 78.7443 77.5394 79.125C77.9677 79.5247 78.5364 79.7368 79.1201 79.7148C79.7037 79.6946 80.2547 79.4408 80.6519 79.0121L80.6538 79.0101C81.051 78.5814 81.2632 78.0115 81.2409 77.426C81.2204 76.8401 80.9683 76.2863 80.54 75.8867C80.132 75.506 79.6646 75.0698 79.2558 74.6884C78.8282 74.2895 78.2595 74.0773 77.675 74.0986C77.0923 74.1195 76.5404 74.3726 76.1433 74.8012L76.1413 74.8033C75.7442 75.232 75.5327 75.8027 75.5542 76.3874C75.5755 76.974 75.8277 77.5278 76.2552 77.9267ZM78.5978 77.9827L77.3136 76.7844C77.1874 76.6666 77.1125 76.5049 77.1073 76.332C77.1003 76.1593 77.1623 75.9924 77.2798 75.8656L77.2817 75.8635C77.3992 75.7367 77.5605 75.6625 77.7327 75.657C77.9049 75.6497 78.0711 75.7129 78.1973 75.8307L79.4815 77.029C79.6077 77.1468 79.6826 77.3085 79.6887 77.4822C79.6949 77.6541 79.6337 77.8217 79.5162 77.9485L79.5143 77.9506C79.3968 78.0774 79.2346 78.1509 79.0633 78.1571C78.8902 78.1637 78.7241 78.1005 78.5978 77.9827Z" fill="black"/>
<path fill-rule="evenodd" clip-rule="evenodd" d="M80.4189 72.7071C80.977 72.7071 81.615 72.7071 82.172 72.7071C82.7567 72.7071 83.3169 72.4737 83.7294 72.0585C84.1429 71.6448 84.3741 71.0821 84.3741 70.4966V70.4937C84.3741 69.9082 84.1429 69.3455 83.7294 68.9317C83.3169 68.5166 82.7567 68.2832 82.172 68.2832C81.615 68.2832 80.977 68.2832 80.4189 68.2832C79.8353 68.2832 79.2751 68.5166 78.8615 68.9317C78.4491 69.3455 78.2168 69.9082 78.2168 70.4937V70.4966C78.2168 71.0821 78.4491 71.6448 78.8615 72.0585C79.2751 72.4737 79.8353 72.7071 80.4189 72.7071ZM82.172 71.1466H80.4189C80.2466 71.1466 80.0821 71.0793 79.9609 70.9561C79.8387 70.8344 79.7709 70.6698 79.7709 70.4966V70.4937C79.7709 70.3205 79.8387 70.1558 79.9609 70.0341C80.0821 69.911 80.2466 69.8437 80.4189 69.8437H82.172C82.3443 69.8437 82.5088 69.911 82.6311 70.0341C82.7522 70.1558 82.8212 70.3205 82.8212 70.4937V70.4966C82.8212 70.6698 82.7522 70.8344 82.6311 70.9561C82.5088 71.0793 82.3443 71.1466 82.172 71.1466Z" fill="black"/>
</g>
<defs>
<clipPath id="clip0_152_17">
<rect width="76" height="96" fill="white" transform="translate(28 24)"/>
</clipPath>
</defs>
</svg>
