<svg width="131" height="122" viewBox="0 0 131 122" fill="none" xmlns="http://www.w3.org/2000/svg">
<path d="M72.8692 0.153613C41.3443 -2.26865 8.04208 24.2389 1.06359 59.6538C-5.9149 95.0687 22.6054 116.221 52.728 120.902C86.344 126.127 126.813 113.028 130.666 74.5279C134.519 36.0284 104.394 2.57588 72.8692 0.153613Z" fill="#CFFFEE"/>
<path d="M49.3005 58.8025H44.0271C43.3005 58.8025 42.709 59.394 42.709 60.1206V63.6362C42.709 64.3628 43.3005 64.9544 44.0271 64.9544H49.3005C50.0271 64.9544 50.6187 64.3628 50.6187 63.6362V60.1206C50.6187 59.394 50.0271 58.8025 49.3005 58.8025ZM46.2237 64.0759H44.0271C43.9106 64.0757 43.7989 64.0293 43.7165 63.9469C43.6341 63.8645 43.5877 63.7528 43.5874 63.6362V60.1206C43.5877 60.0041 43.6341 59.8924 43.7165 59.81C43.7989 59.7276 43.9106 59.6812 44.0271 59.6809H46.2246L46.2237 64.0759ZM49.7393 63.6372C49.739 63.7537 49.6926 63.8654 49.6102 63.9478C49.5278 64.0302 49.4161 64.0766 49.2996 64.0769H47.1021V59.6819H49.2996C49.4161 59.6821 49.5278 59.7285 49.6102 59.8109C49.6926 59.8933 49.739 60.005 49.7393 60.1215V63.6372ZM49.3005 68.0312H44.0271C43.3005 68.0312 42.709 68.6228 42.709 69.3494V72.865C42.709 73.5915 43.3005 74.1831 44.0271 74.1831H49.3005C50.0271 74.1831 50.6187 73.5915 50.6187 72.865V69.3494C50.6187 68.6228 50.0271 68.0312 49.3005 68.0312ZM46.2237 73.3047H44.0271C43.9106 73.3044 43.7989 73.258 43.7165 73.1756C43.6341 73.0932 43.5877 72.9815 43.5874 72.865V69.3494C43.5877 69.2328 43.6341 69.1211 43.7165 69.0387C43.7989 68.9563 43.9106 68.9099 44.0271 68.9097H46.2246L46.2237 73.3047ZM49.7393 72.865C49.739 72.9815 49.6926 73.0932 49.6102 73.1756C49.5278 73.258 49.4161 73.3044 49.2996 73.3047H47.1021V68.9097H49.2996C49.4161 68.9099 49.5278 68.9563 49.6102 69.0387C49.6926 69.1211 49.739 69.2328 49.7393 69.3494V72.865ZM49.3005 76.8203H44.0271C43.3005 76.8203 42.709 77.4119 42.709 78.1384V81.654C42.709 82.3806 43.3005 82.9722 44.0271 82.9722H49.3005C50.0271 82.9722 50.6187 82.3806 50.6187 81.654V78.1384C50.6187 77.4119 50.0271 76.8203 49.3005 76.8203ZM46.2237 82.0937H44.0271C43.9106 82.0935 43.7989 82.0471 43.7165 81.9647C43.6341 81.8823 43.5877 81.7706 43.5874 81.654V78.1384C43.5877 78.0219 43.6341 77.9102 43.7165 77.8278C43.7989 77.7454 43.9106 77.699 44.0271 77.6987H46.2246L46.2237 82.0937ZM49.7393 81.654C49.739 81.7706 49.6926 81.8823 49.6102 81.9647C49.5278 82.0471 49.4161 82.0935 49.2996 82.0937H47.1021V77.6987H49.2996C49.4161 77.699 49.5278 77.7454 49.6102 77.8278C49.6926 77.9102 49.739 78.0219 49.7393 78.1384V81.654ZM81.3799 60.1215V63.6372C81.3799 64.3637 81.9715 64.9553 82.698 64.9553H87.9715C88.698 64.9553 89.2896 64.3637 89.2896 63.6372V60.1215C89.2896 59.395 88.698 58.8034 87.9715 58.8034H82.698C82.3485 58.8037 82.0134 58.9426 81.7663 59.1898C81.5191 59.4369 81.3802 59.772 81.3799 60.1215ZM85.7749 59.6819H87.9724C88.089 59.6821 88.2006 59.7285 88.2831 59.8109C88.3655 59.8933 88.4119 60.005 88.4121 60.1215V63.6372C88.4119 63.7537 88.3655 63.8654 88.2831 63.9478C88.2006 64.0302 88.089 64.0766 87.9724 64.0769H85.7749V59.6819ZM84.8955 64.0759H82.698C82.5815 64.0757 82.4698 64.0293 82.3874 63.9469C82.305 63.8645 82.2586 63.7528 82.2584 63.6362V60.1206C82.2586 60.0041 82.305 59.8924 82.3874 59.81C82.4698 59.7276 82.5815 59.6812 82.698 59.6809H84.8955V64.0759ZM87.9724 68.0312H82.699C81.9724 68.0312 81.3809 68.6228 81.3809 69.3494V72.865C81.3809 73.5915 81.9724 74.1831 82.699 74.1831H87.9724C88.699 74.1831 89.2905 73.5915 89.2905 72.865V69.3494C89.2905 68.6228 88.699 68.0312 87.9724 68.0312ZM84.8955 73.3047H82.698C82.5815 73.3044 82.4698 73.258 82.3874 73.1756C82.305 73.0932 82.2586 72.9815 82.2584 72.865V69.3494C82.2586 69.2328 82.305 69.1211 82.3874 69.0387C82.4698 68.9563 82.5815 68.9099 82.698 68.9097H84.8955V73.3047ZM88.4112 72.865C88.4109 72.9815 88.3645 73.0932 88.2821 73.1756C88.1997 73.258 88.088 73.3044 87.9715 73.3047H85.774V68.9097H87.9715C88.088 68.9099 88.1997 68.9563 88.2821 69.0387C88.3645 69.1211 88.4109 69.2328 88.4112 69.3494V72.865ZM87.9724 76.8203H82.699C81.9724 76.8203 81.3809 77.4119 81.3809 78.1384V81.654C81.3809 82.3806 81.9724 82.9722 82.699 82.9722H87.9724C88.699 82.9722 89.2905 82.3806 89.2905 81.654V78.1384C89.2905 77.4119 88.699 76.8203 87.9724 76.8203ZM84.8955 82.0937H82.698C82.5815 82.0935 82.4698 82.0471 82.3874 81.9647C82.305 81.8823 82.2586 81.7706 82.2584 81.654V78.1384C82.2586 78.0219 82.305 77.9102 82.3874 77.8278C82.4698 77.7454 82.5815 77.699 82.698 77.6987H84.8955V82.0937ZM88.4112 81.654C88.4109 81.7706 88.3645 81.8823 88.2821 81.9647C88.1997 82.0471 88.088 82.0935 87.9715 82.0937H85.774V77.6987H87.9715C88.088 77.699 88.1997 77.7454 88.2821 77.8278C88.3645 77.9102 88.4109 78.0219 88.4112 78.1384V81.654ZM57.0921 65.0762C56.598 64.9094 56.3796 64.8137 56.3796 64.5962C56.3796 64.42 56.5615 64.2681 56.9393 64.2681C57.3134 64.2681 57.5871 64.3637 57.7399 64.4294L57.934 63.8078C57.6216 63.6888 57.2894 63.6306 56.9552 63.6362C56.0487 63.6362 55.503 64.0815 55.503 64.6619C55.503 65.1559 55.9184 65.47 56.5568 65.6669C57.0171 65.8122 57.1999 65.935 57.1999 66.1469C57.1999 66.369 56.989 66.5153 56.5905 66.5153C56.2212 66.5153 55.863 66.4103 55.6296 66.3034L55.4534 66.94C55.669 67.0459 56.1021 67.1472 56.5409 67.1472C57.5937 67.1472 58.0887 66.6625 58.0887 66.0915C58.0887 65.6115 57.7699 65.2984 57.0921 65.0762ZM60.633 64.2737C60.9396 64.2737 61.1852 64.3328 61.3605 64.3994L61.5368 63.789C61.384 63.7178 61.0427 63.6372 60.5927 63.6372C59.4312 63.6372 58.4965 64.2831 58.4965 65.4456C58.4965 66.4159 59.1799 67.1472 60.5074 67.1472C60.9743 67.1472 61.3334 67.0722 61.4927 67.0009L61.3605 66.4C61.1266 66.4733 60.8829 66.5109 60.6377 66.5115C59.8643 66.5115 59.4087 66.0812 59.4087 65.3997C59.4096 64.6422 59.9449 64.2737 60.633 64.2737ZM64.3624 65.0012H62.9327V63.6925H62.0627V67.0965H62.9327V65.6715H64.3624V67.0965H65.2277V63.6925H64.3624V65.0012ZM67.6755 63.6372C66.543 63.6372 65.809 64.3994 65.809 65.4194C65.809 66.3897 66.4746 67.1528 67.6127 67.1528C68.7349 67.1528 69.4971 66.475 69.4971 65.3603C69.4962 64.419 68.854 63.6372 67.6755 63.6372ZM67.6596 66.5415C67.0784 66.5415 66.7259 66.0709 66.7259 65.4044C66.7259 64.7425 67.0671 64.2475 67.653 64.2475C68.2512 64.2475 68.5812 64.7734 68.5812 65.3847C68.5812 66.0465 68.2446 66.5415 67.6596 66.5415ZM71.7593 63.6372C70.6259 63.6372 69.8918 64.3994 69.8918 65.4194C69.8918 66.3897 70.5574 67.1528 71.6955 67.1528C72.8187 67.1528 73.5809 66.475 73.5809 65.3603C73.5799 64.419 72.9359 63.6372 71.7593 63.6372ZM71.7415 66.5415C71.1602 66.5415 70.8077 66.0709 70.8077 65.4044C70.8077 64.7425 71.149 64.2475 71.7349 64.2475C72.334 64.2475 72.663 64.7734 72.663 65.3847C72.663 66.0465 72.3274 66.5415 71.7415 66.5415ZM75.0199 63.6925H74.149V67.0965H76.5462V66.4497H75.0199V63.6925ZM72.1521 55.7265C72.1521 54.0947 71.5039 52.5297 70.35 51.3758C69.1961 50.222 67.6311 49.5737 65.9993 49.5737C64.3675 49.5737 62.8025 50.222 61.6486 51.3758C60.4947 52.5297 59.8465 54.0947 59.8465 55.7265C59.8465 57.3584 60.4947 58.9234 61.6486 60.0772C62.8025 61.2311 64.3675 61.8794 65.9993 61.8794C67.6311 61.8794 69.1961 61.2311 70.35 60.0772C71.5039 58.9234 72.1521 57.3584 72.1521 55.7265ZM61.6052 55.7265C61.6055 54.5607 62.0689 53.4426 62.8934 52.6184C63.718 51.7942 64.8362 51.3313 66.0021 51.3315C67.168 51.3318 68.286 51.7952 69.1102 52.6197C69.9345 53.4443 70.3974 54.5625 70.3971 55.7284C70.3969 56.8943 69.9335 58.0123 69.1089 58.8365C68.2843 59.6608 67.1661 60.1237 66.0002 60.1234C64.8344 60.1232 63.7163 59.6598 62.8921 58.8352C62.0679 58.0106 61.605 56.8924 61.6052 55.7265Z" fill="black"/>
<path d="M66.8788 56.6059V53.0903C66.8788 52.6066 66.4832 52.2109 65.9995 52.2109C65.5157 52.2109 65.1201 52.6066 65.1201 53.0903V55.7275H64.2407C63.757 55.7275 63.3613 56.1231 63.3613 56.6069C63.3613 57.0906 63.757 57.4863 64.2407 57.4863H65.9995C66.2325 57.485 66.4556 57.3918 66.6202 57.227C66.7849 57.0621 66.8778 56.8389 66.8788 56.6059Z" fill="black"/>
<path d="M93.2466 85.6094H92.3672V57.4844H92.9616C93.9506 57.4844 94.3959 56.7766 93.9544 55.9122L91.0697 50.2675C90.6272 49.4031 89.4562 48.6953 88.4681 48.6953H73.6003L66.8784 43.2541V41.1072C70.3941 43.9122 73.9097 35.0641 77.4253 37.87C73.9097 32.9069 70.3941 39.5959 66.8784 34.6328V33.7544C66.8794 33.2706 66.4837 32.875 66 32.875C65.5163 32.875 65.1206 33.2706 65.1206 33.7544V43.255L58.3988 48.6962H43.5328C42.5437 48.6962 41.3728 49.4041 40.9313 50.2684L38.0466 55.9131C37.6041 56.7775 38.0503 57.4853 39.0394 57.4853H39.6337V85.6103H38.7544C38.5215 85.6108 38.2982 85.7035 38.1334 85.8681C37.9687 86.0327 37.8757 86.2558 37.875 86.4888V88.2466C37.8757 88.4795 37.9687 88.7026 38.1334 88.8672C38.2982 89.0318 38.5215 89.1245 38.7544 89.125H93.2466C93.4793 89.1243 93.7023 89.0315 93.8669 88.8669C94.0315 88.7023 94.1243 88.4793 94.125 88.2466V86.4888C94.1245 86.2558 94.0318 86.0326 93.8672 85.8678C93.7026 85.703 93.4795 85.6101 93.2466 85.6094ZM51.9375 85.6094H41.3906V57.4844H49.7691C49.7853 57.6381 49.8166 57.7816 49.8628 57.9147C50.0925 58.5569 50.76 59.2422 51.9384 59.2422L51.9375 85.6094ZM75.375 88.0413H56.625V86.635H75.375V88.0413ZM60.7266 85.6094V75.0625H65.5603V85.6094H60.7266ZM66.4397 85.6094V75.0625H71.2734V85.6094H66.4397ZM78.3047 85.6094H73.0312V75.0625H74.7891V73.2991C74.7891 73.2991 68.7488 69.6494 66.8325 68.2853C66.5866 68.1199 66.2969 68.0315 66.0005 68.0315C65.7041 68.0315 65.4144 68.1199 65.1684 68.2853C63.2522 69.6494 57.2119 73.2991 57.2119 73.2991V75.0625H58.9688V85.6094H53.6953V57.4844H51.9375C51.4537 57.4844 51.3647 57.2322 51.7369 56.9256L65.3212 45.7375C65.5078 45.5847 65.7544 45.5078 66 45.5078C66.2456 45.5078 66.4912 45.5847 66.6787 45.7375L80.2631 56.9256C80.6353 57.2322 80.5462 57.4844 80.0625 57.4844H78.3047V85.6094ZM90.6094 85.6094H80.0625V59.2422C81.2409 59.2422 81.9084 58.5569 82.1381 57.9147C82.1844 57.7816 82.2156 57.6381 82.2319 57.4844H90.6103L90.6094 85.6094Z" fill="black"/>
<path d="M63.418 79.8965H64.6817V80.5349H63.418V79.8965ZM67.318 79.8965H68.5817V80.5349H67.318V79.8965Z" fill="black"/>
</svg>
