<svg width="102" height="102" viewBox="0 0 102 102" fill="none" xmlns="http://www.w3.org/2000/svg">
<path d="M69.6298 80.5132C84.4818 70.2507 89.7092 46.5091 80.0568 28.2812C70.4045 10.0533 50.1434 10.9224 35.1 19.6778C18.3119 29.4485 5.08042 49.8167 17.229 68.2897C29.3777 86.7627 54.7778 90.7757 69.6298 80.5132Z" fill="#FFF4D5"/>
<path d="M69.6414 57.5712L66.8323 44.05C66.8078 43.9352 66.7869 43.8167 66.7632 43.6963C66.5905 42.7629 66.3005 41.2047 64.3778 41.2047C63.7994 41.1787 63.2345 41.3885 62.8062 41.7884C62.3779 42.1882 62.121 42.7457 62.0914 43.3393C62.0914 43.3505 62.0914 43.3617 62.0914 43.3733L62.5646 52.4565C62.1435 52.4416 61.7239 52.5145 61.331 52.6708C60.9381 52.827 60.5801 53.0634 60.2787 53.3656L55.1164 58.7425C54.2037 59.6959 53.8437 60.8743 53.9869 62.4502L54.3505 66.4733H53.7555C53.4099 66.4737 53.0785 66.6148 52.8341 66.8658C52.5897 67.1167 52.4522 67.4569 52.4519 67.8117V70.9977C52.4526 71.3521 52.5903 71.6919 52.8347 71.9422C53.0791 72.1926 53.4102 72.3333 53.7555 72.3333H65.6764C66.0217 72.3333 66.3529 72.1926 66.5973 71.9422C66.8417 71.6919 66.9793 71.3521 66.9801 70.9977V67.8117C66.9797 67.4569 66.8422 67.1167 66.5978 66.8658C66.3534 66.6148 66.0221 66.4737 65.6764 66.4733H64.8032V64.7667L68.3105 61.5467C68.8667 61.0736 69.2851 60.4522 69.5199 59.7509C69.7547 59.0496 69.7967 58.2954 69.6414 57.5712ZM65.7369 67.8117V70.9977C65.7362 71.0136 65.7295 71.0287 65.7182 71.0398C65.707 71.0508 65.692 71.0569 65.6764 71.0569H53.7555C53.7399 71.0569 53.725 71.0508 53.7137 71.0398C53.7024 71.0287 53.6958 71.0136 53.6951 70.9977V67.8117C53.6956 67.7955 53.7022 67.78 53.7134 67.7685C53.7246 67.757 53.7397 67.7502 53.7555 67.7497H65.6764C65.6923 67.7502 65.7073 67.757 65.7186 67.7685C65.7298 67.78 65.7363 67.7955 65.7369 67.8117ZM67.4819 60.5952L63.7673 64.0056C63.7021 64.0655 63.65 64.1389 63.6143 64.2209C63.5785 64.3029 63.5601 64.3918 63.5601 64.4816V66.4733H55.6005L55.2251 62.3326C55.1178 61.1426 55.3578 60.3115 56.0028 59.6381L61.1642 54.2611C61.4946 53.9471 61.9206 53.7602 62.37 53.732C62.8194 53.7039 63.2645 53.8362 63.6296 54.1067C63.7853 54.22 63.9152 54.3666 64.0106 54.5363C64.106 54.706 64.1646 54.8948 64.1823 55.0899C64.1937 55.2763 64.1656 55.4629 64.1001 55.637C64.0346 55.8112 63.9332 55.9687 63.8028 56.0989L60.7119 59.3189C60.6522 59.378 60.6047 59.4488 60.572 59.5272C60.5394 59.6055 60.5224 59.6897 60.522 59.7748C60.5216 59.86 60.5377 59.9444 60.5696 60.0231C60.6014 60.1017 60.6482 60.173 60.7073 60.2328C60.7664 60.2926 60.8365 60.3396 60.9136 60.3712C60.9906 60.4027 61.0731 60.4181 61.156 60.4164C61.2389 60.4147 61.3207 60.396 61.3965 60.3614C61.4723 60.3268 61.5406 60.277 61.5973 60.2149L64.691 56.9921C64.9466 56.7329 65.1445 56.4199 65.271 56.0747C65.3976 55.7295 65.4498 55.3603 65.4242 54.9924C65.3943 54.6159 65.2854 54.2506 65.1049 53.9214C64.9244 53.5923 64.6767 53.3071 64.3787 53.0856C64.2067 52.9525 64.021 52.839 63.8251 52.7473L63.3342 43.3229C63.3723 43.0727 63.5013 42.8466 63.6953 42.6901C63.8893 42.5337 64.1338 42.4585 64.3796 42.4797C65.2005 42.4797 65.3442 42.8563 65.5442 43.9338C65.5687 44.0654 65.5928 44.1951 65.6192 44.3179L68.426 57.8386C68.5341 58.3428 68.503 58.8679 68.3362 59.3549C68.1694 59.8419 67.8735 60.2715 67.4819 60.5952ZM55.8569 69.4035C55.8569 69.4873 55.8408 69.5703 55.8095 69.6478C55.7783 69.7252 55.7325 69.7955 55.6747 69.8548C55.617 69.914 55.5484 69.961 55.473 69.993C55.3976 70.0251 55.3167 70.0415 55.2351 70.0415H55.2151C55.0531 70.037 54.8993 69.9678 54.7863 69.8486C54.6733 69.7294 54.6101 69.5696 54.6101 69.4033C54.6101 69.237 54.6733 69.0772 54.7863 68.958C54.8993 68.8388 55.0531 68.7696 55.2151 68.7651H55.2351C55.3167 68.7651 55.3976 68.7815 55.4731 68.8136C55.5486 68.8457 55.6171 68.8927 55.6749 68.952C55.7326 69.0113 55.7784 69.0817 55.8097 69.1592C55.8409 69.2366 55.8569 69.3197 55.8569 69.4035ZM48.2442 66.4733H47.6482L48.0151 62.4502C48.1573 60.8757 47.7973 59.6969 46.8828 58.7421L41.7237 53.3656C41.4221 53.0628 41.0637 52.8261 40.6703 52.6699C40.2769 52.5137 39.8566 52.4413 39.4351 52.457L39.9096 43.3733C39.9096 43.3621 39.9096 43.3505 39.9096 43.3393C39.8792 42.7459 39.6218 42.1889 39.1933 41.7895C38.7649 41.39 38.2001 41.1806 37.6219 41.2066C35.6978 41.2066 35.4092 42.7709 35.2364 43.7051C35.2151 43.8232 35.191 43.9385 35.1692 44.0551L32.3582 57.5712C32.2043 58.2954 32.247 59.0492 32.4817 59.7502C32.7164 60.4513 33.1341 61.0727 33.6892 61.5467L37.1964 64.7667V66.4733H36.3232C35.9779 66.4741 35.647 66.6154 35.403 66.8663C35.1591 67.1172 35.022 67.4572 35.0219 67.8117V70.9977C35.0224 71.3518 35.1596 71.6913 35.4036 71.9417C35.6476 72.1921 35.9783 72.3329 36.3232 72.3333H48.2442C48.5891 72.3327 48.9197 72.1918 49.1637 71.9415C49.4077 71.6911 49.5451 71.3518 49.546 70.9977V67.8117C49.5455 67.4572 49.4082 67.1174 49.1643 66.8665C48.9203 66.6157 48.5894 66.4743 48.2442 66.4733ZM38.2323 64.0056L34.5182 60.5957C34.1272 60.2711 33.8318 59.8412 33.665 59.3542C33.4982 58.8672 33.4666 58.3421 33.5737 57.8377L36.3846 44.3216C36.4105 44.1979 36.4342 44.0701 36.4582 43.9408C36.6578 42.8595 36.8005 42.4815 37.6219 42.4815C37.8676 42.4609 38.1118 42.5363 38.3057 42.6927C38.4996 42.849 38.6287 43.0748 38.6673 43.3248L38.1737 52.7515C37.9782 52.8428 37.793 52.9557 37.6214 53.0884C37.325 53.3124 37.0784 53.5986 36.8982 53.928C36.7179 54.2574 36.6081 54.6225 36.576 54.9989C36.5505 55.3666 36.6029 55.7355 36.7296 56.0804C36.8562 56.4252 37.0541 56.7379 37.3096 56.9967L40.4051 60.2167C40.4624 60.2764 40.5306 60.3239 40.6057 60.3565C40.6809 60.3891 40.7616 60.4062 40.8432 60.4068C40.9248 60.4073 41.0058 60.3914 41.0814 60.3599C41.157 60.3284 41.2258 60.2819 41.2839 60.223C41.342 60.1642 41.3883 60.0942 41.4201 60.017C41.4518 59.9398 41.4684 59.857 41.469 59.7732C41.4696 59.6894 41.4541 59.6063 41.4234 59.5287C41.3927 59.4511 41.3474 59.3804 41.2901 59.3207L38.1955 56.1007C38.0656 55.9705 37.9646 55.8129 37.8996 55.6388C37.8346 55.4648 37.807 55.2783 37.8187 55.0923C37.8364 54.8965 37.8952 54.7069 37.991 54.5366C38.0868 54.3663 38.2174 54.2193 38.3737 54.1057C38.7393 53.836 39.1845 53.7042 39.6338 53.7325C40.0832 53.7608 40.5093 53.9476 40.8401 54.2611L45.9964 59.6399C46.6437 60.3157 46.8846 61.1468 46.7773 62.334L46.3996 66.4757H38.4396V64.4816C38.4396 64.3918 38.4211 64.3029 38.3854 64.2209C38.3497 64.1389 38.2975 64.0655 38.2323 64.0056ZM48.3046 70.9977C48.3039 71.0136 48.2972 71.0287 48.286 71.0398C48.2747 71.0508 48.2597 71.0569 48.2442 71.0569H36.3232C36.3081 71.0564 36.2938 71.0499 36.2831 71.0389C36.2723 71.0279 36.2661 71.0132 36.2655 70.9977V67.8117C36.2659 67.7959 36.2721 67.7808 36.2827 67.7693C36.2934 67.7578 36.3078 67.7508 36.3232 67.7497H48.2442C48.26 67.7502 48.2751 67.757 48.2863 67.7685C48.2975 67.78 48.304 67.7955 48.3046 67.8117V70.9977ZM47.406 69.4035C47.406 69.5727 47.3405 69.735 47.224 69.8546C47.1075 69.9743 46.9494 70.0415 46.7846 70.0415H46.7646C46.6816 70.0438 46.5989 70.029 46.5215 69.9979C46.4442 69.9669 46.3736 69.9203 46.3141 69.8608C46.2546 69.8013 46.2072 69.7302 46.1749 69.6516C46.1426 69.573 46.126 69.4886 46.126 69.4033C46.126 69.318 46.1426 69.2336 46.1749 69.155C46.2072 69.0764 46.2546 69.0053 46.3141 68.9458C46.3736 68.8863 46.4442 68.8397 46.5215 68.8087C46.5989 68.7776 46.6816 68.7628 46.7646 68.7651H46.7846C46.8662 68.7651 46.9471 68.7817 47.0225 68.8137C47.0979 68.8458 47.1664 68.8929 47.2241 68.9521C47.2818 69.0114 47.3276 69.0818 47.3588 69.1593C47.39 69.2367 47.406 69.3197 47.406 69.4035ZM45.8582 38.1434C45.7999 38.0717 45.7269 38.0139 45.6444 37.9743C45.562 37.9347 45.472 37.9142 45.381 37.9142C45.2899 37.9142 45.2 37.9347 45.1175 37.9743C45.0351 38.0139 44.9621 38.0717 44.9037 38.1434L40.4128 43.6851C40.3372 43.7783 40.2891 43.8918 40.274 44.0121C40.259 44.1324 40.2776 44.2547 40.3278 44.3645C40.378 44.4743 40.4576 44.5672 40.5573 44.6323C40.6571 44.6973 40.7728 44.7318 40.891 44.7318H43.0914V52.7874C43.0914 52.9567 43.1569 53.1191 43.2736 53.2388C43.3902 53.3585 43.5483 53.4258 43.7132 53.4258H47.0528C47.1344 53.4258 47.2153 53.4093 47.2907 53.3772C47.3661 53.3451 47.4346 53.2981 47.4923 53.2388C47.55 53.1795 47.5958 53.1091 47.627 53.0317C47.6582 52.9542 47.6742 52.8712 47.6742 52.7874V44.7318H49.8714C49.9896 44.7318 50.1052 44.6972 50.2049 44.6321C50.3046 44.567 50.3841 44.4741 50.4342 44.3643C50.4844 44.2545 50.503 44.1323 50.4879 44.012C50.4728 43.8917 50.4247 43.7783 50.3492 43.6851L45.8582 38.1434ZM47.0514 43.4555C46.9698 43.4554 46.8889 43.4719 46.8135 43.5039C46.7381 43.5359 46.6695 43.5829 46.6118 43.6421C46.554 43.7014 46.5082 43.7717 46.477 43.8492C46.4457 43.9266 46.4296 44.0096 46.4296 44.0934V52.1495H44.3332V44.0934C44.3332 43.9242 44.2678 43.7619 44.1513 43.6423C44.0347 43.5227 43.8767 43.4555 43.7119 43.4555H42.2164L45.3801 39.5499L48.546 43.4555H47.0514ZM54.3269 52.7888C54.3268 52.8726 54.3428 52.9556 54.3741 53.0331C54.4053 53.1105 54.451 53.1809 54.5087 53.2402C54.5664 53.2995 54.6349 53.3465 54.7104 53.3786C54.7858 53.4107 54.8666 53.4272 54.9482 53.4272H58.2905C58.3722 53.4272 58.453 53.4107 58.5284 53.3786C58.6038 53.3465 58.6723 53.2995 58.73 53.2402C58.7878 53.1809 58.8335 53.1105 58.8647 53.0331C58.8959 52.9556 58.9119 52.8726 58.9119 52.7888V44.7318H61.1092C61.2273 44.7318 61.343 44.6972 61.4426 44.6321C61.5423 44.567 61.6218 44.4741 61.672 44.3643C61.7221 44.2545 61.7407 44.1323 61.7256 44.012C61.7106 43.8917 61.6624 43.7783 61.5869 43.6851L57.0973 38.1434C57.039 38.0717 56.966 38.0139 56.8835 37.9743C56.801 37.9347 56.7111 37.9142 56.6201 37.9142C56.529 37.9142 56.4391 37.9347 56.3566 37.9743C56.2741 38.0139 56.2012 38.0717 56.1428 38.1434L51.6519 43.6851C51.5763 43.7783 51.5282 43.8917 51.5131 44.012C51.4981 44.1323 51.5167 44.2545 51.5668 44.3643C51.6169 44.4741 51.6965 44.567 51.7961 44.6321C51.8958 44.6972 52.0115 44.7318 52.1296 44.7318H54.3269V52.7888ZM53.4555 43.4555L56.6192 39.5499L59.7832 43.4555H58.2905C58.2089 43.4554 58.128 43.4719 58.0526 43.5039C57.9772 43.5359 57.9086 43.5829 57.8509 43.6421C57.7931 43.7014 57.7473 43.7717 57.716 43.8492C57.6848 43.9266 57.6687 44.0096 57.6687 44.0934V52.1495H55.5701V44.0934C55.5701 44.0096 55.554 43.9266 55.5227 43.8492C55.4915 43.7717 55.4457 43.7014 55.3879 43.6421C55.3302 43.5829 55.2616 43.5359 55.1862 43.5039C55.1107 43.4719 55.0299 43.4554 54.9482 43.4555H53.4555ZM46.5101 32.4851H48.7073V40.5407C48.7073 40.6245 48.7233 40.7075 48.7545 40.7849C48.7857 40.8624 48.8315 40.9328 48.8892 40.9921C48.9469 41.0513 49.0154 41.0984 49.0908 41.1305C49.1662 41.1626 49.2471 41.1791 49.3287 41.1791H52.671C52.7526 41.1791 52.8334 41.1626 52.9089 41.1305C52.9843 41.0984 53.0528 41.0513 53.1105 40.9921C53.1682 40.9328 53.214 40.8624 53.2452 40.7849C53.2764 40.7075 53.2924 40.6245 53.2923 40.5407V32.4851H55.4896C55.6077 32.4851 55.7234 32.4506 55.8231 32.3856C55.9228 32.3206 56.0024 32.2277 56.0526 32.1179C56.1027 32.0081 56.1213 31.8859 56.1062 31.7656C56.0911 31.6453 56.0429 31.532 55.9673 31.4388L51.4778 25.8967C51.4194 25.8249 51.3464 25.7672 51.264 25.7276C51.1815 25.688 51.0916 25.6675 51.0005 25.6675C50.9095 25.6675 50.8195 25.688 50.7371 25.7276C50.6546 25.7672 50.5816 25.8249 50.5232 25.8967L46.0323 31.4388C45.9567 31.532 45.9086 31.6453 45.8935 31.7656C45.8784 31.8859 45.897 32.0081 45.9471 32.1179C45.9973 32.2277 46.0768 32.3206 46.1765 32.3856C46.2763 32.4506 46.3919 32.4851 46.5101 32.4851ZM51.0005 27.3027L54.1651 31.2087H52.671C52.5893 31.2087 52.5085 31.2251 52.433 31.2572C52.3576 31.2892 52.2891 31.3362 52.2313 31.3954C52.1736 31.4547 52.1278 31.525 52.0965 31.6024C52.0652 31.6799 52.0492 31.7629 52.0492 31.8467V39.9027H49.9505V31.8467C49.9505 31.7629 49.9344 31.6799 49.9032 31.6024C49.8719 31.525 49.8261 31.4547 49.7684 31.3954C49.7106 31.3362 49.6421 31.2892 49.5666 31.2572C49.4912 31.2251 49.4103 31.2087 49.3287 31.2087H47.8355L51.0005 27.3027Z" fill="#A98C38"/>
</svg>
