<svg width="131" height="122" viewBox="0 0 131 122" fill="none" xmlns="http://www.w3.org/2000/svg">
<path d="M72.8692 0.153613C41.3443 -2.26865 8.04208 24.2389 1.06359 59.6538C-5.9149 95.0687 22.6054 116.221 52.728 120.902C86.344 126.127 126.813 113.028 130.666 74.5279C134.519 36.0284 104.394 2.57588 72.8692 0.153613Z" fill="#FFE7D5"/>
<path fill-rule="evenodd" clip-rule="evenodd" d="M92.916 51.0832C92.916 47.1052 92.916 45.1133 91.9612 43.6853C91.5476 43.0663 91.0162 42.5349 90.3972 42.1213C89.1477 41.2855 87.4675 41.1807 84.4047 41.1693C84.4141 41.9967 84.4179 42.8561 84.416 43.7477V47.5415H87.2493C87.8129 47.5415 88.3534 47.7654 88.7519 48.1639C89.1505 48.5624 89.3743 49.1029 89.3743 49.6665C89.3743 50.2301 89.1505 50.7706 88.7519 51.1691C88.3534 51.5676 87.8129 51.7915 87.2493 51.7915H84.416V56.0415H87.2493C87.8129 56.0415 88.3534 56.2654 88.7519 56.6639C89.1505 57.0624 89.3743 57.6029 89.3743 58.1665C89.3743 58.7301 89.1505 59.2706 88.7519 59.6691C88.3534 60.0676 87.8129 60.2915 87.2493 60.2915H84.416V64.5415H87.2493C87.8129 64.5415 88.3534 64.7654 88.7519 65.1639C89.1505 65.5624 89.3743 66.1029 89.3743 66.6665C89.3743 67.2301 89.1505 67.7706 88.7519 68.1691C88.3534 68.5676 87.8129 68.7915 87.2493 68.7915H84.416V87.2082H80.166V43.9998C80.166 38.6562 80.166 35.9872 78.5057 34.3268C76.8453 32.6665 74.1763 32.6665 68.8327 32.6665H63.166C57.8223 32.6665 55.1533 32.6665 53.493 34.3268C51.8327 35.9872 51.8327 38.6562 51.8327 43.9998V87.2082H47.5827V68.7915H44.7493C44.1858 68.7915 43.6453 68.5676 43.2467 68.1691C42.8482 67.7706 42.6243 67.2301 42.6243 66.6665C42.6243 66.1029 42.8482 65.5624 43.2467 65.1639C43.6453 64.7654 44.1858 64.5415 44.7493 64.5415H47.5827V60.2915H44.7493C44.1858 60.2915 43.6453 60.0676 43.2467 59.6691C42.8482 59.2706 42.6243 58.7301 42.6243 58.1665C42.6243 57.6029 42.8482 57.0624 43.2467 56.6639C43.6453 56.2654 44.1858 56.0415 44.7493 56.0415H47.5827V51.7915H44.7493C44.1858 51.7915 43.6453 51.5676 43.2467 51.1691C42.8482 50.7706 42.6243 50.2301 42.6243 49.6665C42.6243 49.1029 42.8482 48.5624 43.2467 48.1639C43.6453 47.7654 44.1858 47.5415 44.7493 47.5415H47.5827V43.7448C47.5808 42.8571 47.5846 41.9976 47.594 41.1665C44.5312 41.1807 42.851 41.2855 41.6015 42.1213C40.9825 42.5349 40.4511 43.0663 40.0375 43.6853C39.0827 45.1133 39.0827 47.1052 39.0827 51.0832V87.2082H37.666C37.1024 87.2082 36.5619 87.432 36.1634 87.8306C35.7649 88.2291 35.541 88.7696 35.541 89.3332C35.541 89.8968 35.7649 90.4373 36.1634 90.8358C36.5619 91.2343 37.1024 91.4582 37.666 91.4582H94.3327C94.8963 91.4582 95.4368 91.2343 95.8353 90.8358C96.2338 90.4373 96.4577 89.8968 96.4577 89.3332C96.4577 88.7696 96.2338 88.2291 95.8353 87.8306C95.4368 87.432 94.8963 87.2082 94.3327 87.2082H92.916V51.0832ZM65.9993 39.0415C66.5629 39.0415 67.1034 39.2654 67.5019 39.6639C67.9005 40.0624 68.1243 40.6029 68.1243 41.1665V44.7082H71.666C72.2296 44.7082 72.7701 44.9321 73.1686 45.3306C73.5671 45.7291 73.791 46.2696 73.791 46.8332C73.791 47.3968 73.5671 47.9373 73.1686 48.3358C72.7701 48.7343 72.2296 48.9582 71.666 48.9582H68.1243V52.4998C68.1243 53.0634 67.9005 53.6039 67.5019 54.0024C67.1034 54.401 66.5629 54.6248 65.9993 54.6248C65.4358 54.6248 64.8953 54.401 64.4967 54.0024C64.0982 53.6039 63.8743 53.0634 63.8743 52.4998V48.9582H60.3327C59.7691 48.9582 59.2286 48.7343 58.8301 48.3358C58.4316 47.9373 58.2077 47.3968 58.2077 46.8332C58.2077 46.2696 58.4316 45.7291 58.8301 45.3306C59.2286 44.9321 59.7691 44.7082 60.3327 44.7082H63.8743V41.1665C63.8743 40.6029 64.0982 40.0624 64.4967 39.6639C64.8953 39.2654 65.4358 39.0415 65.9993 39.0415ZM58.2077 60.9998C58.2077 60.4363 58.4316 59.8958 58.8301 59.4972C59.2286 59.0987 59.7691 58.8748 60.3327 58.8748H71.666C72.2296 58.8748 72.7701 59.0987 73.1686 59.4972C73.5671 59.8958 73.791 60.4363 73.791 60.9998C73.791 61.5634 73.5671 62.1039 73.1686 62.5024C72.7701 62.901 72.2296 63.1248 71.666 63.1248H60.3327C59.7691 63.1248 59.2286 62.901 58.8301 62.5024C58.4316 62.1039 58.2077 61.5634 58.2077 60.9998ZM58.2077 69.4998C58.2077 68.9363 58.4316 68.3958 58.8301 67.9972C59.2286 67.5987 59.7691 67.3748 60.3327 67.3748H71.666C72.2296 67.3748 72.7701 67.5987 73.1686 67.9972C73.5671 68.3958 73.791 68.9363 73.791 69.4998C73.791 70.0634 73.5671 70.6039 73.1686 71.0024C72.7701 71.401 72.2296 71.6248 71.666 71.6248H60.3327C59.7691 71.6248 59.2286 71.401 58.8301 71.0024C58.4316 70.6039 58.2077 70.0634 58.2077 69.4998ZM65.9993 78.7082C66.5629 78.7082 67.1034 78.9321 67.5019 79.3306C67.9005 79.7291 68.1243 80.2696 68.1243 80.8332V87.2082H63.8743V80.8332C63.8743 80.2696 64.0982 79.7291 64.4967 79.3306C64.8953 78.9321 65.4358 78.7082 65.9993 78.7082Z" fill="#1B2222"/>
</svg>
