<svg width="131" height="137" viewBox="0 0 131 137" fill="none" xmlns="http://www.w3.org/2000/svg">
<path d="M72.8692 0.153613C41.3443 -2.26865 8.04208 24.2389 1.06359 59.6538C-5.9149 95.0687 22.6054 116.221 52.728 120.902C86.344 126.127 126.813 113.028 130.666 74.5279C134.519 36.0284 104.394 2.57588 72.8692 0.153613Z" fill="#FFCFCF"/>
<path d="M61.8787 28.793C61.8905 28.793 61.9022 28.793 61.9178 28.7891C63.1053 28.6602 64.3162 28.5977 65.5194 28.5977H65.7538C65.9374 28.6016 66.1092 28.4414 66.1132 28.2461C66.1171 28.0508 65.9569 27.8906 65.7616 27.8867H65.5233C64.2967 27.8867 63.0624 27.9531 61.8475 28.082C61.6522 28.1016 61.5116 28.2773 61.5311 28.4726C61.5467 28.6562 61.699 28.793 61.8787 28.793Z" fill="black"/>
<path d="M54.3236 30.4962C54.3626 30.4962 54.4017 30.4884 54.4407 30.4766C55.6438 30.0548 56.886 29.6954 58.1282 29.418C58.3197 29.3751 58.4368 29.1837 58.3939 28.9962C58.3509 28.8048 58.1595 28.6876 57.972 28.7305C56.7025 29.0196 55.4329 29.379 54.2064 29.8125C54.0228 29.879 53.9251 30.0782 53.9876 30.2657C54.0423 30.4063 54.179 30.4962 54.3236 30.4962Z" fill="black"/>
<path d="M47.364 33.8908C47.4304 33.8908 47.4968 33.8752 47.5554 33.8361C48.6296 33.1486 49.7585 32.5158 50.9031 31.9572C51.0789 31.8713 51.1531 31.6603 51.0671 31.4845C50.9812 31.3088 50.7703 31.2345 50.5945 31.3205C49.4226 31.8908 48.2742 32.5353 47.1726 33.2385C47.0085 33.3439 46.9616 33.5627 47.0632 33.7268C47.1335 33.8322 47.2468 33.8908 47.364 33.8908Z" fill="black"/>
<path d="M41.356 38.7811C41.4497 38.7811 41.5396 38.746 41.6099 38.6717C42.5005 37.7577 43.4537 36.8865 44.4458 36.0819C44.5981 35.9608 44.6216 35.7343 44.4966 35.5858C44.3755 35.4335 44.1489 35.4101 44.0005 35.5351C42.9888 36.3593 42.0161 37.246 41.106 38.1796C40.9692 38.3202 40.9692 38.5428 41.1099 38.6796C41.1763 38.7499 41.2661 38.7811 41.356 38.7811Z" fill="black"/>
<path d="M36.4255 44.8592C36.484 44.8944 36.5465 44.91 36.609 44.91C36.7301 44.91 36.8473 44.8514 36.9098 44.7381C37.57 43.6483 38.3004 42.5819 39.0817 41.5701C39.2028 41.4138 39.1755 41.1912 39.0192 41.074C38.863 40.9529 38.6403 40.9803 38.5231 41.1365C37.7262 42.1677 36.9762 43.2576 36.3043 44.3709C36.2067 44.5389 36.2614 44.7576 36.4255 44.8592Z" fill="black"/>
<path d="M69.5867 28.8439C70.8523 29.0002 72.1258 29.2267 73.3679 29.5275C73.3952 29.5353 73.4226 29.5392 73.4499 29.5392C73.6101 29.5392 73.7546 29.4299 73.7937 29.2658C73.8405 29.0744 73.7194 28.883 73.5319 28.84C72.2663 28.5353 70.9655 28.301 69.6725 28.1447C69.4772 28.1213 69.3014 28.258 69.278 28.4533C69.2546 28.6408 69.3914 28.8205 69.5867 28.8439Z" fill="black"/>
<path d="M60.0518 94.9571C58.7901 94.75 57.5323 94.4688 56.3057 94.1133C56.1182 94.0625 55.919 94.168 55.8682 94.3555C55.8174 94.543 55.9229 94.7422 56.1104 94.793C57.3643 95.1524 58.6495 95.4414 59.9385 95.6524C59.958 95.6563 59.9775 95.6563 59.9971 95.6563C60.1689 95.6563 60.3174 95.5352 60.3486 95.3594C60.376 95.1719 60.2471 94.9883 60.0518 94.9571Z" fill="black"/>
<path d="M67.7115 95.3322C66.985 95.379 66.2506 95.4025 65.5201 95.4025H65.5162C64.9693 95.4025 64.4146 95.3908 63.8678 95.3634C63.6725 95.3517 63.5045 95.504 63.4967 95.6994C63.485 95.8947 63.6373 96.0626 63.8327 96.0704C64.3913 96.0978 64.9577 96.1095 65.5163 96.1095C66.2585 96.1095 67.0124 96.0861 67.7507 96.0353C67.946 96.0236 68.0944 95.8556 68.0788 95.6564C68.0749 95.4689 67.9068 95.3165 67.7115 95.3322Z" fill="black"/>
<path d="M52.6792 92.8482C51.5034 92.3599 50.3394 91.7935 49.2261 91.1685C49.0542 91.0748 48.8394 91.1334 48.7417 91.3052C48.648 91.4771 48.7066 91.6919 48.8785 91.7896C50.0152 92.4263 51.2027 93.0044 52.4058 93.5044C52.4526 93.52 52.4956 93.5317 52.5425 93.5317C52.6792 93.5317 52.812 93.4497 52.8706 93.313C52.9487 93.1294 52.8628 92.9224 52.6792 92.8482Z" fill="black"/>
<path d="M38.1489 81.1562C38.0356 80.996 37.8168 80.957 37.6567 81.0703C37.4965 81.1835 37.4575 81.4023 37.5707 81.5624C38.2582 82.5429 39.0043 83.496 39.7934 84.4022C39.8638 84.4804 39.9614 84.5233 40.0591 84.5233C40.1411 84.5233 40.2231 84.496 40.2934 84.4374C40.4419 84.3085 40.4575 84.0858 40.3286 83.9374C39.5552 83.0507 38.8247 82.1132 38.1489 81.1562Z" fill="black"/>
<path d="M75.2539 93.9612C74.0351 94.3323 72.7773 94.637 71.5195 94.8636C71.328 94.8987 71.1991 95.0823 71.2343 95.2776C71.2655 95.4495 71.414 95.5667 71.582 95.5667C71.6015 95.5667 71.6249 95.5628 71.6445 95.5628C72.9257 95.3284 74.2109 95.0198 75.457 94.6409C75.6445 94.5823 75.7499 94.387 75.6913 94.1995C75.6366 94.012 75.4414 93.9065 75.2539 93.9612Z" fill="black"/>
<path d="M45.9873 89.102C44.9521 88.3559 43.9482 87.5395 43.0068 86.6801C42.8622 86.5473 42.6396 86.559 42.5068 86.7035C42.374 86.8481 42.3857 87.0707 42.5302 87.2035C43.4911 88.0824 44.5185 88.9144 45.5732 89.6762C45.6357 89.7231 45.7099 89.7426 45.7802 89.7426C45.8896 89.7426 45.999 89.6919 46.0693 89.5942C46.1826 89.438 46.1474 89.2192 45.9873 89.102Z" fill="black"/>
<path d="M94.7029 78.9798C94.5349 78.8782 94.3161 78.9329 94.2185 79.1009C93.5622 80.1947 92.8396 81.265 92.0623 82.2767C91.9412 82.4329 91.9724 82.6556 92.1287 82.7728C92.1951 82.8236 92.2693 82.847 92.3435 82.847C92.4529 82.847 92.5545 82.8001 92.6248 82.7064C93.4178 81.6712 94.156 80.5775 94.824 79.4603C94.9255 79.2962 94.8708 79.0775 94.7029 78.9798Z" fill="black"/>
<path d="M99.2025 64.2541C99.0072 64.2385 98.8392 64.383 98.8235 64.5783C98.7259 65.8517 98.554 67.133 98.3118 68.3869C98.2728 68.5783 98.3978 68.7658 98.5931 68.801C98.6165 68.8049 98.64 68.8088 98.6595 68.8088C98.8235 68.8088 98.9759 68.6916 99.0071 68.5197C99.2532 67.2424 99.429 65.9338 99.5306 64.633C99.5423 64.4416 99.3978 64.2697 99.2025 64.2541Z" fill="black"/>
<path d="M98.8317 56.5158C98.6403 56.547 98.5075 56.7267 98.5348 56.9181C98.7262 58.1759 98.8473 59.465 98.8942 60.7423C98.902 60.9337 99.0583 61.0822 99.2458 61.0822H99.2575C99.4528 61.0743 99.6051 60.9103 99.5973 60.715C99.5504 59.4103 99.4254 58.0939 99.2301 56.8127C99.2067 56.6174 99.027 56.4845 98.8317 56.5158Z" fill="black"/>
<path d="M97.8096 71.879C97.6221 71.8204 97.4229 71.9259 97.3643 72.1095C96.9776 73.3243 96.5166 74.5314 95.9932 75.6954C95.915 75.8712 95.9932 76.0821 96.169 76.1641C96.2158 76.1837 96.2666 76.1954 96.3135 76.1954C96.4502 76.1954 96.5791 76.1173 96.6377 75.9844C97.1729 74.793 97.6455 73.5625 98.0361 72.3203C98.0986 72.1368 97.9971 71.9376 97.8096 71.879Z" fill="black"/>
<path d="M44.4138 42.2809C44.4021 42.3004 44.3904 42.32 44.3826 42.3434C44.3787 42.3473 44.3787 42.3551 44.3787 42.3551C44.3709 42.3825 44.3631 42.4098 44.3631 42.4372V42.4606C44.3631 42.4762 44.3592 42.4879 44.3631 42.5036C44.3631 42.5075 44.367 42.5114 44.367 42.5153C44.3709 42.5543 44.3826 42.5895 44.3982 42.6286C44.3982 42.6286 44.3982 42.6325 44.4021 42.6325V42.6364C44.8006 43.4254 48.1912 47.8239 48.5779 48.3239C48.6365 48.3981 48.7185 48.445 48.8123 48.4606C49.2381 48.5153 49.8865 48.5348 50.5584 48.5348C51.8436 48.5348 53.2186 48.4684 53.3045 48.4606C53.3358 48.4567 53.3631 48.4528 53.3904 48.445C53.3983 48.4411 53.4061 48.4411 53.41 48.4372C53.4217 48.4332 53.4334 48.4293 53.4451 48.4254C55.3513 47.4567 58.699 44.6793 58.8396 44.5621C58.9529 44.4684 58.9959 44.3199 58.949 44.1793C58.3475 42.3199 57.367 40.5973 56.6482 39.4762C56.3162 38.9567 55.6052 37.8864 55.1599 37.4645C55.156 37.4528 55.1482 37.445 55.1443 37.4333C55.0818 37.3473 54.988 37.2966 54.8943 37.2887C54.8904 37.2887 54.8904 37.2848 54.8865 37.2848C53.3982 37.1559 49.9021 37.4645 49.7498 37.4763C49.6951 37.4802 49.6443 37.4997 49.5974 37.527C46.2966 39.5348 44.4919 42.1598 44.4138 42.2692C44.4177 42.2731 44.4138 42.277 44.4138 42.2809ZM49.0427 47.7653C48.1131 46.5583 46.0974 43.9137 45.32 42.7692C46.5544 42.6755 48.4606 42.5856 49.0817 42.5583C49.5622 43.3044 51.4567 46.2224 52.5934 47.7771C51.6481 47.8122 49.9333 47.8591 49.0427 47.7653ZM53.3786 47.6481C52.3434 46.2809 50.2927 43.1247 49.7184 42.2379C51.0504 40.8824 53.9372 38.7418 54.8082 38.109C55.3825 38.8121 57.2262 41.3278 58.1988 44.1637C57.4996 44.734 54.9919 46.7535 53.3786 47.6481ZM49.113 41.8473C48.5896 41.8708 46.7732 41.9567 45.4802 42.0504C46.199 41.1715 47.7146 39.5192 49.9021 38.1754C50.3318 38.1364 52.3474 37.9723 53.8201 37.9606C52.5662 38.8903 50.2419 40.6637 49.113 41.8473Z" fill="black"/>
<path d="M62.8119 54.0941C62.7494 53.9847 62.6322 53.9183 62.5033 53.9183H60.1791C60.2534 53.2699 60.5073 51.9535 61.3783 51.1878C61.4877 51.0901 61.5268 50.9339 61.476 50.7972C61.4252 50.6605 61.2924 50.5667 61.144 50.5667H57.8706C57.7885 50.5667 57.7065 50.598 57.644 50.6487C57.5932 50.6917 56.4604 51.6721 56.2573 53.9143H54.0229C53.894 53.9143 53.7729 53.9846 53.7143 54.0979L50.1948 60.5588H42.6948L41.6987 58.8557C43.4448 59.2424 45.1401 59.5042 45.2534 59.5237C45.2691 59.5276 45.2925 59.5276 45.3081 59.5276C45.4331 59.5276 45.5464 59.4612 45.6128 59.3518C46.6089 57.6682 47.2495 55.7932 47.6167 54.5159C47.7886 53.9222 48.1206 52.6839 48.1402 52.0706C48.1441 52.0589 48.148 52.0472 48.1519 52.0394C48.1753 51.9378 48.148 51.8363 48.0933 51.7581C48.0933 51.7542 48.0894 51.7542 48.0894 51.7542C47.1988 50.5511 44.6558 48.137 44.5464 48.0354C44.5073 47.9964 44.4604 47.969 44.4097 47.9573C40.7183 46.8089 37.5581 47.1956 37.4253 47.2112C37.394 47.2151 37.3588 47.2268 37.3315 47.2385C37.3276 47.2425 37.3198 47.2425 37.3159 47.2464C37.2846 47.262 37.2534 47.2854 37.226 47.3128C37.2221 47.3167 37.2143 47.3167 37.2104 47.3245C37.2065 47.3284 37.2065 47.3323 37.2026 47.3362C37.1792 47.3675 37.1557 47.3948 37.1401 47.4339C37.1401 47.4378 37.1362 47.4417 37.1362 47.4456V47.4495C36.9292 47.9768 36.4448 50.2815 36.0815 52.094C35.7534 51.6096 35.351 51.1409 34.8706 50.8049C34.812 50.7619 34.7417 50.7424 34.6675 50.7424L30.7769 50.7346C30.6284 50.7346 30.4956 50.8283 30.4448 50.969C30.3941 51.1096 30.437 51.2658 30.5542 51.3596C30.5698 51.3713 31.9019 52.4729 32.6987 53.9182H30.7495C30.6206 53.9182 30.5034 53.9846 30.4409 54.094C30.3784 54.2033 30.3784 54.34 30.4448 54.4494L34.226 60.8986L30.9448 65.9142C30.8745 66.0236 30.8667 66.1603 30.9292 66.2775C30.9917 66.3908 31.1128 66.4611 31.2417 66.4611H34.2886V78.8281C34.2886 79.0234 34.4449 79.1836 34.6441 79.1836H58.6171C58.8124 79.1836 58.9726 79.0273 58.9726 78.8281V66.4611H62.5117C62.6484 66.4611 62.7695 66.3869 62.8281 66.2658C62.8867 66.1447 62.8749 66.0041 62.7968 65.8947L59.0468 60.883L62.8202 54.4416C62.8749 54.34 62.8744 54.2035 62.8119 54.0941ZM34.5459 51.4339C35.3897 52.0745 35.9756 53.2503 36.2529 53.9144H33.4912C32.9951 52.8753 32.2295 51.9925 31.6787 51.4339H34.5459ZM44.1123 48.6019C44.4248 48.8988 45.8818 50.3011 46.8662 51.3988C45.3428 51.0746 42.4756 50.5081 40.8389 50.4456C40.4796 50.0746 39.21 48.7698 38.2803 47.8558C39.4131 47.809 41.6514 47.8519 44.1123 48.6019ZM39.7685 55.555C40.1982 53.8519 40.7529 51.8636 40.9482 51.1566C42.8466 51.2581 46.3623 52.0081 47.413 52.2386C47.2646 53.137 46.6005 56.18 45.1161 58.7855C44.495 58.6839 42.7763 58.3909 41.202 58.0159L39.7685 55.555ZM40.2881 50.8909C40.1318 51.4495 39.6748 53.0901 39.2608 54.6839L38.917 54.094C38.8545 53.9847 38.7373 53.9183 38.6123 53.9183H37.0225C36.9405 53.7034 36.8038 53.3753 36.6163 53.0042C36.9405 51.3831 37.378 49.2386 37.6397 48.2151C38.5225 49.0745 39.8585 50.4456 40.2881 50.8909ZM38.4053 54.6253L41.8701 60.5628H34.8428L31.3662 54.6253H38.4053ZM34.2881 62.1058V65.762H31.8975L34.2881 62.1058ZM34.9951 66.1136V61.2698H42.1357V78.4808L34.9951 78.4847V66.1136ZM42.8428 62.0863L45.6592 66.3129C45.7256 66.4105 45.835 66.4691 45.9561 66.4691H58.2611V78.4851H42.8471L42.8428 62.0863ZM46.1436 65.7621L43.1475 61.2699H58.4285L61.7879 65.7582L46.1436 65.7621ZM58.4096 60.5629H50.9955L54.2299 54.6254H61.8822L58.4096 60.5629ZM60.3588 51.2738C59.7143 52.1996 59.5229 53.3402 59.4643 53.9144H56.9643C57.1205 52.3402 57.7729 51.5238 58.0112 51.2738H60.3588Z" fill="black"/>
<path d="M55.6904 72.7969L49.1357 68.0196C48.9795 67.9063 48.7568 67.9414 48.6396 68.0977L46.4404 71.1172C46.3858 71.1914 46.3623 71.2891 46.374 71.3789C46.3897 71.4727 46.4404 71.5547 46.5147 71.6133L53.0694 76.3906C53.128 76.4375 53.2061 76.457 53.2764 76.457C53.292 76.457 53.3155 76.4531 53.3311 76.4531C53.4248 76.4375 53.5069 76.3867 53.5655 76.3125L55.7647 73.293C55.8193 73.2188 55.8428 73.1211 55.8311 73.0313C55.8154 72.9336 55.7647 72.8516 55.6904 72.7969ZM47.2216 71.2461L49.0028 68.7969L54.9872 73.1563L53.206 75.6055L47.2216 71.2461Z" fill="black"/>
<path d="M86.9141 87.1602C85.7735 87.1602 84.8438 88.0898 84.8438 89.2305C84.8438 90.3711 85.7734 91.3008 86.9141 91.3008C88.0547 91.3008 88.9844 90.3711 88.9844 89.2305C88.9844 88.0898 88.0586 87.1602 86.9141 87.1602ZM86.9141 90.5938C86.1601 90.5938 85.5508 89.9844 85.5508 89.2305C85.5508 88.4765 86.164 87.8671 86.9141 87.8671C87.668 87.8671 88.2774 88.4804 88.2774 89.2305C88.2774 89.9805 87.6641 90.5938 86.9141 90.5938Z" fill="black"/>
<path d="M80.5664 87.3091C79.4453 87.3091 78.5352 88.2193 78.5352 89.3403C78.5352 90.4613 79.4453 91.3715 80.5664 91.3715C81.1835 91.3715 81.7578 91.0981 82.1445 90.6137C82.2655 90.4614 82.246 90.2387 82.0937 90.1176C82.0624 90.0942 82.0273 90.0707 81.9882 90.059C81.8515 90.0121 81.6913 90.0473 81.5976 90.1684C81.3437 90.4809 80.9687 90.6606 80.5664 90.6606C79.8398 90.6606 79.2461 90.0668 79.2461 89.3403C79.2461 88.6137 79.8398 88.02 80.5664 88.02C81.2929 88.02 81.8867 88.6137 81.8867 89.3403C81.8867 89.4965 81.9882 89.6254 82.125 89.6723C82.164 89.684 82.1992 89.6957 82.2422 89.6957C82.4375 89.6957 82.5976 89.5395 82.5976 89.3403C82.5976 88.2192 81.6874 87.3091 80.5664 87.3091Z" fill="black"/>
<path d="M74.3242 87.1602C73.1836 87.1602 72.2539 88.0898 72.2539 89.2305C72.2539 90.3711 73.1836 91.3008 74.3242 91.3008C75.4648 91.3008 76.3945 90.3711 76.3945 89.2305C76.3984 88.0899 75.4687 87.1602 74.3242 87.1602ZM72.9609 89.2305C72.9609 88.4765 73.5703 87.8671 74.3242 87.8671C75.0781 87.8671 75.6875 88.4804 75.6875 89.2305C75.6875 89.9805 75.0742 90.5938 74.3242 90.5938C73.5742 90.5938 72.9609 89.9844 72.9609 89.2305Z" fill="black"/>
<path d="M68.1445 87.1602C67.0039 87.1602 66.0742 88.0898 66.0742 89.2305C66.0742 90.3711 67.0039 91.3008 68.1445 91.3008C69.2851 91.3008 70.2148 90.3711 70.2148 89.2305C70.2148 88.0898 69.289 87.1602 68.1445 87.1602ZM66.7812 89.2305C66.7812 88.4765 67.3945 87.8671 68.1445 87.8671C68.8945 87.8671 69.5078 88.4804 69.5078 89.2305C69.5078 89.9805 68.8945 90.5938 68.1445 90.5938C67.3945 90.5938 66.7812 89.9844 66.7812 89.2305Z" fill="black"/>
<path d="M88.6918 77.0041C88.7582 77.0587 88.8363 77.0822 88.9184 77.0822C89.0199 77.0822 89.1215 77.0353 89.1918 76.9533L90.3832 75.5041C91.2582 75.4884 91.9652 74.7697 91.9652 73.8908C91.9652 73.0002 91.2425 72.2775 90.3519 72.2775C90.2972 72.2775 90.2425 72.2814 90.1878 72.2853L85.5472 68.8009C85.2738 68.1993 84.7855 67.7189 84.1839 67.4571V64.9883C84.1839 64.4648 83.7582 64.0391 83.2347 64.0391H65.8437C64.8359 64.0391 64.0156 64.8594 64.0156 65.8672V87.2382C63.7266 87.703 63.5586 88.2499 63.5586 88.8398V89.8476C63.5586 91.5312 64.9297 92.9023 66.6133 92.9023H88.4493C90.1329 92.9023 91.504 91.5312 91.504 89.8476V88.8398C91.504 87.1562 90.1329 85.7851 88.4493 85.7851H75.7113V77.4413C75.7113 77.3944 75.6996 77.3514 75.6879 77.3124C75.6879 77.3084 75.6879 77.3084 75.684 77.3084C75.6488 77.2225 75.5785 77.1522 75.4925 77.117C75.4886 77.117 75.4886 77.117 75.4886 77.1131C75.4496 77.0975 75.4066 77.0897 75.3597 77.0897H73.4378L70.4534 66.3517H82.1014V67.4611C81.496 67.7228 81.0076 68.1994 80.7381 68.8009L76.0975 72.2853C75.2381 72.3204 74.5467 73.0275 74.5467 73.8947C74.5467 74.7853 75.2694 75.508 76.16 75.508H76.1717L77.3592 76.9572C77.4296 77.0431 77.5311 77.0861 77.6327 77.0861C77.7108 77.0861 77.7889 77.0588 77.8592 77.008C78.0116 76.883 78.0311 76.6603 77.91 76.5119L76.9296 75.3205C77.2928 75.1213 77.578 74.7853 77.703 74.3791L81.3944 71.8674C81.8631 72.2814 82.4725 72.5353 83.1444 72.5353C83.8163 72.5353 84.4256 72.2814 84.8944 71.8674L88.9022 74.594C89.0545 74.9104 89.3045 75.1721 89.617 75.3323L88.6483 76.512C88.5155 76.6565 88.5395 76.8791 88.6918 77.0041ZM76.1568 74.801C75.6568 74.801 75.2506 74.3947 75.2506 73.8947C75.2506 73.3947 75.6568 72.9885 76.1568 72.9885C76.6568 72.9885 77.0631 73.3947 77.0631 73.8947C77.0631 74.3908 76.6568 74.801 76.1568 74.801ZM76.9771 72.508L80.4966 69.8635C80.4966 69.8713 80.4927 69.8791 80.4927 69.8869C80.4927 70.4181 80.649 70.9064 80.9185 71.3205L77.7154 73.4963C77.6138 73.0783 77.3404 72.7267 76.9771 72.508ZM81.2037 69.8908C81.2037 68.8244 82.0709 67.9572 83.1373 67.9572C84.2037 67.9572 85.0709 68.8243 85.0709 69.8908C85.0709 70.9572 84.2037 71.8244 83.1373 71.8244C82.0709 71.8244 81.2037 70.9533 81.2037 69.8908ZM82.4537 65.6408H69.9847C69.8753 65.6408 69.7699 65.6915 69.7035 65.7814C69.6371 65.8673 69.6136 65.9845 69.6449 66.09L72.7035 77.086H66.6605C66.6136 77.086 66.5706 77.0977 66.5316 77.1094C66.5277 77.1094 66.5277 77.1094 66.5277 77.1133C66.4417 77.1485 66.3714 77.2188 66.3362 77.3047C66.3362 77.3086 66.3362 77.3086 66.3323 77.3086C66.3167 77.3477 66.3089 77.3907 66.3089 77.4375V85.7969C65.7152 85.8555 65.1722 86.0899 64.7308 86.4376V65.8596C64.7308 65.2424 65.2347 64.7385 65.8519 64.7385H83.2429C83.3757 64.7385 83.4812 64.8478 83.4812 64.9767V67.2579C83.3718 67.2423 83.2624 67.2345 83.1492 67.2345C83.0359 67.2345 82.9265 67.2462 82.8171 67.2579V65.9845C82.8054 65.8009 82.649 65.6408 82.4537 65.6408ZM90.7975 89.8518C90.7975 91.1487 89.7467 92.1995 88.4498 92.1995H66.6138C65.3169 92.1995 64.2661 91.1487 64.2661 89.8518V88.844C64.2661 87.5471 65.3169 86.4963 66.6138 86.4963H88.4498C89.7467 86.4963 90.7975 87.5471 90.7975 88.844V89.8518ZM72.0635 82.3479C71.9268 82.2111 71.7002 82.2111 71.5635 82.3479C71.4268 82.4846 71.4268 82.7111 71.5635 82.8479L74.501 85.7854H67.5127L75.001 78.2971V85.2854L72.0635 82.3479ZM67.0127 85.2854V78.2971L70.5088 81.7932L67.0127 85.2854ZM71.0088 81.2893L67.5127 77.7932L74.501 77.7971L71.0088 81.2893ZM85.3568 71.3245C85.6263 70.9104 85.7826 70.4182 85.7826 69.8909V69.8674L89.4076 72.5901C89.0678 72.8362 88.8295 73.2112 88.7592 73.6409L85.3568 71.3245ZM89.4427 73.8948C89.4427 73.3948 89.849 72.9885 90.349 72.9885C90.849 72.9885 91.2552 73.3948 91.2552 73.8948C91.2552 74.3948 90.849 74.801 90.349 74.801C89.849 74.801 89.4427 74.3908 89.4427 73.8948Z" fill="black"/>
<path d="M87.8398 75.3828C87.8398 75.3359 87.8281 75.293 87.8164 75.2539C87.8164 75.25 87.8164 75.25 87.8125 75.25C87.7773 75.1641 87.707 75.0938 87.6211 75.0586C87.6172 75.0586 87.6172 75.0586 87.6172 75.0547C87.5781 75.0391 87.5351 75.0312 87.4883 75.0312H78.7891C78.7422 75.0312 78.6992 75.043 78.6602 75.0547C78.6563 75.0547 78.6563 75.0547 78.6563 75.0586C78.5703 75.0937 78.5 75.1641 78.4648 75.25C78.4648 75.2539 78.4648 75.2539 78.4609 75.2539C78.4453 75.293 78.4375 75.3359 78.4375 75.3828V84.082C78.4375 84.1289 78.4492 84.1719 78.4609 84.2109C78.4609 84.2148 78.4609 84.2148 78.4648 84.2148C78.5 84.3008 78.5703 84.3711 78.6563 84.4062C78.6602 84.4062 78.6602 84.4062 78.6602 84.4102C78.6992 84.4258 78.7422 84.4336 78.7891 84.4336H87.4883C87.5351 84.4336 87.5781 84.4219 87.6172 84.4102C87.6211 84.4102 87.6211 84.4102 87.6211 84.4062C87.707 84.3711 87.7773 84.3008 87.8125 84.2148C87.8125 84.2109 87.8125 84.2109 87.8164 84.2109C87.832 84.1719 87.8398 84.1289 87.8398 84.082V75.3828ZM81.9921 79.0859C82.0625 79.1562 82.1523 79.1875 82.2421 79.1875C82.332 79.1875 82.4218 79.1523 82.4921 79.0859C82.6289 78.9492 82.6289 78.7226 82.4921 78.5859L79.6405 75.7343H86.6288L79.1405 83.2265V76.2382L81.9921 79.0859ZM83.1366 80.2343L86.6327 83.7304H79.6444L83.1366 80.2343ZM83.6405 79.7343L87.1367 76.2382V83.2265L83.6405 79.7343Z" fill="black"/>
<path d="M64.8988 34.4961V51.3941C64.8988 53.2691 66.4222 54.7925 68.3011 54.7925H77.2386V56.6128H74.9534C74.4144 56.6128 73.973 57.0542 73.973 57.5932V59.1166C73.973 59.6557 74.4144 60.0971 74.9534 60.0971H87.8944C88.4335 60.0971 88.8749 59.6557 88.8749 59.1166V57.5932C88.8749 57.0542 88.4335 56.6128 87.8944 56.6128H85.6092V54.7925H94.5467C96.4217 54.7925 97.949 53.2691 97.949 51.3941V34.4961C97.949 32.6211 96.4256 31.0977 94.5467 31.0977L68.3007 31.0938C66.4257 31.0938 64.8988 32.6211 64.8988 34.4961ZM68.3011 31.8047H94.5551C96.0395 31.8047 97.2465 33.0117 97.2465 34.4961V51.3941C97.2465 52.8785 96.0395 54.0855 94.5551 54.0855H85.2621C85.0668 54.0855 84.9067 54.2417 84.9067 54.4409V56.9682C84.9067 57.1635 85.0629 57.3237 85.2621 57.3237H87.8988C88.0473 57.3237 88.1723 57.4448 88.1723 57.5971V59.1205C88.1723 59.269 88.0512 59.394 87.8988 59.394H74.9578C74.8094 59.394 74.6844 59.2729 74.6844 59.1205V57.5971C74.6844 57.4487 74.8055 57.3237 74.9578 57.3237H77.5945C77.7898 57.3237 77.95 57.1674 77.95 56.9682V54.4409C77.95 54.2456 77.7938 54.0855 77.5945 54.0855H68.3015C66.8171 54.0855 65.6101 52.8785 65.6101 51.3941V34.4961C65.6101 33.0117 66.8167 31.8047 68.3011 31.8047Z" fill="black"/>
<path d="M68.9453 44.9102C69.8125 44.9102 70.5391 44.293 70.6992 43.4727H72.2656V44.3711C72.2656 44.9258 72.7148 45.375 73.2695 45.375H74.6054C74.6601 45.5469 74.7226 45.7109 74.789 45.8789H71.3398C70.8789 45.8789 70.5078 46.2539 70.5078 46.7109V47.832C69.6875 47.9961 69.0703 48.7227 69.0703 49.5859C69.0703 50.5742 69.871 51.3789 70.8633 51.3789C71.8515 51.3789 72.6563 50.5782 72.6563 49.5859C72.6563 48.7187 72.0391 47.9921 71.2188 47.832V46.7109C71.2188 46.6406 71.2735 46.5859 71.3438 46.5859H75.043L74.1445 47.4844C73.9531 47.6758 73.8476 47.9258 73.8476 48.1953C73.8476 48.4609 73.9531 48.7148 74.1445 48.9063L75.9179 50.6797C76.3085 51.0703 76.9452 51.0703 77.3398 50.6797L78.2851 49.7344C78.6562 49.9258 79.0508 50.0898 79.4492 50.2109V51.5547C79.4492 52.1094 79.8985 52.5586 80.4531 52.5586H82.957C83.5117 52.5586 83.9609 52.1094 83.9609 51.5547V50.2188C84.3594 50.0899 84.7539 49.9297 85.1211 49.7305L86.0704 50.6797C86.461 51.0704 87.0977 51.0704 87.4923 50.6797L89.2657 48.9063C89.4571 48.7149 89.5625 48.4649 89.5625 48.1954C89.5625 47.9298 89.4571 47.6759 89.2657 47.4845L88.3672 46.586H92.0703C92.1406 46.586 92.1953 46.6407 92.1953 46.711V47.8321C91.375 47.9962 90.7578 48.7227 90.7578 49.586C90.7578 50.5743 91.5586 51.379 92.5508 51.379C93.5391 51.379 94.3438 50.5782 94.3438 49.586C94.3438 48.7188 93.7266 47.9922 92.9063 47.8321V46.711C92.9063 46.2501 92.5352 45.879 92.0743 45.879H88.6251C88.6915 45.7149 88.7501 45.5431 88.8009 45.3751H90.1447C90.6994 45.3751 91.1486 44.9259 91.1486 44.3712V43.4767H92.715C92.879 44.297 93.6056 44.9142 94.4689 44.9142C95.4571 44.9142 96.2619 44.1134 96.2619 43.1212C96.2619 42.1329 95.4572 41.3282 94.4689 41.3282C93.6017 41.3282 92.8751 41.9453 92.715 42.7657H91.1486V41.8672C91.1486 41.3125 90.6993 40.8633 90.1447 40.8633H88.8088C88.7541 40.6914 88.6916 40.5274 88.6252 40.3594H92.0744C92.5353 40.3594 92.9064 39.9844 92.9064 39.5274V38.4063C93.7267 38.2422 94.3439 37.5157 94.3439 36.6524C94.3439 35.6641 93.5392 34.8594 92.5509 34.8594C91.5626 34.8594 90.7579 35.6641 90.7579 36.6524C90.7579 37.5196 91.3751 38.2462 92.1954 38.4063V39.5274C92.1954 39.5977 92.1407 39.6524 92.0704 39.6524H88.3712L89.2696 38.7539C89.6603 38.3633 89.6603 37.7266 89.2696 37.332L87.4962 35.5586C87.3048 35.3672 87.0548 35.2618 86.7853 35.2618C86.5197 35.2618 86.2658 35.3672 86.0744 35.5586L85.1291 36.5039C84.758 36.3125 84.3634 36.1485 83.965 36.0274V34.6836C83.965 34.1289 83.5157 33.6797 82.9611 33.6797H80.4572C79.9025 33.6797 79.4533 34.1289 79.4533 34.6836V36.0195C79.0548 36.1484 78.6603 36.3085 78.2931 36.5078L77.3438 35.5585C77.1524 35.3671 76.9024 35.2617 76.6329 35.2617C76.3673 35.2617 76.1134 35.3671 75.922 35.5585L74.1486 37.3319C73.7579 37.7226 73.7579 38.3592 74.1486 38.7538L75.047 39.6523H71.3439C71.2736 39.6523 71.2189 39.5976 71.2189 39.5273V38.4062C72.0392 38.2421 72.6564 37.5156 72.6564 36.6523C72.6564 35.664 71.8556 34.8593 70.8634 34.8593C69.8751 34.8593 69.0704 35.664 69.0704 36.6523C69.0704 37.5195 69.6876 38.2461 70.5079 38.4062V39.5273C70.5079 39.9882 70.879 40.3593 71.3399 40.3593H74.7891C74.7227 40.5234 74.6641 40.6953 74.6133 40.8632H73.2695C72.7149 40.8632 72.2656 41.3124 72.2656 41.8671V42.7656L70.6992 42.7617C70.5352 41.9414 69.8086 41.3242 68.9453 41.3242C67.9571 41.3242 67.1523 42.1289 67.1523 43.1172C67.1523 44.1094 67.9531 44.9102 68.9453 44.9102ZM69.7773 49.586C69.7773 48.9883 70.2617 48.504 70.8593 48.504C71.457 48.504 71.9413 48.9883 71.9413 49.586C71.9413 50.1836 71.457 50.668 70.8593 50.668C70.2617 50.6719 69.7773 50.1836 69.7773 49.586ZM91.4573 49.586C91.4573 48.9883 91.9417 48.504 92.5393 48.504C93.137 48.504 93.6213 48.9883 93.6213 49.586C93.6213 50.1836 93.137 50.668 92.5393 50.668C91.9456 50.6719 91.4573 50.1836 91.4573 49.586ZM94.4573 42.0352C95.055 42.0352 95.5393 42.5195 95.5393 43.1172C95.5393 43.7148 95.055 44.1992 94.4573 44.1992C93.8597 44.1992 93.3753 43.7148 93.3753 43.1172C93.3753 42.5234 93.8597 42.0352 94.4573 42.0352ZM92.5432 35.5664C93.1409 35.5664 93.6252 36.0507 93.6252 36.6484C93.6252 37.246 93.1409 37.7304 92.5432 37.7304C91.9456 37.7304 91.4612 37.246 91.4612 36.6484C91.4573 36.0507 91.9456 35.5664 92.5432 35.5664ZM70.8592 35.5664C71.4569 35.5664 71.9412 36.0507 71.9412 36.6484C71.9412 37.246 71.4569 37.7304 70.8592 37.7304C70.2616 37.7304 69.7772 37.246 69.7772 36.6484C69.7772 36.0507 70.2616 35.5664 70.8592 35.5664ZM73.2694 41.5703H74.6132C74.9179 41.5703 75.1875 41.371 75.2812 41.0781C75.3945 40.7148 75.5429 40.3593 75.7187 40.0234C75.8593 39.7499 75.8125 39.4179 75.5976 39.1991L74.6484 38.2499C74.5351 38.1366 74.5351 37.9491 74.6484 37.832L76.4218 36.0586C76.5351 35.9453 76.7304 35.9453 76.8398 36.0586L77.789 37.0078C78.0077 37.2265 78.3359 37.2734 78.6132 37.1289C78.9491 36.9531 79.3046 36.8046 79.6679 36.6914C79.9648 36.5976 80.1601 36.3281 80.1601 36.0234V34.6796C80.1601 34.5155 80.2929 34.3827 80.457 34.3827H82.9609C83.1249 34.3827 83.2577 34.5155 83.2577 34.6796V36.0234C83.2577 36.3281 83.457 36.5976 83.7499 36.6914C84.1132 36.8046 84.4687 36.9531 84.8046 37.1289C85.0781 37.2695 85.4101 37.2226 85.6289 37.0078L86.5781 36.0586C86.6914 35.9453 86.8867 35.9453 86.996 36.0586L88.7694 37.832C88.8827 37.9452 88.8827 38.1327 88.7694 38.2538L87.8202 39.2031C87.6015 39.4218 87.5546 39.7499 87.6991 40.0273C87.8749 40.3632 88.0234 40.7187 88.1366 41.082C88.2304 41.3789 88.4999 41.5742 88.8046 41.5742H90.1484C90.3125 41.5742 90.4453 41.707 90.4453 41.871V44.3749C90.4453 44.539 90.3125 44.6718 90.1484 44.6718H88.8046C88.4999 44.6718 88.2304 44.871 88.1366 45.164C88.0234 45.5273 87.8749 45.8828 87.6991 46.2187C87.5585 46.4922 87.6054 46.8242 87.8202 47.0429L88.7694 47.9922C88.8241 48.0468 88.8554 48.1211 88.8554 48.2031C88.8554 48.2812 88.8241 48.3554 88.7694 48.414L86.996 50.1874C86.8828 50.3007 86.6953 50.3007 86.5781 50.1874L85.6289 49.2382C85.4101 49.0195 85.082 48.9726 84.8046 49.1171C84.4687 49.2929 84.1132 49.4413 83.7499 49.5546C83.4531 49.6484 83.2577 49.9179 83.2577 50.2226V51.5664C83.2577 51.7305 83.1249 51.8633 82.9609 51.8633L80.4492 51.8516C80.2851 51.8516 80.1523 51.7188 80.1523 51.5547V50.2109C80.1523 49.9062 79.9531 49.6367 79.6601 49.5429C79.2968 49.4296 78.9414 49.2812 78.6054 49.1054C78.4999 49.0507 78.3867 49.0273 78.2773 49.0273C78.0976 49.0273 77.9179 49.0976 77.7851 49.2304L76.8359 50.1796C76.7226 50.2929 76.5351 50.2929 76.4179 50.1796L74.6445 48.4062C74.5898 48.3515 74.5586 48.2773 74.5586 48.1953C74.5586 48.1172 74.5898 48.043 74.6445 47.9844L75.5937 47.0351C75.8125 46.8164 75.8593 46.4883 75.7148 46.2109C75.539 45.875 75.3906 45.5195 75.2773 45.1562C75.1836 44.8593 74.914 44.664 74.6093 44.664H73.2655C73.1015 44.664 72.9687 44.5312 72.9687 44.3672V41.8633C72.9765 41.7031 73.1093 41.5703 73.2694 41.5703ZM68.9452 42.0351C69.5429 42.0351 70.0272 42.5195 70.0272 43.1171C70.0272 43.7148 69.5429 44.1991 68.9452 44.1991C68.3476 44.1991 67.8632 43.7147 67.8632 43.1171C67.8593 42.5233 68.3476 42.0351 68.9452 42.0351Z" fill="black"/>
<path d="M81.6993 46.586C83.6134 46.586 85.1681 45.0313 85.1681 43.1172C85.172 41.2031 83.6134 39.6484 81.6993 39.6484C79.7852 39.6484 78.2305 41.2031 78.2305 43.1172C78.2344 45.0313 79.7891 46.586 81.6993 46.586ZM81.6993 40.3594C83.2227 40.3594 84.461 41.5977 84.461 43.1211C84.461 44.6445 83.2227 45.8828 81.6993 45.8828C80.1759 45.8828 78.9376 44.6445 78.9376 43.1211C78.9415 41.5977 80.1798 40.3594 81.6993 40.3594Z" fill="black"/>
</svg>
