<svg width="75" height="70" viewBox="0 0 75 70" fill="none" xmlns="http://www.w3.org/2000/svg">
<path d="M41.6057 0.0877795C23.6062 -1.29639 4.59174 13.851 0.607271 34.0883C-3.3772 54.3256 12.9069 66.4125 30.1058 69.0878C49.2994 72.0735 72.4057 64.5879 74.6057 42.5879C76.8057 20.5879 59.6053 1.47195 41.6057 0.0877795Z" fill="#EEDFFF"/>
<g clip-path="url(#clip0_151_4)">
<path d="M57.938 47.1624L57.1426 47.9611L58.878 49.6313L57.1426 51.374L57.938 52.1728L60.4687 49.6313L57.938 47.1624Z" fill="#663C97"/>
<path d="M50.9253 47.1624L48.4668 49.6313L50.9253 52.1728L51.7206 51.374L49.9853 49.6313L51.7206 47.9611L50.9253 47.1624Z" fill="#663C97"/>
<path d="M51.8971 53.6028L52.8691 54.0859L56.9748 45.756L56.0028 45.2728L51.8971 53.6028Z" fill="#663C97"/>
<path d="M54.4678 40.9175C53.817 40.9175 53.2385 40.9901 52.5878 41.1354C51.2139 39.7557 49.5509 38.8117 47.6709 38.2307C48.0324 36.5606 47.8878 35.2535 47.0201 34.3095C45.9355 33.075 44.1278 32.8572 42.8985 32.9298C44.2724 31.4049 45.2847 29.4443 45.357 27.1932C46.0078 26.6123 47.8155 25.0147 47.7432 23.272C47.6709 21.5292 46.5139 21.4566 46.2247 21.4566H46.1524L46.4416 18.8424C46.5862 15.72 45.2124 14.5581 44.2001 14.1224C45.2124 12.6701 44.9232 11.7261 44.9232 11.6535L44.7062 11L44.1278 11.4357C43.477 11.8714 42.8262 12.0892 42.1755 12.0892C41.7416 12.0892 41.4524 11.944 41.4524 11.944C39.5001 11.0726 35.3785 10.8547 35.1616 10.8547C30.8955 10.8547 29.5939 13.0332 29.3047 13.9046C25.6893 14.3403 25.8339 17.971 25.9062 19.7138C25.9062 20.0043 25.9062 20.2947 25.9062 20.5126C25.9062 20.8757 25.9062 21.2387 25.9785 21.6018C25.4724 21.6018 24.5324 21.8923 24.5324 23.4172C24.4601 25.16 26.2678 26.8301 26.9185 27.3384C26.9909 29.4443 27.9309 31.3323 29.2324 32.8572C28.0032 32.8572 26.0509 33.0024 24.9662 34.2369C24.1709 35.1809 23.9539 36.488 24.3878 38.2307C19.3262 39.9009 15.8555 44.7661 15.8555 50.1397V52.4634H46.2247C47.3816 55.8763 50.6355 58.3452 54.3955 58.3452C59.1678 58.3452 63.0724 54.424 63.0724 49.6314C63.1447 44.8387 59.2401 40.9175 54.4678 40.9175ZM46.2247 35.0357C46.8755 35.7618 46.9478 36.9237 46.4416 38.5212C46.3693 38.6664 44.9232 41.7889 40.5847 42.9507C40.2955 42.152 39.717 41.4984 38.9216 41.1354C39.5724 40.7723 40.0785 40.3366 40.5124 39.8283C42.1755 37.8677 42.2478 35.1809 42.2478 34.0917C43.2601 33.9464 45.2847 33.9464 46.2247 35.0357ZM40.2955 46.1458C40.8016 46.1458 41.1632 46.5815 41.1632 47.0172C41.1632 47.5255 40.7293 47.8886 40.2955 47.8886C39.7893 47.8886 39.3555 47.4529 39.3555 47.0172C39.4278 46.5815 39.7893 46.1458 40.2955 46.1458ZM35.8124 40.7723C34.2939 40.627 33.0647 40.0461 32.2693 39.1021C31.0401 37.6498 30.8232 35.544 30.7509 34.4547C32.4139 35.7618 34.2939 36.5606 36.1016 36.5606C37.6201 36.5606 39.5724 35.8344 41.2355 34.5274C41.2355 35.6892 40.9462 37.7224 39.717 39.1747C38.9216 40.0461 37.6924 40.627 36.1739 40.7723H35.8124ZM29.7385 14.9212H30.1724L30.2447 14.4855C30.2447 14.4855 30.7509 11.8714 35.1616 11.8714C35.2339 11.8714 39.2109 12.0892 41.0185 12.888C41.0909 12.888 41.5247 13.1058 42.1755 13.1058C42.6816 13.1058 43.1878 13.0332 43.6216 12.8154C43.477 13.1058 43.1878 13.4689 42.8262 13.9046L42.0309 14.776L43.1878 14.8486C43.2601 14.8486 45.5739 15.0664 45.357 18.6972L45.0678 21.3114L43.8385 21.8197C43.5493 21.4566 43.1155 21.3114 42.8985 21.2387C42.3201 21.1661 41.7416 21.1661 41.0185 21.1661C39.7893 21.1661 38.6324 21.3114 38.5601 21.3114C37.6201 21.4566 36.9693 21.747 36.6801 22.328C36.6801 22.4006 36.6801 22.4006 36.6078 22.4732H35.6678C35.6678 22.4006 35.6678 22.4006 35.5955 22.328C35.3062 21.747 34.6555 21.384 33.7155 21.3114C33.6432 21.3114 32.4862 21.1661 31.257 21.1661C30.5339 21.1661 29.8832 21.2387 29.4493 21.3114C29.2324 21.384 28.7985 21.5292 28.5093 21.8923L27.0632 21.3114C27.0632 21.0209 26.9909 20.803 26.9909 20.5852C26.9909 20.3674 26.9909 20.0769 26.9909 19.7138C26.8462 17.2449 26.9909 15.0664 29.7385 14.9212ZM43.1155 23.5624L43.0432 24.0707C42.8262 25.3778 42.7539 25.5957 42.1032 25.7409C42.1032 25.7409 41.3801 25.8861 40.5124 25.8861C39.5724 25.8861 38.9216 25.6683 38.5601 25.3778C38.4155 25.16 37.9816 24.3612 37.6201 23.4172C37.6201 23.4172 37.4755 23.0541 37.6201 22.8363C37.7647 22.6184 38.1262 22.4732 38.6324 22.4006C38.6324 22.4006 39.7893 22.2554 41.0185 22.2554C41.6693 22.2554 42.2478 22.328 42.6093 22.4006C42.6816 22.328 43.3324 22.4732 43.1155 23.5624ZM34.5832 23.4898C34.2216 24.4338 33.7878 25.2326 33.6432 25.3778C33.2816 25.7409 32.6309 25.8861 31.6909 25.8861C30.8955 25.8861 30.1724 25.7409 30.1724 25.7409C29.5216 25.523 29.4493 25.3052 29.2324 23.9981L29.1601 23.4898C29.0155 22.4732 29.5216 22.328 29.6662 22.2554C30.0278 22.1827 30.6062 22.1101 31.257 22.1101C32.4139 22.1101 33.5709 22.2554 33.5709 22.2554C34.1493 22.328 34.5109 22.4732 34.5832 22.691C34.8001 23.0541 34.6555 23.4172 34.5832 23.4898ZM28.0032 26.8301L27.7862 26.6849C27.1355 26.1766 25.5447 24.7243 25.617 23.4898C25.617 22.691 25.9062 22.691 26.1232 22.691C26.4124 22.691 26.7016 22.5458 26.8462 22.4006L28.0755 22.9089C28.0032 23.1994 28.0032 23.4898 28.0755 23.8529L28.1478 24.3612C28.3647 25.6683 28.5093 26.5397 29.8832 26.9754C29.8832 26.9754 30.7509 27.1206 31.6909 27.1206C32.9924 27.1206 33.9324 26.8301 34.5109 26.1766L34.5832 26.104C34.5832 26.0314 35.2339 25.0874 35.6678 23.9981C35.6678 23.9981 35.7401 23.7803 35.8124 23.5624H36.6078C36.6801 23.7803 36.7524 23.9255 36.7524 23.9255C37.1862 25.0874 37.837 26.0314 37.837 26.104L37.9093 26.1766C38.4878 26.7575 39.4278 27.1206 40.7293 27.1206C41.6693 27.1206 42.4647 26.9754 42.537 26.9027C43.9109 26.467 44.0555 25.6683 44.2724 24.3612L44.3447 23.8529C44.417 23.4898 44.417 23.1994 44.3447 22.9089L45.5016 22.4732C45.6462 22.5458 45.7909 22.6184 45.9355 22.6184H46.1524C46.2247 22.6184 46.297 22.6184 46.3693 22.6184C46.5139 22.6184 46.8032 22.6184 46.8032 23.4172C46.8032 24.6517 45.2124 26.1766 44.6339 26.6123L44.417 26.7575V27.048C44.417 29.4443 43.1155 31.6954 41.3801 33.2203C39.7893 34.6 37.837 35.4714 36.3185 35.4714C32.7032 35.4714 28.2924 31.768 28.2201 27.1932L28.0032 26.8301ZM25.8339 35.0357C26.7739 33.9464 28.7985 33.9464 29.7385 34.019C29.7385 35.1809 29.8109 37.8677 31.4739 39.7557C31.9801 40.4092 32.6309 40.8449 33.4262 41.208C32.7755 41.6437 32.2693 42.2972 31.9801 43.0233C27.2078 41.9341 25.617 38.5938 25.617 38.5212C25.1109 36.9237 25.1832 35.7618 25.8339 35.0357ZM32.3416 47.4529C32.8478 47.4529 33.2816 47.8886 33.2816 48.3243C33.2816 48.8326 32.8478 49.1957 32.3416 49.1957C31.8355 49.1957 31.4016 48.76 31.4016 48.3243C31.4739 47.816 31.8355 47.4529 32.3416 47.4529ZM16.9401 51.4467V50.2123C16.9401 45.2744 20.1216 40.9175 24.7493 39.32C25.3278 40.3366 27.2801 43.1686 31.7632 44.1852V46.4363C30.8955 46.6541 30.317 47.4529 30.317 48.3243C30.317 49.4135 31.1847 50.2849 32.3416 50.2849C33.4985 50.2849 34.3662 49.4135 34.3662 48.3243C34.3662 47.3803 33.7878 46.6541 32.9201 46.4363V44.04C32.9201 42.8055 33.8601 41.8615 35.0893 41.8615H35.8124C35.8847 41.8615 35.957 41.8615 36.0293 41.8615H36.1016C36.1739 41.8615 36.2462 41.8615 36.3185 41.8615H37.6924C38.9216 41.8615 39.8616 42.8055 39.8616 44.04V45.1292C38.9939 45.347 38.4155 46.1458 38.4155 47.0172C38.4155 48.1064 39.2832 48.9778 40.3678 48.9778C41.4524 48.9778 42.3201 48.1064 42.3201 47.0172C42.3201 46.0732 41.7416 45.347 40.8739 45.1292V44.04C44.9955 42.9507 46.8032 40.264 47.3093 39.2474C48.8278 39.683 50.2016 40.4818 51.3585 41.4984C48.1047 42.7329 45.7185 45.928 45.7185 49.6314C45.7185 50.2123 45.7909 50.8658 45.9355 51.3741H16.9401V51.4467ZM54.4678 57.256C50.2739 57.256 46.8755 53.843 46.8755 49.6314C46.8755 45.4197 50.2739 42.0067 54.4678 42.0067C58.6616 42.0067 62.0601 45.4197 62.0601 49.6314C62.0601 53.843 58.6616 57.256 54.4678 57.256Z" fill="#663C97"/>
</g>
<defs>
<clipPath id="clip0_151_4">
<rect width="47" height="59" fill="white" transform="translate(16 11)"/>
</clipPath>
</defs>
</svg>
