<svg width="79" height="83" viewBox="0 0 79 83" fill="none" xmlns="http://www.w3.org/2000/svg">
<path d="M74.6301 41.5422C73.8725 23.5054 56.5795 6.41905 36.0127 4.85973C15.4459 3.30041 5.37292 20.9015 4.75362 38.2963C4.06249 57.7084 14.2323 79.7654 36.338 79.344C58.4437 78.9226 75.3877 59.579 74.6301 41.5422Z" fill="#BCCFFF"/>
<path d="M55.9044 42.1315C54.8718 41.2466 53.1392 41.3807 52.2196 42.4246L44.5286 51.3769L37.5639 51.3863C36.1118 51.3863 35.9964 50.9756 35.9964 50.4407C35.9964 49.7408 36.3946 49.4918 36.7687 49.4918L43.0821 49.4902C44.5129 49.4902 45.6923 48.3613 45.7096 46.9736C45.7175 46.2946 45.4498 45.6499 44.9542 45.1614C44.4625 44.6745 43.8079 44.4018 43.1051 44.3936L35.3978 44.404C35.1396 44.356 34.8272 44.2837 34.4844 44.2059C33.7251 44.0314 32.8638 43.8322 32.0764 43.7632C31.8995 43.7477 31.6951 43.7372 31.4677 43.7372C30.2755 43.7372 28.017 44.0276 26.2838 45.9806L21.624 51.3841L20.5897 50.5246L15.7715 56.0711L26.8124 65.2404L31.6273 59.6955L30.6008 58.8427L31.8093 57.36H44.9178C46.1274 57.36 46.8896 56.5712 47.0352 56.4056L56.1419 45.7487C56.5955 45.2309 56.8212 44.5702 56.7792 43.8852C56.7344 43.1968 56.4247 42.5736 55.9044 42.1315ZM30.2116 59.8104L26.6965 63.856L17.1877 55.958L20.7028 51.9096L20.9744 52.1354L20.9722 52.137L29.9703 59.6138L29.972 59.6105L30.2116 59.8104ZM55.3797 45.11L46.2758 55.7648C46.2198 55.8271 45.7108 56.3742 44.9172 56.3742H31.33L29.8348 58.2057L22.3879 52.0205L27.0404 46.6247C28.5092 44.9715 30.444 44.7242 31.4672 44.7242C31.6609 44.7242 31.8356 44.733 31.9874 44.7468C32.7053 44.8098 33.5291 44.9991 34.2576 45.1664C34.6166 45.2492 34.9431 45.3242 35.306 45.3833L43.1 45.3805C43.5329 45.386 43.9406 45.555 44.2464 45.858C44.5504 46.1577 44.7145 46.5508 44.7095 46.962C44.6983 47.8121 43.9692 48.5043 43.0541 48.5043L36.7687 48.5071C35.9147 48.5071 34.9952 49.112 34.9952 50.4413C34.9952 52.3733 36.9283 52.3733 37.5644 52.3733L44.994 52.3628L52.979 43.0671C53.5418 42.4262 54.6131 42.3335 55.2492 42.8772C55.564 43.1449 55.751 43.5247 55.7779 43.9475C55.8053 44.3737 55.6653 44.7855 55.3797 45.11Z" fill="#2C4994"/>
<path d="M41.4791 43.2902C47.9583 43.2902 53.3091 38.4668 54.0489 32.2723L54.0814 32.2408V32.0399C54.1223 31.6342 54.1447 31.2224 54.1447 30.8051C54.1447 23.9216 48.4629 18.321 41.4791 18.321C34.4954 18.321 28.8125 23.9216 28.8125 30.8051C28.8125 37.6896 34.4954 43.2902 41.4791 43.2902ZM53.093 31.8042C52.9675 31.9036 52.8035 32.0018 52.6769 31.9483C52.5716 31.9036 52.5291 31.8677 52.5207 31.8677C52.524 31.8252 52.5565 31.7297 52.5767 31.6712C52.6231 31.537 52.6752 31.3847 52.6752 31.2119C52.6752 30.8343 52.3639 30.4209 51.8515 29.7861C51.7036 29.6028 51.567 29.4361 51.4925 29.3202C51.2825 28.9868 50.9011 28.8626 50.5175 29.0078C50.1916 29.1298 49.8803 29.4411 49.7901 29.7877C49.7128 29.7408 49.6103 29.6343 49.5174 29.43C48.8863 28.0401 47.9415 27.7343 47.2746 27.9165C47.0125 27.9866 46.8137 28.1709 46.7291 28.4226C46.4659 29.2059 47.4073 30.4176 47.4146 30.4281C47.479 30.5092 47.5355 30.5892 47.5893 30.6649C47.8486 31.0264 48.1571 31.4741 48.8611 31.4068C48.9316 31.3996 48.9927 31.3968 49.0459 31.3963C48.8807 31.6634 48.6113 31.967 48.291 32.0079C47.4023 32.1277 46.8031 32.9087 46.5102 34.3335C46.3371 35.2034 45.2653 36.7926 44.6011 37.1652C44.4858 37.2281 44.3245 37.2883 44.2035 37.2055C44.0787 37.1205 43.9801 36.8804 44.035 36.5343C44.1005 36.1247 44.3615 32.8839 43.5259 32.1481C43.41 32.0443 43.2426 31.9278 43.0466 31.7932C42.4065 31.3549 41.529 30.7543 41.3268 29.6255C41.1039 28.3779 43.3126 27.4279 43.335 27.4186L43.7091 27.2612L43.634 26.8693C43.6015 26.7059 43.6116 26.463 43.7135 26.3648C44.3211 26.2798 44.5765 25.9022 44.763 25.6268C44.8811 25.4507 44.9747 25.3121 45.1567 25.2155C45.8908 24.8253 45.5498 23.7207 45.1343 22.8618L45.0766 22.7437L44.7232 22.5207C44.4203 22.4069 44.1677 22.4257 43.9543 22.5218C44.0747 22.3606 44.2024 22.1867 44.3402 21.9974C44.6079 21.9918 45.1141 22.0443 45.4747 22.0818C46.3971 22.1779 46.9811 22.2292 47.3065 22.0907C47.3647 22.0835 47.4409 22.1083 47.5283 22.1459C47.2897 22.2491 47.0825 22.3948 47.031 22.6675C47.008 22.7895 47.0063 23.0186 47.2348 23.2383C47.2326 23.2399 47.2315 23.2449 47.2315 23.2521C47.2281 23.3741 47.2208 23.628 47.4325 23.8217C47.6571 24.0293 47.96 23.9967 48.0563 23.9879C48.6908 23.9244 49.2497 23.756 49.864 23.4425C50.004 23.3729 50.1451 23.3205 50.2751 23.278C52.0564 25.2972 53.1428 27.9258 53.1428 30.8056C53.1439 31.1429 53.1215 31.4747 53.093 31.8042ZM48.9927 30.4104C48.912 30.4121 48.8342 30.4176 48.7603 30.4247C48.6768 30.4358 48.6505 30.4374 48.408 30.0969C48.3459 30.0096 48.2798 29.9169 48.2042 29.8209C47.9712 29.53 47.7635 29.1044 47.7013 28.862C47.9707 28.9056 48.3179 29.2004 48.6046 29.833C48.7138 30.0737 48.8465 30.2641 48.9927 30.4104ZM48.6835 21.7799C48.9792 22.0101 49.2643 22.2535 49.5359 22.5107C49.4944 22.5295 49.4507 22.5433 49.4093 22.5632C48.9921 22.7757 48.6247 22.9026 48.2075 22.9705C48.2064 22.9639 48.2047 22.9567 48.2025 22.949C48.2943 22.9175 48.3895 22.8844 48.4803 22.848C48.7009 22.7575 48.8504 22.5714 48.879 22.3512C48.8986 22.2066 48.8672 22.0045 48.6835 21.7799ZM37.7574 20.1311C38.7581 20.3105 39.0364 20.5241 39.0963 20.529C39.0639 20.5649 38.9944 20.6118 38.9575 20.6218C38.8443 20.64 38.5257 20.603 38.314 20.5771C37.8587 20.5224 37.4763 20.4749 37.2187 20.6306C37.1408 20.6267 37.0445 20.6135 36.9392 20.6014C36.7365 20.5793 36.4688 20.5511 36.2062 20.5627C36.5562 20.3872 36.9157 20.2293 37.2842 20.0885C37.4471 20.0941 37.6073 20.1035 37.7574 20.1311ZM35.2788 21.0838C35.2592 21.1368 35.2351 21.1854 35.2262 21.2494C35.1842 21.5525 35.1215 22.0101 35.4625 22.3495C35.7705 22.6565 36.2706 22.7409 37.1414 22.6333C37.8117 22.5488 38.3375 22.737 38.6103 22.9015C38.58 22.9159 38.5503 22.9302 38.5212 22.944C38.1981 23.0958 37.7092 23.3255 37.7848 23.846C37.8011 24.1662 37.5423 25.2155 37.3531 25.3397C37.2024 25.3397 37.0484 25.3215 36.895 25.3044C36.3165 25.2387 35.528 25.1515 34.9759 25.916C34.7647 26.2113 34.5984 26.356 34.4545 26.3731C34.2731 26.394 34.0048 26.2588 33.6767 25.9922C33.4219 25.5307 32.7779 24.86 31.8219 25.0554C31.58 25.1029 31.3723 25.2061 31.2115 25.3541C32.1703 23.6064 33.5798 22.1398 35.2788 21.0838ZM34.8219 37.4788C34.921 37.8265 35.1735 38.1246 35.3768 38.3355C35.2979 38.3912 35.2004 38.4475 35.1013 38.4812C34.9283 38.4558 34.5659 38.0788 34.4937 37.8707C34.9204 37.3512 34.6931 36.4636 34.5693 36.0883V32.9005L34.3072 32.7608C33.913 32.5505 33.381 32.1023 33.4073 31.8445C33.4919 31.0308 33.6352 29.6702 32.6283 29.191C32.3209 29.0436 31.3006 28.1836 30.5955 26.7004C30.6807 26.4813 30.7714 26.2649 30.8694 26.0524C30.7781 26.6678 31.0777 27.3639 31.463 27.667C31.6013 27.774 31.7794 27.9452 31.967 28.1224C32.5427 28.6683 32.8859 28.9791 33.2365 29.021C33.5131 29.0569 33.773 28.9139 34.0603 28.7472C34.3173 28.5982 34.6399 28.4166 34.8454 28.4618C35.0856 28.533 35.7307 29.2766 36.0768 29.6757C36.5724 30.2459 36.8899 30.603 37.1823 30.7648C37.4824 30.9271 37.9209 31.4167 38.0732 31.6783C37.9825 31.8268 37.9192 32.0073 37.8487 32.2055C37.81 32.3165 37.7484 32.4903 37.7019 32.5759C36.97 32.9325 36.0259 34.9296 35.9979 35.1206C35.9223 35.2222 35.523 35.4353 35.1741 35.5589L34.8975 35.6572L34.8499 35.9431C34.8196 36.1142 34.6841 36.9924 34.8219 37.4788ZM30.1767 28.0097C30.894 29.1402 31.7323 29.8589 32.1921 30.0792C32.5667 30.258 32.4659 31.224 32.4111 31.7501C32.3276 32.5549 33.1155 33.182 33.568 33.4734V36.1705L33.596 36.335C33.7226 36.6861 33.7791 37.1415 33.7215 37.2442C33.6061 37.3529 33.2651 37.7636 33.6873 38.4779C33.9522 38.9244 34.5307 39.4671 35.0968 39.4671C35.1758 39.4671 35.2553 39.4566 35.332 39.4339C35.8019 39.2948 36.3479 38.9377 36.4839 38.5248C36.5495 38.3255 36.5181 38.1218 36.3932 37.9607C36.3563 37.9143 36.293 37.848 36.2151 37.7697C36.0735 37.6283 35.8366 37.3921 35.7856 37.2132C35.7447 37.0692 35.7582 36.7126 35.7974 36.3781C36.321 36.16 36.8586 35.8338 36.9504 35.3916C37.0255 35.1035 37.7988 33.7632 38.1018 33.4801C38.4988 33.363 38.6534 32.9231 38.7923 32.5312C38.8343 32.4131 38.8975 32.2348 38.8975 32.2204C39.0566 32.0912 39.1361 31.8925 39.1154 31.675C39.0616 31.0998 38.1975 30.1901 37.6672 29.9037C37.5188 29.8225 37.1246 29.3677 36.8379 29.0365C36.0729 28.1555 35.5723 27.6129 35.0683 27.5025C34.4702 27.3689 33.9427 27.6747 33.5563 27.8966C33.4896 27.9352 33.4056 27.9838 33.3435 28.0147C33.1732 27.8982 32.8602 27.6007 32.6603 27.4119C32.4463 27.2093 32.2414 27.0156 32.0846 26.8953C31.9675 26.8025 31.7883 26.4123 31.8511 26.1594C31.8667 26.0954 31.888 26.0479 32.0202 26.022C32.5275 25.9237 32.7919 26.4476 32.8187 26.5044L32.9498 26.6778C33.5624 27.1978 34.0715 27.4092 34.5771 27.3523C35.1523 27.2833 35.5297 26.8533 35.7935 26.4873C35.9827 26.2224 36.2107 26.2191 36.7824 26.2847C36.9739 26.3057 37.1666 26.3267 37.3542 26.3267C37.5519 26.3267 37.8431 26.2616 38.1124 25.9519C38.5582 25.4402 38.7643 24.4035 38.7833 23.9161C38.8354 23.8896 38.8998 23.8593 38.9535 23.8344C39.0947 23.7682 39.2559 23.692 39.429 23.5915C39.7431 23.4072 39.8675 23.0693 39.7493 22.731C39.5225 22.0868 38.3487 21.484 37.0165 21.6546C36.7735 21.6849 36.5971 21.6932 36.4705 21.6932C36.2846 21.6932 36.2095 21.6739 36.1967 21.6827C36.1922 21.6529 36.1939 21.5988 36.1983 21.5436C36.3809 21.5337 36.6693 21.5657 36.8283 21.5834C37.1951 21.6237 37.4998 21.6573 37.7159 21.5122C37.8352 21.5149 38.0441 21.5398 38.1931 21.5574C38.5419 21.5999 38.8707 21.6391 39.1271 21.595C39.5354 21.5271 40.1015 21.128 40.1043 20.5572C40.1071 20.0598 39.709 19.7375 39.2408 19.5261C39.966 19.387 40.7142 19.3086 41.4803 19.3086C43.9 19.3086 46.1501 20.0394 48.0155 21.2875C47.6744 21.1252 47.2757 21.0336 46.9526 21.1716C46.7711 21.2268 46.0263 21.1478 45.5817 21.1015C44.7759 21.0165 44.2646 20.9706 43.9364 21.0617L43.7886 21.1037L43.6004 21.3272C42.9239 22.259 42.0548 23.3597 41.8958 23.4833C41.3503 23.6616 41.1431 24.4571 41.2075 24.939C41.2747 25.4347 41.6113 25.7598 42.0839 25.7846L42.3695 25.8001L42.5275 25.566C42.6815 25.3375 42.9491 25.0919 43.0544 25.0792C43.5259 25.0405 43.7354 24.5791 43.9364 24.1325C44.0204 23.9481 44.1834 23.5866 44.3178 23.4745C44.5239 23.9443 44.5849 24.2677 44.5849 24.4041C44.2467 24.6116 44.0647 24.8805 43.9303 25.0814C43.769 25.3199 43.7247 25.3684 43.573 25.3894C43.2723 25.4314 43.0231 25.5776 42.8539 25.8133C42.6613 26.0822 42.6143 26.4106 42.6143 26.6656C41.8426 27.0553 40.0472 28.1511 40.3418 29.7982C40.6156 31.3311 41.7804 32.1293 42.4765 32.6052C42.6311 32.7106 42.7655 32.8 42.85 32.874C43.13 33.2123 43.2135 35.3403 43.0477 36.3819C42.9385 37.067 43.1619 37.6929 43.6329 38.0159C43.8451 38.1616 44.0859 38.2344 44.3379 38.2344C44.5838 38.2344 44.8419 38.1649 45.0945 38.0258C46.009 37.5124 47.2645 35.6803 47.4935 34.5272C47.6044 33.984 47.876 33.0605 48.4248 32.9871C49.3852 32.864 49.9671 31.9129 50.1435 31.415C50.2157 31.1959 50.1821 30.9712 50.0539 30.7929C50.0987 30.7858 50.1423 30.7758 50.1849 30.7626C50.5506 30.6522 50.7852 30.3491 50.7701 30.0229V30.0223C50.8535 30.1349 50.9583 30.2647 51.0691 30.4021C51.2668 30.6472 51.6359 31.1043 51.6745 31.2058C51.6717 31.2323 51.6459 31.3068 51.6297 31.3565C51.53 31.6463 51.2651 32.4169 52.2776 32.8547C52.4288 32.9192 52.6567 32.9783 52.9356 32.938C51.9181 38.2626 47.1727 42.3054 41.4797 42.3054C35.047 42.3054 29.8138 37.1476 29.8138 30.8062C29.8132 29.8391 29.9482 28.9062 30.1767 28.0097ZM43.0533 23.6627C43.0432 23.6859 43.0326 23.7086 43.0225 23.7301C42.9676 23.8526 42.8887 24.026 42.8332 24.1165C42.7089 24.1441 42.5907 24.1943 42.4799 24.2567C42.6075 24.1518 42.7884 23.9735 43.0533 23.6627Z" fill="#2C4994"/>
<path d="M49.3198 38.0273L49.4245 38.0251C50.2018 37.9909 50.6896 37.7475 50.8733 37.3015C51.1309 36.676 50.6381 35.9706 50.18 35.4887C49.7404 35.0261 48.9861 34.6772 48.4249 34.6772C47.8179 34.6772 47.5469 35.0681 47.5508 35.3882C47.5317 35.5246 47.3839 36.7445 48.0425 37.4891C48.3544 37.8408 48.7962 38.0273 49.3198 38.0273ZM49.4497 36.1632C49.8468 36.58 49.9532 36.8654 49.9537 36.9151C49.9537 36.9151 49.844 37.0188 49.3797 37.0393L49.3204 37.5338V37.0409C49.0113 37.0409 48.8746 36.9266 48.7985 36.8416C48.5515 36.564 48.5157 36.0274 48.5302 35.6731C48.8018 35.7172 49.2117 35.9121 49.4497 36.1632Z" fill="#2C4994"/>
</svg>
