<svg width="75" height="91" viewBox="0 0 75 91" fill="none" xmlns="http://www.w3.org/2000/svg">
<path d="M41.6057 78.6273C23.6062 80.0115 4.59174 64.8641 0.607271 44.6268C-3.3772 24.3895 12.9069 12.3026 30.1058 9.62725C49.2994 6.64163 72.4057 14.1272 74.6057 36.1272C76.8057 58.1272 59.6053 77.2431 41.6057 78.6273Z" fill="#CFFFEE"/>
<path d="M28.9969 22.0414C28.9391 21.9282 28.9864 21.7913 29.0967 21.736C29.843 21.3595 30.6182 21.0224 31.4014 20.7328C31.5196 20.688 31.651 20.7486 31.693 20.8671C31.7377 20.9856 31.6773 21.1172 31.559 21.1593C30.7917 21.4437 30.0349 21.7728 29.3043 22.1415C29.2701 22.1573 29.236 22.1678 29.2018 22.1678C29.1177 22.1678 29.0363 22.1204 28.9969 22.0414ZM19.0324 32.7922C19.064 32.8054 19.0929 32.8107 19.1244 32.8107C19.2111 32.8107 19.2952 32.7606 19.332 32.6738C19.6605 31.9233 20.0389 31.1834 20.4515 30.4751C20.5146 30.3672 20.4778 30.2276 20.37 30.1644C20.2597 30.1012 20.123 30.1381 20.0599 30.246C19.6369 30.9701 19.2532 31.7232 18.9168 32.4894C18.8669 32.6079 18.9194 32.7422 19.0324 32.7922ZM17.3269 42.5373H17.3374C17.4609 42.5321 17.5582 42.4241 17.5556 42.3004C17.5398 41.9712 17.5345 41.6368 17.5345 41.3076C17.5345 40.8153 17.5503 40.3203 17.5845 39.8331C17.5923 39.7094 17.4977 39.5988 17.3716 39.5909C17.2481 39.5803 17.1377 39.6778 17.1298 39.8041C17.0957 40.3018 17.0799 40.8074 17.0799 41.3103C17.0799 41.6473 17.0878 41.987 17.1036 42.324C17.1036 42.4399 17.206 42.5373 17.3269 42.5373ZM21.4973 28.4714C21.5367 28.503 21.5866 28.5162 21.6339 28.5162C21.7023 28.5162 21.7706 28.4846 21.8153 28.424C22.3067 27.7684 22.8401 27.1338 23.4051 26.5387C23.4918 26.4466 23.4866 26.3017 23.3972 26.2175C23.3053 26.1306 23.1607 26.1359 23.0766 26.2254C22.5011 26.8336 21.9545 27.4814 21.4526 28.1476C21.379 28.2529 21.4001 28.3951 21.4973 28.4714ZM25.0528 24.9062C25.1054 24.9062 25.1553 24.8904 25.2 24.8535C25.828 24.3269 26.4929 23.8319 27.1735 23.3816C27.2786 23.3132 27.3075 23.171 27.2365 23.0656C27.1682 22.9603 27.0263 22.9314 26.9212 23.0024C26.2248 23.4632 25.5442 23.9688 24.9056 24.5086C24.811 24.5902 24.7953 24.7324 24.8767 24.8298C24.924 24.8772 24.9871 24.9062 25.0528 24.9062ZM17.6212 37.5687C17.6343 37.5713 17.6501 37.5713 17.6632 37.5713C17.771 37.5713 17.8656 37.4949 17.8866 37.3843C18.0337 36.576 18.2335 35.7703 18.4726 34.9882C18.5094 34.8697 18.4411 34.7407 18.3228 34.7038C18.2046 34.667 18.0758 34.7354 18.039 34.8539C17.7946 35.6544 17.5923 36.4786 17.4399 37.3027C17.4162 37.4265 17.5003 37.545 17.6212 37.5687ZM46.0096 61.5691C45.237 61.8377 44.4434 62.0667 43.6446 62.2458C43.521 62.2721 43.4448 62.3959 43.4737 62.517C43.4974 62.6223 43.592 62.696 43.6945 62.696C43.7102 62.696 43.7286 62.6934 43.7444 62.6908C44.559 62.5064 45.3737 62.2747 46.1621 61.9983C46.2803 61.9562 46.3434 61.8271 46.3013 61.7086C46.2593 61.5902 46.1278 61.5269 46.0096 61.5691ZM41.2138 62.646C40.4018 62.7329 39.574 62.7698 38.7542 62.7645C38.6307 62.7672 38.5282 62.8646 38.5255 62.991C38.5229 63.1174 38.6254 63.2174 38.7515 63.2201H38.946C39.7186 63.2201 40.4991 63.1806 41.2637 63.0989C41.3873 63.0858 41.4792 62.9752 41.4661 62.8488C41.4503 62.7224 41.3399 62.6329 41.2138 62.646ZM36.2971 62.6013C35.4825 62.5012 34.6678 62.3511 33.8742 62.1589C33.7507 62.1273 33.6298 62.2037 33.6009 62.3248C33.5694 62.4459 33.6456 62.5697 33.7665 62.5986C34.5758 62.7961 35.4089 62.9462 36.2393 63.0515C36.2498 63.0542 36.2577 63.0542 36.2682 63.0542C36.3812 63.0542 36.4784 62.9699 36.4942 62.854C36.5099 62.7303 36.4232 62.6171 36.2971 62.6013ZM31.5197 61.4401C30.7523 61.1557 29.9955 60.8239 29.2649 60.4527C29.1546 60.3947 29.0153 60.4421 28.9601 60.5527C28.9023 60.6633 28.9496 60.8029 29.06 60.8582C29.8063 61.2373 30.5815 61.577 31.3646 61.8666C31.3909 61.8772 31.4172 61.8798 31.4434 61.8798C31.5354 61.8798 31.6221 61.8219 31.6563 61.7324C31.6983 61.6139 31.6379 61.4822 31.5197 61.4401ZM60.5391 39.8589C60.4156 39.8668 60.3184 39.9748 60.3262 40.0985C60.3473 40.4987 60.3604 40.9069 60.3604 41.3071C60.3604 41.7258 60.3499 42.1471 60.3236 42.5658C60.3157 42.6895 60.4129 42.7975 60.5365 42.808H60.5496C60.6679 42.808 60.7703 42.7158 60.7756 42.5947C60.8019 42.1682 60.8124 41.7363 60.8124 41.3098C60.8124 40.899 60.8019 40.483 60.7782 40.0775C60.773 39.9459 60.6652 39.851 60.5391 39.8589ZM56.2347 28.6416C56.2794 28.7022 56.3477 28.7338 56.4187 28.7338C56.466 28.7338 56.5133 28.7206 56.5527 28.689C56.6525 28.6153 56.6762 28.4705 56.6026 28.3704C56.1086 27.6937 55.5725 27.0407 55.0023 26.4272C54.9155 26.335 54.7736 26.3298 54.6817 26.4167C54.5897 26.5036 54.5844 26.6457 54.6712 26.7379C55.223 27.3409 55.7512 27.9808 56.2347 28.6416ZM60.0504 37.6466C60.0688 37.7572 60.166 37.8362 60.2737 37.8362C60.2869 37.8362 60.3 37.8335 60.3131 37.8335C60.4366 37.8125 60.5207 37.6966 60.4971 37.5702C60.3552 36.7434 60.1634 35.9193 59.9295 35.1162C59.8953 34.9951 59.7692 34.9266 59.6457 34.9635C59.5248 34.9977 59.4565 35.1241 59.4933 35.2479C59.7219 36.0299 59.9111 36.8382 60.0504 37.6466ZM58.6629 32.9228C58.6996 33.0097 58.7837 33.0597 58.8705 33.0597C58.902 33.0597 58.9309 33.0545 58.9598 33.0413C59.0754 32.9913 59.1306 32.8596 59.0781 32.7438C58.7522 31.9749 58.3764 31.2166 57.9639 30.4845C57.9008 30.3739 57.7642 30.3371 57.6538 30.3976C57.5434 30.4608 57.5066 30.5977 57.5671 30.7083C57.977 31.4245 58.3449 32.1697 58.6629 32.9228ZM33.0333 29.4577V26.1189C32.7469 26.0452 32.534 25.7898 32.534 25.4791V22.0402C32.534 21.6768 32.831 21.3793 33.1936 21.3793H35.3116V20.3577C35.3116 19.6941 35.8503 19.1543 36.5126 19.1543H40.5673C41.2295 19.1543 41.7682 19.6941 41.7682 20.3577V21.3793H43.8863C44.2489 21.3793 44.5458 21.6768 44.5458 22.0402L44.5432 25.4791C44.5432 25.7871 44.3304 26.0452 44.0439 26.1189V28.8968H44.8402L44.8428 27.8726C44.8428 27.4039 45.1108 26.9984 45.5024 26.8009C45.6653 26.7193 45.8493 26.6719 46.0411 26.6719H50.0984C50.7607 26.6719 51.2994 27.2117 51.2994 27.8753V28.8969H53.4174C53.78 28.8969 54.077 29.1944 54.077 29.5578L54.0744 32.994C54.0744 33.3021 53.8615 33.5601 53.5751 33.6339V36.9726C53.5751 37.336 53.2781 37.6335 52.9155 37.6335H43.2242C42.8615 37.6335 42.5646 37.336 42.5646 36.9726V33.6339C42.2782 33.5601 42.0653 33.3047 42.0653 32.994V30.1187H33.6905C33.3279 30.1187 33.0333 29.8237 33.0333 29.4577ZM32.986 25.4791C32.986 25.5923 33.078 25.6845 33.191 25.6845H36.7228V25.2737C36.7228 24.9103 37.0197 24.6128 37.3824 24.6128H39.6922C40.0549 24.6128 40.3518 24.9103 40.3518 25.2737V25.6845H43.8837C43.9967 25.6845 44.0886 25.5923 44.0886 25.4791V22.0402C44.0886 21.927 43.9967 21.8348 43.8837 21.8348H33.1907C33.0777 21.8348 32.9857 21.927 32.9857 22.0402L32.986 25.4791ZM42.7271 29.3497C42.6141 29.3497 42.5221 29.4419 42.5221 29.5551L42.5195 32.994C42.5195 33.1072 42.6115 33.1994 42.7245 33.1994H46.2563V32.7886C46.2563 32.4252 46.5532 32.1277 46.9159 32.1277H49.2257C49.5884 32.1277 49.8853 32.4252 49.8853 32.7886V33.1994H53.4171C53.5301 33.1994 53.6221 33.1072 53.6221 32.994V29.5551C53.6221 29.4419 53.5301 29.3497 53.4171 29.3497H42.7271ZM53.1227 36.9728V33.6551H49.8826V34.0659C49.8826 34.4292 49.5857 34.7268 49.223 34.7268H46.9132C46.5505 34.7268 46.2536 34.4292 46.2536 34.0659V33.6551H43.0134V36.9728C43.0134 37.0861 43.1054 37.1782 43.2184 37.1782H52.9124C53.0307 37.1782 53.1227 37.0861 53.1227 36.9728ZM46.7108 34.0659C46.7108 34.1791 46.8028 34.2713 46.9158 34.2713H49.2257C49.3387 34.2713 49.4307 34.1791 49.4307 34.0659V32.7915C49.4307 32.6783 49.3387 32.5861 49.2257 32.5861H46.9158C46.8028 32.5861 46.7108 32.6783 46.7108 32.7915V34.0659ZM43.5916 28.8945V26.1403H40.3515V26.551C40.3515 26.9144 40.0545 27.2119 39.6919 27.2119H37.382C37.0194 27.2119 36.7224 26.9144 36.7224 26.551V26.1403H33.4849V29.458C33.4849 29.5712 33.5769 29.6634 33.6899 29.6634H42.0647V29.5554C42.0647 29.1921 42.3616 28.8945 42.7243 28.8945L43.5916 28.8945ZM39.8969 25.274C39.8969 25.1607 39.8049 25.0686 39.6919 25.0686H37.382C37.269 25.0686 37.177 25.1607 37.177 25.274V26.5484C37.177 26.6616 37.269 26.7537 37.382 26.7537L39.6919 26.7564C39.8049 26.7564 39.8969 26.6642 39.8969 26.551V25.274ZM45.297 28.8945H50.847L50.8444 27.8728C50.8444 27.4594 50.5107 27.125 50.0981 27.125H46.0407C45.6282 27.125 45.2944 27.4594 45.2944 27.8728V28.8945H45.297ZM35.7631 21.3799H41.3105V20.3583C41.3105 19.9449 40.9768 19.6105 40.5642 19.6105H36.5068C36.0943 19.6105 35.7605 19.9449 35.7605 20.3583V21.3799H35.7631ZM43.4679 19.3208C43.4153 18.9495 43.5126 18.5809 43.7412 18.2833C43.9698 17.9858 44.3009 17.7988 44.6741 17.7541L44.7923 17.7409C48.516 17.2117 51.9555 19.6446 52.7231 23.3047L53.6796 23.1677C53.9319 23.1309 54.1763 23.2546 54.3024 23.4784C54.4259 23.7023 54.397 23.9761 54.2341 24.1709L52.4051 26.33C52.2869 26.4722 52.1134 26.546 51.9374 26.546C51.8217 26.546 51.7035 26.5117 51.601 26.4459L49.2438 24.8845C49.031 24.7423 48.9285 24.4895 48.9837 24.2394C49.0388 23.9892 49.2386 23.8023 49.4935 23.768L50.2398 23.6627C49.5776 21.5431 47.4858 20.2028 45.2627 20.5188L45.0367 20.5504C44.2825 20.6557 43.5835 20.1317 43.4758 19.376L43.4679 19.3208ZM44.1012 18.5625C43.9488 18.7626 43.8831 19.0101 43.9172 19.2603L43.9251 19.3103C43.9987 19.8159 44.4665 20.1687 44.9736 20.0976L45.1996 20.066C45.4414 20.0318 45.6779 20.016 45.9144 20.016C48.1744 20.016 50.1821 21.5432 50.7523 23.7945C50.768 23.8577 50.7575 23.9235 50.7207 23.9762C50.6866 24.0289 50.6288 24.0657 50.5631 24.0736L49.5592 24.2158C49.462 24.229 49.4357 24.3053 49.4278 24.3369C49.4199 24.3685 49.4121 24.4475 49.4961 24.5028L51.8533 26.0642C51.919 26.109 52.0084 26.0958 52.0609 26.0326L53.8899 23.8735C53.953 23.7998 53.9241 23.7234 53.9083 23.6945C53.8926 23.6655 53.8452 23.6023 53.748 23.6155L52.5786 23.7814C52.4577 23.7998 52.3447 23.7182 52.3237 23.597C51.6904 20.0581 48.4109 17.6831 44.8578 18.1887H44.8525L44.7316 18.2018C44.4767 18.2334 44.2536 18.3597 44.1012 18.5625ZM40.5668 39.814C37.0376 39.814 34.0471 37.2257 33.561 33.6921L32.5992 33.7605C32.3443 33.779 32.1078 33.642 32 33.4077C31.8923 33.176 31.937 32.9048 32.1183 32.7231L34.0918 30.6956C34.3099 30.4744 34.6568 30.4507 34.9012 30.6377L37.1453 32.3624C37.3477 32.5204 37.4317 32.7784 37.3582 33.0259C37.2846 33.2708 37.0717 33.4419 36.8168 33.4604L36.0626 33.513C36.5751 35.6748 38.5722 37.1572 40.8111 36.9967L41.0371 36.9809C41.7966 36.9282 42.4588 37.4996 42.5114 38.2605L42.514 38.3132C42.5403 38.6871 42.4194 39.0478 42.1697 39.3295C41.9201 39.6113 41.5758 39.7772 41.2001 39.793L41.0818 39.7982C40.911 39.8061 40.7376 39.814 40.5668 39.814ZM33.984 33.4234C34.3519 36.8333 37.1952 39.3558 40.5668 39.3558C40.7271 39.3558 40.8926 39.3506 41.0555 39.34H41.0608L41.1817 39.3348C41.4339 39.3242 41.6652 39.2136 41.8307 39.0241C41.9963 38.8345 42.0804 38.5922 42.062 38.3421L42.0594 38.2894C42.0226 37.7812 41.5785 37.3942 41.0686 37.4311L40.8426 37.4469C38.2884 37.6312 36.0179 35.867 35.5633 33.3419C35.5528 33.2787 35.5685 33.2129 35.608 33.1628C35.6474 33.1128 35.7078 33.0812 35.7709 33.076L36.7826 33.0022C36.8798 32.9943 36.9114 32.9206 36.9219 32.889C36.9324 32.8574 36.9429 32.7784 36.8667 32.7179L34.6225 30.9932C34.5595 30.9431 34.4701 30.951 34.4149 31.009L32.4414 33.0364C32.3731 33.1075 32.3968 33.1839 32.4099 33.2129C32.423 33.2445 32.4651 33.3103 32.5649 33.305L33.7422 33.2208H33.758C33.8736 33.2208 33.9708 33.3076 33.984 33.4234ZM32.3363 55.7892C32.3101 55.7866 32.2812 55.7866 32.2549 55.7866C32.4099 56.2632 32.3416 56.8187 32.0289 57.2506C31.7871 57.585 31.4376 57.7957 31.0513 57.8404C30.7964 57.872 30.5442 57.8246 30.3155 57.7114C30.3208 57.7614 30.3234 57.8088 30.326 57.8589C30.3339 58.217 30.2262 58.5698 30.0212 58.8542C29.7794 59.1886 29.4299 59.3992 29.0437 59.444C28.6731 59.4861 28.3132 59.3729 28.0267 59.1254L27.8901 59.0069C27.8927 59.0359 27.8927 59.0648 27.8953 59.0938C27.9032 59.4493 27.827 59.6863 27.6168 59.9706C27.53 60.0865 27.2094 60.4736 26.7154 60.5447C26.6629 60.5526 26.6103 60.5552 26.5604 60.5552C26.3108 60.5552 26.069 60.4683 25.8404 60.2945L24.9942 59.5915L24.5895 59.9101C24.579 59.918 24.5685 59.9259 24.558 59.9311C24.3635 60.0364 24.1507 60.0891 23.9405 60.0891C23.5542 60.0891 23.1732 59.918 22.9156 59.5941C22.7212 59.3518 22.6108 59.0464 22.6082 58.7305C22.6082 58.7147 22.6108 58.6962 22.6108 58.6778L22.5057 58.7673C22.2639 58.9753 21.9644 59.0886 21.6543 59.0886C21.6149 59.0886 21.5781 59.0859 21.5387 59.0833C21.1813 59.0517 20.8581 58.8779 20.6294 58.5935C20.4349 58.3513 20.3246 58.0459 20.3219 57.7325C20.3219 57.693 20.3246 57.6562 20.3272 57.6193C20.1511 57.7062 19.9567 57.7536 19.7596 57.7536C19.7202 57.7536 19.6834 57.751 19.644 57.7483C19.2866 57.7167 18.9634 57.543 18.7347 57.2586C18.4404 56.8952 18.3615 56.416 18.4851 55.9921C18.4404 55.9973 18.3931 56 18.3458 56C18.3064 56 18.2696 55.9973 18.2302 55.9947C17.8728 55.9631 17.5496 55.7893 17.3209 55.5049C16.8558 54.9257 16.9293 54.0647 17.4864 53.5775L17.6231 53.4669L16.8242 52.8034C16.7769 52.8192 16.7296 52.8297 16.6823 52.8376C16.6324 52.8455 16.5851 52.8481 16.5378 52.8481C16.3354 52.8481 16.1357 52.7797 15.9702 52.6533L13.2766 50.5837C13.182 50.5099 13.1584 50.373 13.2267 50.273L18.1197 43.2505C18.1907 43.1504 18.3273 43.1214 18.4298 43.1925L21.239 45.0568C21.2442 45.0594 21.2469 45.0647 21.2521 45.0647C21.373 45.1568 21.465 45.2753 21.5307 45.407C22.3006 45.4096 22.9918 45.428 23.5988 45.4702C24.6184 45.536 25.4094 45.6545 25.9875 45.8309C26.9887 45.5044 27.9137 45.4149 29.0043 45.5202C29.4405 45.5623 30.0896 45.665 30.4601 45.7361C30.5284 45.4965 30.6835 45.2832 30.9121 45.1542L33.9604 43.2689C34.0129 43.2373 34.076 43.2267 34.1364 43.2425C34.1969 43.2583 34.2468 43.2978 34.2784 43.3531L38.8456 51.5108C38.906 51.6214 38.8692 51.7556 38.7588 51.8188L35.7211 53.5619C35.5713 53.6488 35.4057 53.6909 35.2376 53.6909C35.143 53.6909 35.0483 53.6778 34.9537 53.6488C34.8959 53.633 34.8434 53.6093 34.7908 53.5856L33.992 53.9859C33.9604 54.0017 33.9236 54.0096 33.8921 54.0096C33.8606 54.0096 33.829 53.999 33.7975 53.9859C33.8606 54.3993 33.7712 54.839 33.5137 55.1971C33.2719 55.5315 32.9224 55.7422 32.5361 55.7869C32.4704 55.7922 32.4047 55.7919 32.3363 55.7892ZM31.6636 56.982C32.0052 56.508 31.9448 55.8287 31.527 55.468L29.5062 53.8038C29.4089 53.7248 29.3958 53.5826 29.4746 53.4826C29.5535 53.3851 29.6954 53.372 29.7952 53.451L31.816 55.1177L31.8187 55.1204L31.8213 55.123C32.0105 55.2863 32.247 55.36 32.4861 55.3337C32.7463 55.3021 32.9828 55.1599 33.1484 54.9282C33.4926 54.4542 33.4295 53.7749 33.0091 53.4115L32.2864 52.7954C32.2786 52.7875 32.2707 52.7822 32.2654 52.7743C32.2339 52.7401 32.2023 52.7032 32.1708 52.669L27.2804 48.6851L23.11 50.731C22.3322 51.1813 21.3336 50.9153 20.879 50.1386C20.8764 50.1333 20.8738 50.128 20.8711 50.1228C20.6583 49.7594 20.5978 49.317 20.7082 48.8931C20.8186 48.4692 21.0892 48.1137 21.465 47.8925C21.4703 47.8899 21.4755 47.8846 21.4834 47.882L25.1072 46.1704C25.1519 46.152 25.1939 46.1336 25.2386 46.1151C24.3819 45.9545 23.181 45.8729 21.6464 45.865C21.649 46.073 21.5912 46.2863 21.465 46.4653L17.3288 52.432C17.2973 52.4741 17.2658 52.5136 17.2316 52.5505L17.9884 53.1798L19.0212 52.353C19.0317 52.3451 19.0422 52.3372 19.0554 52.3319C19.6072 52.0291 20.2984 52.1713 20.6978 52.6663C20.8922 52.9085 21.0026 53.214 21.0052 53.5299C21.0052 53.5457 21.0026 53.5642 21.0026 53.5826L21.1051 53.4931C21.3784 53.2561 21.72 53.1455 22.0747 53.1771C22.4321 53.2087 22.7553 53.3825 22.984 53.6668C23.1785 53.9091 23.2888 54.2145 23.2915 54.5305C23.2915 54.57 23.2888 54.6068 23.2862 54.6463C23.4964 54.541 23.7329 54.4962 23.9694 54.5173C24.3268 54.5489 24.65 54.7227 24.8787 55.0071C25.2597 55.481 25.2781 56.1472 24.9654 56.6396C25.3123 56.6738 25.6302 56.8476 25.8536 57.1267C26.3187 57.706 26.2451 58.567 25.6881 59.0515L25.3622 59.3096L26.1269 59.9442C26.2951 60.0732 26.4764 60.1258 26.6577 60.1021C26.9126 60.0653 27.136 59.8731 27.2595 59.7072C27.4093 59.5044 27.4539 59.3649 27.4487 59.1121C27.4408 58.7961 27.312 58.5065 27.0913 58.3143C27.0887 58.3116 27.086 58.309 27.0834 58.3064L27.0808 58.3037L26.7339 57.9588C26.6446 57.8719 26.6419 57.7271 26.7313 57.6376C26.818 57.548 26.9625 57.5454 27.0519 57.6349L27.3961 57.9746L28.3369 58.7882C28.5261 58.9515 28.7626 59.0278 29.0017 58.9989C29.2619 58.9673 29.4958 58.8251 29.6639 58.5934C29.8111 58.3906 29.8899 58.1326 29.8847 57.8745C29.8768 57.5585 29.748 57.2689 29.5273 57.0767L27.9742 55.7364C27.8796 55.6548 27.8691 55.51 27.9506 55.4152C28.032 55.3204 28.1766 55.3099 28.2712 55.3915L29.8242 56.7318L30.3445 57.1846C30.5337 57.3479 30.7702 57.4243 31.0094 57.3953C31.2617 57.3558 31.4954 57.2137 31.6636 56.982ZM24.3269 59.5388L25.399 58.6935C25.7643 58.3749 25.8142 57.793 25.4989 57.4033C25.3465 57.2163 25.1363 57.1005 24.9024 57.0821C24.8761 57.0794 24.8525 57.0794 24.8288 57.0794C24.6265 57.0794 24.4294 57.1531 24.2717 57.2901C24.2691 57.2927 24.2691 57.2927 24.2638 57.2953L23.3809 58.0089L23.3704 58.0194C23.1733 58.1906 23.0603 58.4513 23.0603 58.7278C23.0629 58.941 23.1365 59.1464 23.2679 59.3097C23.5306 59.6283 23.9695 59.7257 24.3269 59.5388ZM22.2115 58.425L23.0839 57.6693L24.4215 56.5792C24.7894 56.2579 24.8393 55.6787 24.5266 55.2889C24.3742 55.102 24.164 54.9861 23.9301 54.9677C23.9038 54.965 23.8802 54.965 23.8539 54.965C23.6516 54.965 23.4545 55.0388 23.2968 55.1757L22.8185 55.5917L22.8159 55.5944L21.0947 57.0215C20.8949 57.1953 20.7793 57.4533 20.7846 57.7325C20.7872 57.9457 20.8608 58.1511 20.9922 58.3117C21.1446 58.4987 21.3548 58.6145 21.5887 58.633C21.8094 58.654 22.0328 58.5803 22.2115 58.425ZM20.3168 57.09L20.7951 56.674L22.5216 55.2442C22.7213 55.0704 22.8369 54.8123 22.8343 54.5332C22.8316 54.3199 22.7581 54.1146 22.6267 53.9513C22.4743 53.7644 22.264 53.6485 22.0301 53.6301C22.0039 53.6274 21.9802 53.6274 21.9539 53.6274C21.7516 53.6274 21.5545 53.7012 21.3968 53.8381L20.5244 54.5938L20.5191 54.5991L19.1868 55.6865C18.8189 56.0078 18.769 56.587 19.0817 56.9768C19.2341 57.1637 19.4443 57.2796 19.6782 57.298C19.9147 57.3191 20.1381 57.2453 20.3168 57.09ZM18.2697 55.5443C18.5009 55.5654 18.7243 55.4917 18.903 55.3363L18.9083 55.3337L18.9109 55.3311L20.2406 54.2462C20.4429 54.0698 20.5559 53.8091 20.5533 53.5326C20.5507 53.3193 20.4771 53.114 20.3457 52.9507C20.0882 52.6295 19.6467 52.5373 19.2919 52.719L17.7809 53.9276C17.413 54.2462 17.3657 54.8281 17.6785 55.2179C17.8256 55.4101 18.0358 55.5233 18.2697 55.5443ZM16.6115 52.3951C16.7482 52.3741 16.8691 52.2951 16.9532 52.1766L21.0894 46.2099C21.2602 45.9624 21.2155 45.6175 20.9869 45.4358L18.3696 43.698L13.7262 50.3624L16.2463 52.3003C16.3514 52.382 16.4828 52.4162 16.6115 52.3951ZM25.2911 46.5865L21.683 48.2927C21.415 48.4533 21.2232 48.7061 21.1443 49.0115C21.0629 49.317 21.1102 49.6356 21.2678 49.9094C21.2705 49.9147 21.2731 49.9199 21.2757 49.9252C21.5963 50.4755 22.3242 50.6651 22.8866 50.336C22.8918 50.3333 22.8971 50.3307 22.9023 50.3281L27.212 48.2111C27.2908 48.1716 27.388 48.1821 27.4563 48.24L33.9235 53.5115L34.4149 53.2666C34.3886 53.2324 34.3676 53.1982 34.3466 53.1613L30.5651 46.5496C30.4994 46.4364 30.46 46.3152 30.4416 46.1941C30.1157 46.1309 29.4351 46.0177 28.97 45.9729C27.6272 45.8465 26.5972 46.0177 25.2911 46.5865ZM30.9567 46.3232L34.7382 52.9349C34.8144 53.0718 34.9379 53.1693 35.0851 53.2114C35.227 53.2535 35.3741 53.2377 35.5003 53.164L38.3436 51.5314L34.0024 43.7796L31.1512 45.5464C30.8832 45.6991 30.799 46.0467 30.9567 46.3232ZM25.9323 43.9139C24.9179 43.9139 23.9666 43.6295 23.1599 43.1345C21.6147 42.1919 20.5846 40.4909 20.5846 38.5529C20.5846 35.8303 22.6185 33.579 25.2438 33.2367C25.4698 33.2077 25.6984 33.1919 25.9323 33.1919C28.8833 33.1919 31.2825 35.596 31.2825 38.5529C31.2825 41.5099 28.8833 43.9139 25.9323 43.9139ZM30.8279 38.5556C30.8279 35.8514 28.631 33.6501 25.9323 33.6501C23.2335 33.6501 21.0366 35.8514 21.0366 38.5556C21.0366 41.2597 23.2335 43.461 25.9323 43.461C28.631 43.461 30.8279 41.2597 30.8279 38.5556ZM26.7337 35.7803H26.1582V34.8034C26.1582 34.677 26.0584 34.5769 25.9322 34.5769C25.8061 34.5769 25.7062 34.677 25.7062 34.8034V35.7803H25.1308C24.508 35.7803 24.0034 36.2885 24.0034 36.9099V37.6524C24.0034 38.2765 24.5106 38.782 25.1308 38.782H26.7337C27.1042 38.782 27.4091 39.0849 27.4091 39.4587V40.2013C27.4091 40.5726 27.1069 40.878 26.7337 40.878H25.1308C24.7602 40.878 24.4554 40.5752 24.4554 40.2013V39.6852C24.4554 39.5588 24.3555 39.4588 24.2294 39.4588C24.1033 39.4588 24.0034 39.5588 24.0034 39.6852V40.2013C24.0034 40.8254 24.5106 41.3309 25.1308 41.3309H25.7063V42.3078C25.7063 42.4342 25.8061 42.5342 25.9323 42.5342C26.0584 42.5342 26.1583 42.4342 26.1583 42.3078V41.3309H26.7338C27.3566 41.3309 27.8611 40.8227 27.8611 40.2013V39.4587C27.8611 38.8347 27.3539 38.3291 26.7338 38.3291H25.1308C24.7603 38.3291 24.4554 38.0263 24.4554 37.6524V36.9099C24.4554 36.5386 24.7576 36.2332 25.1308 36.2332H26.7338C27.1043 36.2332 27.4091 36.536 27.4091 36.9099V37.4075C27.4091 37.5339 27.509 37.634 27.6351 37.634C27.7612 37.634 27.8611 37.5339 27.8611 37.4075V36.9099C27.8611 36.2885 27.3566 35.7803 26.7337 35.7803ZM60.7172 45.375V55.7942C60.7172 56.5209 60.1286 57.1107 59.4033 57.1107H52.3841L52.9648 59.0618H54.3445C54.8254 59.0618 55.2169 59.4542 55.2169 59.936V60.6444C55.2169 60.7707 55.1171 60.8708 54.9909 60.8708H46.0881C45.9619 60.8708 45.8621 60.7707 45.8621 60.6444V59.936C45.8621 59.4542 46.251 59.0618 46.7345 59.0618H48.2797L48.8605 57.1107H41.8385C41.6861 57.1107 41.5442 57.0844 41.4076 57.037C40.8951 56.8579 40.522 56.3708 40.522 55.7941V45.375C40.522 44.6483 41.1133 44.0584 41.8359 44.0584H42.6085C42.5979 43.9742 42.5927 43.8899 42.5927 43.803V42.0152C42.5927 41.6202 42.9159 41.2964 43.3101 41.2964H58.0341C58.4282 41.2964 58.7515 41.6202 58.7515 42.0152V43.803C58.7515 43.8899 58.7436 43.9742 58.7357 44.0584H59.4032C60.1284 44.0584 60.7172 44.6483 60.7172 45.375ZM60.2626 45.375C60.2626 44.9011 59.8763 44.514 59.4033 44.514H58.6308C58.5257 44.8195 58.3575 45.096 58.1367 45.3224V53.8144C58.4941 53.946 58.7517 54.2883 58.7517 54.6912C58.7517 55.2073 58.3338 55.6259 57.8188 55.6259H43.5233C43.0083 55.6259 42.5905 55.2073 42.5905 54.6912C42.5905 54.2883 42.8454 53.9434 43.2054 53.8144V45.3224C42.9873 45.0959 42.8165 44.8195 42.7113 44.514H41.8336C41.3606 44.514 40.9744 44.9011 40.9744 45.375V55.7942C40.9744 56.2682 41.3606 56.6552 41.8336 56.6552H59.4032C59.8763 56.6552 60.2625 56.2681 60.2625 55.7942L60.2626 45.375ZM52.5733 59.3567L51.9085 57.1133H49.3254L48.6605 59.3567C48.6316 59.4515 48.5423 59.5173 48.4424 59.5173H46.729C46.4978 59.5173 46.3112 59.7042 46.3112 59.936V60.4178H54.76V59.936C54.76 59.7042 54.5734 59.5173 54.3422 59.5173H52.7944C52.6919 59.5173 52.6022 59.4515 52.5733 59.3567ZM44.7791 45.5436C45.7357 45.5436 46.5161 44.7642 46.5161 43.8031V41.7519H43.3075C43.1604 41.7519 43.0447 41.8704 43.0447 42.0152V43.803C43.0421 44.7615 43.8199 45.5436 44.7791 45.5436ZM58.0049 41.7519H54.8226V43.8057C54.8226 44.7642 55.6004 45.5462 56.5596 45.5462C57.5161 45.5462 58.2966 44.7668 58.2966 43.8057V42.0442C58.2966 41.8835 58.1652 41.7519 58.0049 41.7519ZM43.0421 54.6907C43.0421 54.954 43.2576 55.17 43.5204 55.17H57.8159C58.0786 55.17 58.2941 54.954 58.2941 54.6907C58.2941 54.4274 58.0787 54.2115 57.8159 54.2115H43.5204C43.2576 54.2115 43.0421 54.4274 43.0421 54.6907ZM55.125 47.9948H52.2475V53.7586H55.125V47.9948ZM57.6819 45.6829C57.3534 45.8804 56.9697 45.9962 56.5572 45.9962C55.6953 45.9962 54.9516 45.4933 54.5915 44.7666C54.2341 45.4933 53.4905 45.9962 52.6259 45.9962C51.764 45.9962 51.0203 45.4933 50.6602 44.7666C50.3029 45.4933 49.5592 45.9962 48.6946 45.9962C47.8327 45.9962 47.089 45.4933 46.729 44.7666C46.3716 45.4933 45.6279 45.9962 44.7633 45.9962C44.3534 45.9962 43.9697 45.8804 43.6386 45.6829V46.873L43.6491 53.756H51.7877V47.7657C51.7877 47.6393 51.8876 47.5393 52.0137 47.5393H55.3458C55.472 47.5393 55.5718 47.6393 55.5718 47.7657L55.5745 53.756H57.6767L57.6819 45.6829ZM54.3682 41.7517H50.8941V43.8055C50.8941 44.764 51.672 45.546 52.6311 45.546C53.5877 45.546 54.3681 44.7666 54.3681 43.8055L54.3682 41.7517ZM50.4422 41.7517H46.9682V43.8029C46.9682 44.7614 47.746 45.5433 48.7052 45.5433C49.6617 45.5433 50.4421 44.764 50.4421 43.8029L50.4422 41.7517ZM49.1072 51.3336H45.7752C45.649 51.3336 45.5492 51.2336 45.5492 51.1072V47.7684C45.5492 47.642 45.649 47.542 45.7752 47.542H49.1072C49.2334 47.542 49.3332 47.642 49.3332 47.7684V51.1072C49.3359 51.2309 49.2334 51.3336 49.1072 51.3336ZM48.8813 47.9949H46.0038V50.8781H48.8813V47.9949Z" fill="#0E875C"/>
</svg>
