<svg width="174" height="75" viewBox="0 0 174 75" fill="none" xmlns="http://www.w3.org/2000/svg">
<g filter="url(#filter0_d_1_741)">
<rect x="9" y="9" width="148" height="49" rx="24.5" fill="#0D0D0D" stroke="url(#paint0_linear_1_741)" stroke-width="2"/>
<path d="M32.75 41H31.004L26.072 28.148H27.854L31.868 39.128H31.922L35.954 28.148H37.7L32.75 41ZM40.0813 31.532V41H38.5693V31.532H40.0813ZM40.1173 27.968V29.696H38.5513V27.968H40.1173ZM49.9611 38.3C49.6971 39.128 49.2231 39.824 48.5391 40.388C47.8551 40.94 46.9071 41.216 45.6951 41.216C44.8431 41.216 44.0871 41.012 43.4271 40.604C42.7671 40.196 42.2511 39.62 41.8791 38.876C41.5191 38.12 41.3391 37.25 41.3391 36.266C41.3391 35.282 41.5191 34.418 41.8791 33.674C42.2391 32.918 42.7431 32.336 43.3911 31.928C44.0511 31.52 44.8131 31.316 45.6771 31.316C46.5171 31.316 47.2671 31.514 47.9271 31.91C48.5871 32.294 49.1031 32.858 49.4751 33.602C49.8471 34.334 50.0331 35.204 50.0331 36.212V36.626H42.8691C42.8931 37.622 43.1631 38.432 43.6791 39.056C44.1951 39.668 44.8671 39.974 45.6951 39.974C46.4631 39.974 47.0631 39.788 47.4951 39.416C47.9391 39.044 48.2511 38.606 48.4311 38.102L49.9611 38.3ZM45.6771 32.558C44.8731 32.558 44.2251 32.834 43.7331 33.386C43.2531 33.938 42.9771 34.622 42.9051 35.438H48.4851C48.4131 34.61 48.1311 33.926 47.6391 33.386C47.1471 32.834 46.4931 32.558 45.6771 32.558ZM61.1721 41H59.4981L57.1581 33.584H57.1041L54.7641 41H53.1621L49.9941 31.532H51.6681L53.9901 39.146H54.0441L56.3301 31.532H58.0581L60.3441 39.146H60.3981L62.7021 31.532H64.3041L61.1721 41ZM80.9245 41H79.3585V30.506H79.3045L75.3625 41H74.0665L70.1245 30.506H70.0705V41H68.5585V28.148H70.8805L74.7145 38.624H74.7685L78.6025 28.148H80.9245V41ZM86.7078 31.316C87.5958 31.316 88.3758 31.52 89.0478 31.928C89.7318 32.336 90.2598 32.912 90.6318 33.656C91.0038 34.4 91.1898 35.27 91.1898 36.266C91.1898 37.262 91.0038 38.132 90.6318 38.876C90.2598 39.62 89.7318 40.196 89.0478 40.604C88.3758 41.012 87.5958 41.216 86.7078 41.216C85.8198 41.216 85.0338 41.012 84.3498 40.604C83.6778 40.196 83.1558 39.62 82.7838 38.876C82.4118 38.132 82.2258 37.262 82.2258 36.266C82.2258 35.27 82.4118 34.4 82.7838 33.656C83.1558 32.912 83.6778 32.336 84.3498 31.928C85.0338 31.52 85.8198 31.316 86.7078 31.316ZM86.7078 39.974C87.5958 39.974 88.3038 39.644 88.8318 38.984C89.3718 38.312 89.6418 37.406 89.6418 36.266C89.6418 35.126 89.3718 34.226 88.8318 33.566C88.3038 32.894 87.5958 32.558 86.7078 32.558C85.8198 32.558 85.1058 32.894 84.5658 33.566C84.0378 34.226 83.7738 35.126 83.7738 36.266C83.7738 37.406 84.0378 38.312 84.5658 38.984C85.1058 39.644 85.8198 39.974 86.7078 39.974ZM93.8503 33.152H93.9043C94.1563 32.588 94.5403 32.144 95.0563 31.82C95.5843 31.484 96.1903 31.316 96.8743 31.316C97.1503 31.316 97.4203 31.34 97.6843 31.388V32.846C97.2883 32.81 96.9943 32.792 96.8023 32.792C95.9383 32.792 95.2423 33.068 94.7143 33.62C94.1863 34.16 93.9223 34.982 93.9223 36.086V41H92.4103V31.532H93.8503V33.152ZM106.809 38.3C106.545 39.128 106.071 39.824 105.387 40.388C104.703 40.94 103.755 41.216 102.543 41.216C101.691 41.216 100.935 41.012 100.275 40.604C99.6148 40.196 99.0988 39.62 98.7268 38.876C98.3668 38.12 98.1868 37.25 98.1868 36.266C98.1868 35.282 98.3668 34.418 98.7268 33.674C99.0868 32.918 99.5908 32.336 100.239 31.928C100.899 31.52 101.661 31.316 102.525 31.316C103.365 31.316 104.115 31.514 104.775 31.91C105.435 32.294 105.951 32.858 106.323 33.602C106.695 34.334 106.881 35.204 106.881 36.212V36.626H99.7168C99.7408 37.622 100.011 38.432 100.527 39.056C101.043 39.668 101.715 39.974 102.543 39.974C103.311 39.974 103.911 39.788 104.343 39.416C104.787 39.044 105.099 38.606 105.279 38.102L106.809 38.3ZM102.525 32.558C101.721 32.558 101.073 32.834 100.581 33.386C100.101 33.938 99.8248 34.622 99.7528 35.438H105.333C105.261 34.61 104.979 33.926 104.487 33.386C103.995 32.834 103.341 32.558 102.525 32.558Z" fill="white"/>
<circle cx="129.5" cy="34.5" r="11.5" transform="rotate(-90 129.5 34.5)" fill="white"/>
<path d="M135.859 34.4993L129.297 41.061L128.35 40.114L133.965 34.4993L128.35 28.8846L129.297 27.9375L135.859 34.4993Z" fill="url(#paint1_linear_1_741)"/>
<path d="M123.412 35.1757V33.8228H134.912V35.1757H123.412Z" fill="url(#paint2_linear_1_741)"/>
</g>
<defs>
<filter id="filter0_d_1_741" x="0" y="0" width="174" height="75" filterUnits="userSpaceOnUse" color-interpolation-filters="sRGB">
<feFlood flood-opacity="0" result="BackgroundImageFix"/>
<feColorMatrix in="SourceAlpha" type="matrix" values="0 0 0 0 0 0 0 0 0 0 0 0 0 0 0 0 0 0 127 0" result="hardAlpha"/>
<feOffset dx="4" dy="4"/>
<feGaussianBlur stdDeviation="6"/>
<feComposite in2="hardAlpha" operator="out"/>
<feColorMatrix type="matrix" values="0 0 0 0 0 0 0 0 0 0 0 0 0 0 0 0 0 0 0.15 0"/>
<feBlend mode="normal" in2="BackgroundImageFix" result="effect1_dropShadow_1_741"/>
<feBlend mode="normal" in="SourceGraphic" in2="effect1_dropShadow_1_741" result="shape"/>
</filter>
<linearGradient id="paint0_linear_1_741" x1="8" y1="33.5" x2="158" y2="33.5" gradientUnits="userSpaceOnUse">
<stop stop-color="#33FCFE"/>
<stop offset="1" stop-color="#010B66"/>
</linearGradient>
<linearGradient id="paint1_linear_1_741" x1="129.636" y1="27.9375" x2="129.636" y2="41.061" gradientUnits="userSpaceOnUse">
<stop stop-color="#33FAFD"/>
<stop offset="1" stop-color="#020D67"/>
</linearGradient>
<linearGradient id="paint2_linear_1_741" x1="129.636" y1="27.9375" x2="129.636" y2="41.061" gradientUnits="userSpaceOnUse">
<stop stop-color="#33FAFD"/>
<stop offset="1" stop-color="#020D67"/>
</linearGradient>
</defs>
</svg>
