<svg width="274" height="109" viewBox="0 0 274 109" fill="none" xmlns="http://www.w3.org/2000/svg">
<g filter="url(#filter0_d_1_2437)">
<rect x="9" y="9" width="248" height="83" rx="41.5" fill="#0D0D0D" stroke="url(#paint0_linear_1_2437)" stroke-width="2"/>
<path d="M45.25 62H42.34L34.12 40.58H37.09L43.78 58.88H43.87L50.59 40.58H53.5L45.25 62ZM57.4689 46.22V62H54.9489V46.22H57.4689ZM57.5289 40.28V43.16H54.9189V40.28H57.5289ZM73.9352 57.5C73.4952 58.88 72.7052 60.04 71.5652 60.98C70.4252 61.9 68.8452 62.36 66.8252 62.36C65.4052 62.36 64.1452 62.02 63.0452 61.34C61.9452 60.66 61.0852 59.7 60.4652 58.46C59.8652 57.2 59.5652 55.75 59.5652 54.11C59.5652 52.47 59.8652 51.03 60.4652 49.79C61.0652 48.53 61.9052 47.56 62.9852 46.88C64.0852 46.2 65.3552 45.86 66.7952 45.86C68.1952 45.86 69.4452 46.19 70.5452 46.85C71.6452 47.49 72.5052 48.43 73.1252 49.67C73.7452 50.89 74.0552 52.34 74.0552 54.02V54.71H62.1152C62.1552 56.37 62.6052 57.72 63.4652 58.76C64.3252 59.78 65.4452 60.29 66.8252 60.29C68.1052 60.29 69.1052 59.98 69.8252 59.36C70.5652 58.74 71.0852 58.01 71.3852 57.17L73.9352 57.5ZM66.7952 47.93C65.4552 47.93 64.3752 48.39 63.5552 49.31C62.7552 50.23 62.2952 51.37 62.1752 52.73H71.4752C71.3552 51.35 70.8852 50.21 70.0652 49.31C69.2452 48.39 68.1552 47.93 66.7952 47.93ZM92.6202 62H89.8302L85.9302 49.64H85.8402L81.9402 62H79.2702L73.9902 46.22H76.7802L80.6502 58.91H80.7402L84.5502 46.22H87.4302L91.2402 58.91H91.3302L95.1702 46.22H97.8402L92.6202 62ZM125.541 62H122.931V44.51H122.841L116.271 62H114.111L107.541 44.51H107.451V62H104.931V40.58H108.801L115.191 58.04H115.281L121.671 40.58H125.541V62ZM135.18 45.86C136.66 45.86 137.96 46.2 139.08 46.88C140.22 47.56 141.1 48.52 141.72 49.76C142.34 51 142.65 52.45 142.65 54.11C142.65 55.77 142.34 57.22 141.72 58.46C141.1 59.7 140.22 60.66 139.08 61.34C137.96 62.02 136.66 62.36 135.18 62.36C133.7 62.36 132.39 62.02 131.25 61.34C130.13 60.66 129.26 59.7 128.64 58.46C128.02 57.22 127.71 55.77 127.71 54.11C127.71 52.45 128.02 51 128.64 49.76C129.26 48.52 130.13 47.56 131.25 46.88C132.39 46.2 133.7 45.86 135.18 45.86ZM135.18 60.29C136.66 60.29 137.84 59.74 138.72 58.64C139.62 57.52 140.07 56.01 140.07 54.11C140.07 52.21 139.62 50.71 138.72 49.61C137.84 48.49 136.66 47.93 135.18 47.93C133.7 47.93 132.51 48.49 131.61 49.61C130.73 50.71 130.29 52.21 130.29 54.11C130.29 56.01 130.73 57.52 131.61 58.64C132.51 59.74 133.7 60.29 135.18 60.29ZM147.084 48.92H147.174C147.594 47.98 148.234 47.24 149.094 46.7C149.974 46.14 150.984 45.86 152.124 45.86C152.584 45.86 153.034 45.9 153.474 45.98V48.41C152.814 48.35 152.324 48.32 152.004 48.32C150.564 48.32 149.404 48.78 148.524 49.7C147.644 50.6 147.204 51.97 147.204 53.81V62H144.684V46.22H147.084V48.92ZM168.681 57.5C168.241 58.88 167.451 60.04 166.311 60.98C165.171 61.9 163.591 62.36 161.571 62.36C160.151 62.36 158.891 62.02 157.791 61.34C156.691 60.66 155.831 59.7 155.211 58.46C154.611 57.2 154.311 55.75 154.311 54.11C154.311 52.47 154.611 51.03 155.211 49.79C155.811 48.53 156.651 47.56 157.731 46.88C158.831 46.2 160.101 45.86 161.541 45.86C162.941 45.86 164.191 46.19 165.291 46.85C166.391 47.49 167.251 48.43 167.871 49.67C168.491 50.89 168.801 52.34 168.801 54.02V54.71H156.861C156.901 56.37 157.351 57.72 158.211 58.76C159.071 59.78 160.191 60.29 161.571 60.29C162.851 60.29 163.851 59.98 164.571 59.36C165.311 58.74 165.831 58.01 166.131 57.17L168.681 57.5ZM161.541 47.93C160.201 47.93 159.121 48.39 158.301 49.31C157.501 50.23 157.041 51.37 156.921 52.73H166.221C166.101 51.35 165.631 50.21 164.811 49.31C163.991 48.39 162.901 47.93 161.541 47.93Z" fill="white"/>
<circle cx="213.5" cy="50.5" r="19.5" transform="rotate(-90 213.5 50.5)" fill="white"/>
<path d="M224.284 50.4993L213.157 61.6257L211.551 60.0198L221.072 50.4993L211.551 40.9787L213.157 39.3728L224.284 50.4993Z" fill="url(#paint1_linear_1_2437)"/>
<path d="M203.178 51.6463V49.3522H222.678V51.6463H203.178Z" fill="url(#paint2_linear_1_2437)"/>
</g>
<defs>
<filter id="filter0_d_1_2437" x="0" y="0" width="274" height="109" filterUnits="userSpaceOnUse" color-interpolation-filters="sRGB">
<feFlood flood-opacity="0" result="BackgroundImageFix"/>
<feColorMatrix in="SourceAlpha" type="matrix" values="0 0 0 0 0 0 0 0 0 0 0 0 0 0 0 0 0 0 127 0" result="hardAlpha"/>
<feOffset dx="4" dy="4"/>
<feGaussianBlur stdDeviation="6"/>
<feComposite in2="hardAlpha" operator="out"/>
<feColorMatrix type="matrix" values="0 0 0 0 0 0 0 0 0 0 0 0 0 0 0 0 0 0 0.15 0"/>
<feBlend mode="normal" in2="BackgroundImageFix" result="effect1_dropShadow_1_2437"/>
<feBlend mode="normal" in="SourceGraphic" in2="effect1_dropShadow_1_2437" result="shape"/>
</filter>
<linearGradient id="paint0_linear_1_2437" x1="8" y1="50.5" x2="258" y2="50.5" gradientUnits="userSpaceOnUse">
<stop stop-color="#33FCFE"/>
<stop offset="1" stop-color="#010B66"/>
</linearGradient>
<linearGradient id="paint1_linear_1_2437" x1="213.731" y1="39.3728" x2="213.731" y2="61.6257" gradientUnits="userSpaceOnUse">
<stop stop-color="#33FAFD"/>
<stop offset="1" stop-color="#020D67"/>
</linearGradient>
<linearGradient id="paint2_linear_1_2437" x1="213.731" y1="39.3728" x2="213.731" y2="61.6257" gradientUnits="userSpaceOnUse">
<stop stop-color="#33FAFD"/>
<stop offset="1" stop-color="#020D67"/>
</linearGradient>
</defs>
</svg>
