<svg width="131" height="122" viewBox="0 0 131 122" fill="none" xmlns="http://www.w3.org/2000/svg">
<path d="M72.8692 0.153613C41.3443 -2.26865 8.04208 24.2389 1.06359 59.6538C-5.9149 95.0687 22.6054 116.221 52.728 120.902C86.344 126.127 126.813 113.028 130.666 74.5279C134.519 36.0284 104.394 2.57588 72.8692 0.153613Z" fill="#CFFFEE"/>
<g clip-path="url(#clip0_1_1910)">
<path d="M44 43H47V46C47 46.552 47.447 47 48 47C48.553 47 49 46.552 49 46V43H52C52.553 43 53 42.552 53 42C53 41.448 52.553 41 52 41H49V38C49 37.448 48.553 37 48 37C47.447 37 47 37.448 47 38V41H44C43.447 41 43 41.448 43 42C43 42.552 43.447 43 44 43Z" fill="black"/>
<path d="M50 53H46C45.447 53 45 53.448 45 54C45 54.552 45.447 55 46 55H50C50.553 55 51 54.552 51 54C51 53.448 50.553 53 50 53Z" fill="black"/>
<path d="M44 51H52C52.553 51 53 50.552 53 50C53 49.448 52.553 49 52 49H44C43.447 49 43 49.448 43 50C43 50.552 43.447 51 44 51Z" fill="black"/>
<path d="M97 93H96V44C96 43.448 95.553 43 95 43H60V32C60 31.448 59.553 31 59 31H37C36.447 31 36 31.448 36 32V93H35C34.447 93 34 93.448 34 94C34 94.552 34.447 95 35 95H97C97.553 95 98 94.552 98 94C98 93.448 97.553 93 97 93ZM60 85H70V93H60V85ZM72 85H82V93H72V85ZM82 55V63H72V55H82ZM72 53V45H82V53H72ZM94 75V83H84V75H94ZM84 73V65H94V73H84ZM94 63H84V55H94V63ZM70 63H60V55H70V63ZM60 65H70V73H60V65ZM72 65H82V73H72V65ZM82 75V83H72V75H82ZM84 85H94V93H84V85ZM94 53H84V45H94V53ZM70 45V53H60V45H70ZM38 33H58V76C58 76.552 58.447 77 59 77C59.553 77 60 76.552 60 76V75H70V83H60V80C60 79.448 59.553 79 59 79C58.447 79 58 79.448 58 80V93H54V84C54 83.448 53.553 83 53 83H43C42.447 83 42 83.448 42 84V93H38V33ZM52 93H44V85H52V93Z" fill="black"/>
</g>
<defs>
<clipPath id="clip0_1_1910">
<rect width="64" height="80" fill="white" transform="translate(34 31)"/>
</clipPath>
</defs>
</svg>
