<svg width="131" height="124" viewBox="0 0 131 124" fill="none" xmlns="http://www.w3.org/2000/svg">
<path d="M72.8692 0.153613C41.3443 -2.26865 8.04208 24.2389 1.06359 59.6538C-5.9149 95.0687 22.6054 116.221 52.728 120.902C86.344 126.127 126.813 113.028 130.666 74.5279C134.519 36.0284 104.394 2.57588 72.8692 0.153613Z" fill="#FFF4D5"/>
<path fill-rule="evenodd" clip-rule="evenodd" d="M96.1523 90.8626C95.546 90.2563 94.7085 89.8813 93.7804 89.8813C92.8555 89.8813 92.0179 90.2563 91.4086 90.8626C90.8023 91.4688 90.4273 92.3063 90.4273 93.2344C90.4273 94.1594 90.8023 94.9969 91.4086 95.6062C92.0148 96.2125 92.8523 96.5875 93.7804 96.5875C94.7054 96.5875 95.5429 96.2125 96.1523 95.6062C96.7585 95 97.1335 94.1625 97.1335 93.2344C97.1335 92.3094 96.7585 91.4719 96.1523 90.8626ZM91.3023 83.6063C90.7741 83.6063 90.3429 83.1782 90.3429 82.647C90.3429 82.1188 90.771 81.6876 91.3023 81.6876H93.171C93.6991 81.6876 94.1303 82.1157 94.1303 82.647C94.1303 83.1751 93.7022 83.6063 93.171 83.6063H91.3023ZM55.9647 90.8626C55.3584 90.2563 54.5209 89.8813 53.5928 89.8813C52.6679 89.8813 51.8303 90.2563 51.221 90.8626C50.6147 91.4688 50.2397 92.3063 50.2397 93.2344C50.2397 94.1594 50.6147 94.9969 51.221 95.6062C51.8272 96.2125 52.6647 96.5875 53.5928 96.5875C54.5178 96.5875 55.3553 96.2125 55.9647 95.6062C56.5709 95 56.9459 94.1625 56.9459 93.2344C56.9459 92.3094 56.5709 91.4719 55.9647 90.8626ZM48.4991 91.8844H43.6928V93.3313H48.3272V93.2313C48.3272 92.7657 48.3866 92.3157 48.5022 91.8844H48.4991ZM103.983 79.806C103.683 78.0216 102.702 75.5685 101.349 73.3466C98.6549 73.4029 96.0424 73.4623 94.7393 73.4904C94.4549 73.4966 94.3987 72.6779 94.4081 73.0873C94.4081 73.1091 94.4143 73.2123 94.4206 73.331L94.4299 73.5279C94.4518 73.9654 94.4643 74.6185 94.4706 75.3061C94.4768 76.1561 94.4737 77.0436 94.4643 77.6185V77.6685C94.4581 77.881 94.458 77.8873 95.5737 78.1217C97.1612 78.4529 100.483 79.1154 103.986 79.8123L103.983 79.806ZM86.7831 64.0556V66.24H93.3237C92.6143 65.3775 91.5487 64.8556 90.4237 64.54C89.1831 64.1931 87.8519 64.0869 86.7831 64.0556ZM86.7831 93.3276V68.1492H95.3487V68.1523C96.9111 68.1523 98.5924 69.5523 100.064 71.4648C97.8361 71.5117 95.8049 71.5554 94.7018 71.5804C92.7205 71.6242 92.4643 71.6336 92.4987 73.1242C92.5018 73.2617 92.508 73.3398 92.5112 73.4336L92.5205 73.6148C92.5424 74.0617 92.5549 74.6835 92.5612 75.3179C92.5674 76.1461 92.5643 77.0179 92.5549 77.5835V77.6335C92.5237 79.3617 92.5237 79.4304 95.1831 79.9867C97.1049 80.3898 100.539 81.0711 104.077 81.7742V92.4678C104.077 92.7022 103.98 92.9178 103.824 93.074C103.667 93.2303 103.455 93.3272 103.217 93.3272H99.0391V93.2272C99.0391 91.774 98.4485 90.4553 97.4954 89.5022C96.5422 88.5491 95.2235 87.9584 93.7704 87.9584C92.3142 87.9584 90.9986 88.5491 90.0455 89.5022C89.0923 90.4553 88.5017 91.774 88.5017 93.2272V93.3272H86.7735L86.7831 93.3276ZM58.8615 93.3276H84.8679V91.8807H58.6863C58.7988 92.3089 58.8613 92.762 58.8613 93.2276L58.8615 93.3276ZM46.3335 50.7772H42.0959V55.0147H46.3335V50.7772ZM41.1397 48.8616H47.2928C47.8209 48.8616 48.2522 49.2897 48.2522 49.821V55.9741C48.2522 56.5022 47.824 56.9334 47.2928 56.9334H41.1397C40.6116 56.9334 40.1803 56.5053 40.1803 55.9741V49.821C40.1803 49.2928 40.6085 48.8616 41.1397 48.8616ZM58.8901 50.7772H54.6526V55.0147H58.8901V50.7772ZM53.6963 48.8616H59.8495C60.3776 48.8616 60.8088 49.2897 60.8088 49.821V55.9741C60.8088 56.5022 60.3807 56.9334 59.8495 56.9334H53.6963C53.1682 56.9334 52.737 56.5053 52.737 55.9741V49.821C52.737 49.2928 53.1651 48.8616 53.6963 48.8616ZM71.4467 50.7772H67.2092V55.0147H71.4467V50.7772ZM66.253 48.8616H72.4061C72.9342 48.8616 73.3655 49.2897 73.3655 49.821V55.9741C73.3655 56.1522 73.3186 56.3178 73.2342 56.4585C73.0686 56.7428 72.7592 56.9303 72.4093 56.9303H66.2561C65.7624 56.9303 65.353 56.5553 65.303 56.0741C65.2999 56.0428 65.2968 56.0085 65.2968 55.9741V49.821C65.2968 49.2928 65.7249 48.8616 66.2561 48.8616L66.253 48.8616ZM43.6906 61.4832H42.0999V65.7207H43.6906V61.4832ZM43.6906 67.6363V71.6238H36.6031C36.4156 71.6238 36.2468 71.5457 36.1218 71.4207C35.9968 71.2957 35.9187 71.127 35.9187 70.9395L35.9156 44.5923H77.6284V59.5675H44.6444H41.1412C40.6131 59.5675 40.1819 59.9956 40.1819 60.5268V66.68C40.1819 67.2081 40.61 67.6393 41.1412 67.6393H43.6881L43.6906 67.6363ZM66.253 61.4832H72.4092H78.5905H84.8749V89.9672H57.7373C57.6092 89.8047 57.4717 89.6516 57.3248 89.5047C56.3717 88.5516 55.053 87.9609 53.5998 87.9609C52.1436 87.9609 50.828 88.5516 49.8749 89.5047C49.728 89.6516 49.5905 89.8047 49.4624 89.9672H45.6061V61.4832H47.2968H53.6937H53.6968H59.8499H59.853H66.2499H66.253ZM43.9778 31.4144C43.5778 31.4144 43.2122 31.58 42.9465 31.8457C42.6809 32.1113 42.5153 32.4769 42.5153 32.8769V36.2738C42.5153 36.6738 42.6809 37.0394 42.9434 37.3051C43.209 37.5707 43.5746 37.7363 43.9747 37.7363C44.3747 37.7363 44.7403 37.5707 45.0059 37.3051C45.2716 37.0395 45.4372 36.6738 45.4372 36.2738V34.6145V34.6113V32.8769C45.4372 32.4769 45.2716 32.1113 45.0059 31.8456C44.7403 31.58 44.3747 31.4144 43.9747 31.4144L43.9778 31.4144ZM69.565 31.4144C69.165 31.4144 68.7994 31.58 68.5337 31.8457C68.2681 32.1113 68.1025 32.4769 68.1025 32.8769V36.2738C68.1025 36.6738 68.2681 37.0394 68.5337 37.3051C68.7993 37.5707 69.165 37.7363 69.565 37.7363C69.965 37.7363 70.3306 37.5707 70.5963 37.3051C70.8619 37.0395 71.0275 36.6738 71.0275 36.2738V34.6145V34.6113V32.8769C71.0275 32.4769 70.8619 32.1113 70.5963 31.8456C70.3306 31.58 69.965 31.4144 69.565 31.4144ZM72.9431 35.5706H76.9463C77.1338 35.5706 77.3025 35.6488 77.4275 35.7738C77.5525 35.8988 77.6306 36.0675 77.6306 36.255V42.6769L35.9146 42.68V36.2581C35.9146 36.0706 35.9928 35.9019 36.1178 35.7769C36.2428 35.6519 36.4115 35.5738 36.599 35.5738H40.6021V36.2769C40.6021 37.2051 40.9834 38.0519 41.5928 38.6644C42.2053 39.2769 43.049 39.6551 43.9803 39.6551C44.9085 39.6551 45.7553 39.2738 46.3678 38.6644C46.9803 38.0519 47.3585 37.2082 47.3585 36.2769V35.5738H66.1897V36.2769C66.1897 37.2051 66.5709 38.0519 67.1803 38.6644C67.7928 39.2769 68.6365 39.6551 69.5678 39.6551C70.496 39.6551 71.3429 39.2738 71.9553 38.6644C72.5678 38.0519 72.946 37.2082 72.946 36.2769V35.5738L72.9431 35.5706ZM69.565 29.4956C70.4931 29.4956 71.34 29.8769 71.9525 30.4862C72.565 31.0987 72.9431 31.9425 72.9431 32.8738V33.655H76.9463C77.6619 33.655 78.3119 33.9456 78.7838 34.4175C79.2557 34.8894 79.5463 35.5394 79.5463 36.255V59.5678H85.8307C86.3588 59.5678 86.79 59.996 86.79 60.5272V62.1428C87.9713 62.174 89.4807 62.2928 90.9463 62.7022C92.8712 63.2428 94.6807 64.2772 95.5744 66.2459C97.9276 66.3647 100.228 68.3678 102.062 70.9522C104.365 74.1928 105.999 78.4335 105.999 80.8306V92.4746C105.999 93.2371 105.687 93.9308 105.184 94.4339C104.681 94.9371 103.987 95.2495 103.225 95.2495H98.6495C98.3807 95.8933 97.9901 96.4745 97.5057 96.9589C96.5526 97.912 95.2339 98.5027 93.7808 98.5027C92.3245 98.5027 91.0089 97.912 90.0558 96.9589C89.5714 96.4745 89.1776 95.8933 88.912 95.2495H58.4648C58.1961 95.8933 57.8055 96.4745 57.3211 96.9589C56.368 97.912 55.0492 98.5027 53.5961 98.5027C52.1399 98.5027 50.8243 97.912 49.8712 96.9589C49.3868 96.4745 48.993 95.8933 48.7274 95.2495H42.7368C42.2086 95.2495 41.7774 94.8214 41.7774 94.2902V90.9277C41.7774 90.3996 42.2055 89.9683 42.7368 89.9683H43.6868V73.5435H36.5992C35.8836 73.5435 35.2336 73.2529 34.7617 72.781C34.2898 72.3092 33.9992 71.6592 33.9992 70.9435L33.9961 36.2563C33.9961 35.5407 34.2867 34.8907 34.7586 34.4188C35.2305 33.9469 35.8804 33.6563 36.5961 33.6563H40.5992V32.875C40.5992 31.9469 40.9805 31.1 41.5899 30.4875C42.2024 29.875 43.0461 29.4969 43.9774 29.4969C44.9056 29.4969 45.7524 29.8781 46.3649 30.4875C46.9774 31.1 47.3555 31.9438 47.3555 32.875V33.6563H66.1868V32.875C66.1868 31.9469 66.568 31.1 67.1774 30.4875C67.7899 29.875 68.6336 29.4969 69.5649 29.4969L69.565 29.4956ZM56.9866 64.6172C56.4584 64.6172 56.0272 65.0453 56.0272 65.5766V82.0734C56.0272 82.6015 56.4553 83.0327 56.9866 83.0327H73.4834C74.0115 83.0327 74.4427 82.6046 74.4427 82.0734V65.5766C74.4427 65.0484 74.0146 64.6172 73.4834 64.6172H56.9866ZM63.7303 66.5328V70.2953L64.6147 69.5578C64.9616 69.2609 65.4835 69.2484 65.846 69.5484L66.7429 70.2953V66.5328L63.7303 66.5328ZM68.6585 66.5328V72.3359C68.6585 72.8641 68.2304 73.2953 67.6991 73.2953C67.4335 73.2953 67.196 73.189 67.021 73.014L65.2335 71.5265L63.3804 73.0703C62.9741 73.4078 62.3741 73.3515 62.0366 72.9484C61.8897 72.7703 61.8147 72.5547 61.8147 72.339H61.8116V66.5359H57.9429V81.1175H72.5245V66.5359H68.6558L68.6585 66.5328Z" fill="black"/>
</svg>
