<svg width="131" height="122" viewBox="0 0 131 122" fill="none" xmlns="http://www.w3.org/2000/svg">
<path d="M72.8692 0.153613C41.3443 -2.26865 8.04208 24.2389 1.06359 59.6538C-5.9149 95.0687 22.6054 116.221 52.728 120.902C86.344 126.127 126.813 113.028 130.666 74.5279C134.519 36.0284 104.394 2.57588 72.8692 0.153613Z" fill="#EEDFFF"/>
<g clip-path="url(#clip0_398_4)">
<path d="M88.5 73.8996V62.5996C88.5 61.4996 87.6 60.5996 86.5 60.5996H73.2H58.8H45.5C44.4 60.5996 43.5 61.4996 43.5 62.5996V73.9996C39.9 74.2996 37 77.2996 37 80.9996C37 84.8996 40.2 88.0996 44.1 88.0996H87.9C91.8 88.0996 95 84.8996 95 80.9996C95 77.2996 92.1 74.2996 88.5 73.8996ZM86.5 62.5996V73.8996H74.2V62.5996H76.8V66.3996C76.8 66.7996 77 67.1996 77.3 67.3996C77.5 67.4996 77.7 67.5996 78 67.5996C78.2 67.5996 78.3 67.5996 78.5 67.4996L80.4 66.6996L82.3 67.4996C82.7 67.6996 83.1 67.5996 83.4 67.3996C83.7 67.1996 83.9 66.7996 83.9 66.3996V62.5996H86.5ZM59.8 73.8996V62.5996H62.4V66.3996C62.4 66.7996 62.6 67.1996 62.9 67.3996C63.1 67.4996 63.3 67.5996 63.6 67.5996C63.8 67.5996 63.9 67.5996 64.1 67.4996L66 66.6996L67.9 67.4996C68.3 67.6996 68.7 67.5996 69 67.3996C69.3 67.1996 69.5 66.7996 69.5 66.3996V62.5996H72.1V73.8996H59.8ZM64.4 62.5996H67.5V65.1996L66.4 64.6996C66.1 64.5996 65.8 64.5996 65.5 64.6996L64.4 65.1996V62.5996ZM78.8 62.5996H81.9V65.1996L80.8 64.6996C80.5 64.5996 80.2 64.5996 79.9 64.6996L78.8 65.1996V62.5996ZM50.1 62.5996H53.2V65.1996L52.1 64.6996C51.8 64.5996 51.5 64.5996 51.2 64.6996L50.1 65.1996V62.5996ZM48.1 62.5996V66.3996C48.1 66.7996 48.3 67.1996 48.6 67.3996C48.8 67.4996 49 67.5996 49.3 67.5996C49.5 67.5996 49.6 67.5996 49.8 67.4996L51.7 66.6996L53.6 67.4996C54 67.6996 54.4 67.5996 54.7 67.3996C55 67.1996 55.2 66.7996 55.2 66.3996V62.5996H57.8V73.8996H45.5V62.5996H48.1ZM87.9 86.1996H44.1C41.3 86.1996 39 83.8996 39 80.9996C39 78.0996 41.3 75.8996 44.1 75.8996H87.9C90.7 75.8996 93 78.1996 93 80.9996C93 83.7996 90.7 86.1996 87.9 86.1996Z" fill="black"/>
<path d="M44.3 77.6997C42.5 77.6997 41 79.1997 41 80.9997C41 82.7997 42.5 84.3997 44.4 84.3997C46.3 84.3997 47.8 82.8997 47.8 80.9997C47.8 79.0997 46.2 77.6997 44.3 77.6997ZM44.3 82.3997C43.6 82.3997 43 81.7997 43 80.9997C43 80.2997 43.6 79.5997 44.4 79.5997C45.2 79.5997 45.8 80.1997 45.8 80.9997C45.7 81.7997 45.1 82.3997 44.3 82.3997Z" fill="black"/>
<path d="M87.5992 77.6997C85.7992 77.6997 84.1992 79.1997 84.1992 81.0997C84.1992 82.9997 85.6992 84.4997 87.5992 84.4997C89.4992 84.4997 90.9992 82.8997 90.9992 80.9997C90.9992 79.0997 89.4992 77.6997 87.5992 77.6997ZM87.5992 82.3997C86.8992 82.3997 86.1992 81.7997 86.1992 80.9997C86.1992 80.2997 86.7992 79.5997 87.5992 79.5997C88.2992 79.5997 88.9992 80.1997 88.9992 80.9997C88.9992 81.7997 88.3992 82.3997 87.5992 82.3997Z" fill="black"/>
<path d="M76.8004 77.6997C75.0004 77.6997 73.4004 79.1997 73.4004 81.0997C73.4004 82.9997 74.9004 84.4997 76.8004 84.4997C78.7004 84.4997 80.2004 82.9997 80.2004 81.0997C80.2004 79.1997 78.7004 77.6997 76.8004 77.6997ZM76.8004 82.3997C76.1004 82.3997 75.4004 81.7997 75.4004 80.9997C75.4004 80.2997 76.0004 79.5997 76.8004 79.5997C77.6004 79.5997 78.2004 80.1997 78.2004 80.9997C78.2004 81.7997 77.6004 82.3997 76.8004 82.3997Z" fill="black"/>
<path d="M65.9996 77.6997C64.1996 77.6997 62.5996 79.1997 62.5996 81.0997C62.5996 82.9997 64.0996 84.4997 65.9996 84.4997C67.8996 84.4997 69.3996 82.9997 69.3996 81.0997C69.3996 79.1997 67.7996 77.6997 65.9996 77.6997ZM65.9996 82.3997C65.2996 82.3997 64.5996 81.7997 64.5996 80.9997C64.5996 80.2997 65.1996 79.5997 65.9996 79.5997C66.6996 79.5997 67.3996 80.1997 67.3996 80.9997C67.2996 81.7997 66.6996 82.3997 65.9996 82.3997Z" fill="black"/>
<path d="M55.0992 77.6997C53.2992 77.6997 51.6992 79.1997 51.6992 81.0997C51.6992 82.9997 53.1992 84.4997 55.0992 84.4997C56.9992 84.4997 58.4992 82.9997 58.4992 81.0997C58.4992 79.1997 56.9992 77.6997 55.0992 77.6997ZM55.0992 82.3997C54.3992 82.3997 53.6992 81.7997 53.6992 80.9997C53.6992 80.2997 54.2992 79.5997 55.0992 79.5997C55.7992 79.5997 56.4992 80.1997 56.4992 80.9997C56.4992 81.7997 55.8992 82.3997 55.0992 82.3997Z" fill="black"/>
<path d="M38 39.7998H65V43.8998C63.7 44.2998 62.7 45.5998 62.7 47.0998C62.7 47.4998 62.8 47.7998 62.9 48.1998L60.2 50.1998C59.8 50.4998 59.6 50.8998 59.6 51.3998V56.1998C59.6 56.7998 60 57.1998 60.6 57.1998C61.2 57.1998 61.6 56.7998 61.6 56.1998V51.5998L64.1 49.7998C64.7 50.1998 65.3 50.4998 66.1 50.4998C66.8 50.4998 67.5 50.2998 68.1 49.7998L70.6 51.5998V56.1998C70.6 56.7998 71 57.1998 71.6 57.1998C72.2 57.1998 72.6 56.7998 72.6 56.1998V51.3998C72.6 50.8998 72.4 50.4998 72 50.1998L69.3 48.1998C69.4 47.8998 69.5 47.4998 69.5 47.0998C69.5 45.5998 68.5 44.3998 67.2 43.8998V39.7998H94.2C94.8 39.7998 95.2 39.3998 95.2 38.7998C95.2 38.1998 94.8 37.7998 94.2 37.7998H38C37.4 37.7998 37 38.1998 37 38.7998C37 39.3998 37.4 39.7998 38 39.7998ZM66 48.3998C65.3 48.3998 64.7 47.7998 64.7 47.0998C64.7 46.3998 65.3 45.7998 66 45.7998C66.7 45.7998 67.3 46.3998 67.3 47.0998C67.3 47.7998 66.7 48.3998 66 48.3998Z" fill="black"/>
</g>
<defs>
<clipPath id="clip0_398_4">
<rect width="64" height="80" fill="white" transform="translate(34 31)"/>
</clipPath>
</defs>
</svg>
