<svg width="131" height="122" viewBox="0 0 131 122" fill="none" xmlns="http://www.w3.org/2000/svg">
<path d="M72.8692 0.153613C41.3443 -2.26865 8.04208 24.2389 1.06359 59.6538C-5.9149 95.0687 22.6054 116.221 52.728 120.902C86.344 126.127 126.813 113.028 130.666 74.5279C134.519 36.0284 104.394 2.57588 72.8692 0.153613Z" fill="#FFE7D5"/>
<g clip-path="url(#clip0_1_1891)">
<path fill-rule="evenodd" clip-rule="evenodd" d="M96.362 38.421C96.4115 38.097 96.317 37.7662 96.1033 37.5165C95.8895 37.269 95.579 37.125 95.2505 37.125H48.32C47.9938 37.125 47.6833 37.2667 47.4695 37.512C47.2558 37.7595 47.1613 38.0858 47.2063 38.4098L51.3868 67.6597C51.4655 68.2132 51.9403 68.625 52.5005 68.625H86.8895C89.666 68.625 92.0263 66.6 92.4493 63.855C93.6688 55.9305 96.362 38.421 96.362 38.421ZM93.9388 39.375L90.2263 63.513C89.972 65.16 88.5568 66.375 86.8895 66.375H53.477L49.6183 39.375H93.9388Z" fill="black"/>
<path fill-rule="evenodd" clip-rule="evenodd" d="M66.387 66.3975L66.3442 66.393C66.2318 66.3817 66.117 66.375 66 66.375H53.2043L49.0958 35.5545C48.8708 33.8783 47.442 32.625 45.75 32.625H39C37.137 32.625 35.625 34.137 35.625 36C35.625 37.863 37.137 39.375 39 39.375H42.7957L46.5578 67.5923L39.162 70.551C37.0245 71.4038 35.625 73.4738 35.625 75.7733V78.75C35.625 81.8573 38.1427 84.375 41.25 84.375H93C94.863 84.375 96.375 82.863 96.375 81C96.375 79.137 94.863 77.625 93 77.625H42.375V76.536L50.9002 73.125H66C67.863 73.125 69.375 71.613 69.375 69.75C69.375 68.0175 68.0678 66.5887 66.387 66.3975ZM66.1373 68.6318L66.2587 68.6408L66.1305 68.6318C66.6908 68.697 67.125 69.174 67.125 69.75C67.125 70.371 66.621 70.875 66 70.875H50.6842C50.5402 70.875 50.3985 70.902 50.2657 70.956L40.8315 74.7292C40.404 74.9002 40.125 75.3143 40.125 75.7733V78.75C40.125 79.371 40.629 79.875 41.25 79.875H93C93.621 79.875 94.125 80.379 94.125 81C94.125 81.621 93.621 82.125 93 82.125C93 82.125 51.4672 82.125 41.25 82.125C39.387 82.125 37.875 80.613 37.875 78.75V75.7733C37.875 74.394 38.7142 73.152 39.9967 72.639L48.207 69.3563C48.684 69.165 48.972 68.6722 48.9045 68.1637L44.895 38.1015C44.8207 37.5435 44.3438 37.125 43.779 37.125H39C38.379 37.125 37.875 36.621 37.875 36C37.875 35.379 38.379 34.875 39 34.875H45.75C46.3147 34.875 46.7895 35.2935 46.866 35.8515L51.105 67.6485C51.1793 68.2065 51.6562 68.625 52.221 68.625H66L66.1373 68.6318Z" fill="black"/>
<path fill-rule="evenodd" clip-rule="evenodd" d="M76.1383 38.0788L71.6383 67.3288C71.5438 67.943 71.9645 68.5168 72.5788 68.6113C73.193 68.7058 73.7668 68.285 73.8613 67.6708L78.3613 38.4208C78.4558 37.8065 78.035 37.2328 77.4208 37.1383C76.8065 37.0438 76.2328 37.4645 76.1383 38.0788Z" fill="black"/>
<path fill-rule="evenodd" clip-rule="evenodd" d="M67.1383 38.0788L62.6383 67.3288C62.5438 67.943 62.9645 68.5168 63.5788 68.6113C64.193 68.7058 64.7668 68.285 64.8613 67.6708L69.3613 38.4208C69.4558 37.8065 69.035 37.2328 68.4208 37.1383C67.8065 37.0438 67.2328 37.4645 67.1383 38.0788Z" fill="black"/>
<path fill-rule="evenodd" clip-rule="evenodd" d="M58.1383 38.0788L53.6383 67.3288C53.5438 67.943 53.9645 68.5168 54.5788 68.6113C55.193 68.7058 55.7668 68.285 55.8613 67.6708L60.3613 38.4208C60.4558 37.8065 60.035 37.2328 59.4208 37.1383C58.8065 37.0438 58.2328 37.4645 58.1383 38.0788Z" fill="black"/>
<path fill-rule="evenodd" clip-rule="evenodd" d="M85.1383 38.0788L80.6383 67.3288C80.5438 67.943 80.9645 68.5168 81.5788 68.6113C82.193 68.7058 82.7668 68.285 82.8613 67.6708L87.3613 38.4208C87.4558 37.8065 87.035 37.2328 86.4208 37.1383C85.8065 37.0438 85.2328 37.4645 85.1383 38.0788Z" fill="black"/>
<path fill-rule="evenodd" clip-rule="evenodd" d="M49.2852 46.125H94.1254C94.7464 46.125 95.2504 45.621 95.2504 45C95.2504 44.379 94.7464 43.875 94.1254 43.875H49.2852C48.6642 43.875 48.1602 44.379 48.1602 45C48.1602 45.621 48.6642 46.125 49.2852 46.125Z" fill="black"/>
<path fill-rule="evenodd" clip-rule="evenodd" d="M50.4102 52.875H93.0004C93.6214 52.875 94.1254 52.371 94.1254 51.75C94.1254 51.129 93.6214 50.625 93.0004 50.625H50.4102C49.7892 50.625 49.2852 51.129 49.2852 51.75C49.2852 52.371 49.7892 52.875 50.4102 52.875Z" fill="black"/>
<path fill-rule="evenodd" clip-rule="evenodd" d="M51.5352 60.75H91.8754C92.4964 60.75 93.0004 60.246 93.0004 59.625C93.0004 59.004 92.4964 58.5 91.8754 58.5H51.5352C50.9142 58.5 50.4102 59.004 50.4102 59.625C50.4102 60.246 50.9142 60.75 51.5352 60.75Z" fill="black"/>
<path fill-rule="evenodd" clip-rule="evenodd" d="M88.5 82.125C85.395 82.125 82.875 84.645 82.875 87.75C82.875 90.855 85.395 93.375 88.5 93.375C91.605 93.375 94.125 90.855 94.125 87.75C94.125 84.645 91.605 82.125 88.5 82.125ZM88.5 84.375C90.363 84.375 91.875 85.887 91.875 87.75C91.875 89.613 90.363 91.125 88.5 91.125C86.637 91.125 85.125 89.613 85.125 87.75C85.125 85.887 86.637 84.375 88.5 84.375Z" fill="black"/>
<path fill-rule="evenodd" clip-rule="evenodd" d="M50.25 82.125C47.145 82.125 44.625 84.645 44.625 87.75C44.625 90.855 47.145 93.375 50.25 93.375C53.355 93.375 55.875 90.855 55.875 87.75C55.875 84.645 53.355 82.125 50.25 82.125ZM50.25 84.375C52.113 84.375 53.625 85.887 53.625 87.75C53.625 89.613 52.113 91.125 50.25 91.125C48.387 91.125 46.875 89.613 46.875 87.75C46.875 85.887 48.387 84.375 50.25 84.375Z" fill="black"/>
</g>
<defs>
<clipPath id="clip0_1_1891">
<rect width="72" height="90" fill="white" transform="translate(30 27)"/>
</clipPath>
</defs>
</svg>
