<svg width="131" height="122" viewBox="0 0 131 122" fill="none" xmlns="http://www.w3.org/2000/svg">
<path d="M72.8692 0.153613C41.3443 -2.26865 8.04208 24.2389 1.06359 59.6538C-5.9149 95.0687 22.6054 116.221 52.728 120.902C86.344 126.127 126.813 113.028 130.666 74.5279C134.519 36.0284 104.394 2.57588 72.8692 0.153613Z" fill="#BCCFFF"/>
<path d="M83.7438 69.7877H86.5243V49.7238H83.7438C82.6188 49.7238 81.6983 50.6488 81.6983 51.7762V67.7355C81.6951 68.8661 82.6188 69.7877 83.7438 69.7877ZM60.6048 35.8102C52.4645 37.7822 44.6756 41.1739 39.607 45.6604C29.1211 54.9425 44.337 57.1362 52.3624 58.2799C59.0581 59.2305 66.6356 59.4168 73.0346 58.6075C66.0673 57.9747 49.0071 55.7586 46.0412 51.1497C45.1398 49.7493 45.3956 48.2911 47.2045 46.8073C49.3267 45.0633 53.913 43.1909 61.8745 41.2349C61.1778 40.7981 60.513 40.1782 59.8802 39.3592C59.7332 39.1954 59.6565 38.9738 59.6852 38.7362C59.8323 37.5702 60.1455 36.6035 60.6057 35.8102L60.6048 35.8102ZM65.4244 42.0475C55.7404 44.2122 50.4287 46.2292 48.2172 48.0536C47.1817 48.9047 46.9708 49.6402 47.3799 50.2793C47.936 51.1465 49.3486 51.9816 51.3237 52.7652C57.9651 55.3828 70.407 57.0723 79.2377 57.4127C80.1645 57.4351 80.3115 58.7424 79.4422 58.9865C72.0466 61.0581 61.2728 61.1641 52.1452 59.8665C42.7615 58.5304 26.676 54.9685 38.5495 44.4564C41.6656 41.7039 46.5044 38.7298 53.1295 36.3626C56.0251 35.3284 59.2722 34.4034 62.8838 33.668C63.9768 33.1316 65.2713 32.9421 66.6743 33.0577L64.9804 30.2153L63.0372 30.5879C62.7304 30.6457 62.4236 30.5172 62.251 30.2795L59.8636 27.0645C59.5248 26.6084 59.7613 25.9531 60.2918 25.8087L69.7459 23.2328C69.976 23.1686 70.2125 23.2136 70.3979 23.3356L76.2466 26.8108C77.6209 26.3033 79.0655 25.9148 80.5453 25.6867C84.9621 25.0122 89.7113 25.7638 93.9495 29.1939C94.2244 29.4027 94.3458 29.7785 94.2116 30.1189C91.7443 36.7031 86.196 40.095 80.1299 41.1934L76.8412 47.1481C76.7453 47.3537 76.5663 47.5207 76.3234 47.585L66.8693 50.1672C66.3324 50.315 65.8051 49.8589 65.869 49.3L66.31 45.3238C66.3356 45.0219 66.5369 44.7521 66.8405 44.6429L68.7006 43.9813L68.7326 40.6635C67.6555 41.4247 66.543 41.9061 65.4244 42.0475ZM66.5046 34.6539C63.6601 34.4355 61.8033 35.6431 61.3175 38.6044C63.2223 40.9105 65.4404 41.0069 67.783 39.3785L66.5046 34.6539ZM74.3988 27.575L69.8412 24.8675L61.8416 27.0514L63.2319 28.9175L65.2262 28.5353C65.5426 28.4775 65.8846 28.6124 66.0603 28.9143L67.8565 31.927C69.5056 30.3725 71.778 28.7891 74.3988 27.575ZM70.3174 41.0455L70.2855 44.5592C70.2791 44.9061 70.0586 45.2016 69.7517 45.3075L67.8405 45.9884L67.5817 48.3106L75.5845 46.1266L78.154 41.4791C75.2808 41.765 72.5259 41.5562 70.3174 41.0455ZM85.1502 32.1038C85.847 34.6765 84.3353 37.3295 81.7752 38.0264C79.2152 38.7234 76.5753 37.2042 75.8818 34.6283C75.1883 32.0557 76.7 29.4059 79.2632 28.7122C81.82 28.012 84.4599 29.5344 85.1502 32.1038ZM83.2966 34.9752C84.7124 32.4893 82.4273 29.512 79.6787 30.2635C76.9301 31.015 76.4603 34.7407 78.9212 36.17C80.4585 37.05 82.4208 36.5169 83.2966 34.9752ZM68.0064 34.0694L69.3679 39.1248C72.8612 40.2746 78.6911 40.5444 83.8137 38.4953C87.4444 37.0436 90.7076 34.4163 92.5004 30.0996C88.7802 27.286 84.6413 26.6823 80.784 27.2732C75.3252 28.1082 70.438 31.3009 68.0064 34.0694ZM88.1222 69.7876H102.293C103.418 69.7876 104.339 68.8626 104.339 67.7353V51.7759C104.339 50.6454 103.415 49.7236 102.293 49.7236H100.037V58.0617C100.037 58.5082 99.6788 58.8679 99.2377 58.8679H93.6383C93.194 58.8679 92.8361 58.5082 92.8361 58.0617V49.7236H88.1219L88.1222 69.7876ZM98.4419 49.7237H94.4373V57.2619H98.4419V49.7237ZM64.075 61.1066L80.0967 66.9071V51.7766C80.0967 49.7596 81.7362 48.1151 83.7433 48.1151H102.293C104.3 48.1151 105.94 49.7596 105.94 51.7766V67.7359C105.94 69.7529 104.3 71.3973 102.293 71.3973H92.5068C92.9735 71.5644 93.5487 71.6864 93.5487 72.3416L93.5551 78.2545C93.5551 78.8455 92.9415 79.2309 92.4142 78.9836L91.0047 78.4761V88.388H92.7178C93.1588 88.388 93.5168 88.7477 93.5168 89.191V94.6735C93.5168 95.1168 93.1588 95.4765 92.7178 95.4765L34.9018 95.4669C34.4575 95.4669 34.0996 95.1071 34.0996 94.6639V89.1813C34.0996 88.7381 34.4575 88.3784 34.9018 88.3784H36.6084V78.4665L35.1255 78.9997C34.6141 79.1859 34.0388 78.7748 34.0612 78.2481V72.3352C34.0612 71.9562 34.3169 71.6446 34.6588 71.5579L63.5382 61.1066C63.7044 61.0488 63.9088 61.0423 64.075 61.1066ZM80.2153 68.6479L63.8067 62.7125L35.6563 72.8973V77.1112C44.8158 73.7967 54.5547 70.633 63.5383 67.0225C63.7045 66.9583 63.8963 66.9519 64.0752 67.0225C73.369 70.3821 82.6635 73.7481 91.9572 77.1112V72.8973L87.812 71.3942H83.7434C82.0815 71.3974 80.6244 70.257 80.2153 68.6479ZM58.8534 80.1335V88.378H68.764V80.1335H58.8534ZM57.2554 88.3812V80.1368H47.3865V88.3812H57.2554ZM70.3627 80.1335V88.378H80.2291V80.1335H70.3627ZM45.7886 88.3812V79.3302C45.7886 78.887 46.1465 78.5273 46.5908 78.5273H81.0313C81.4724 78.5273 81.8303 78.887 81.8303 79.3302V88.3812H89.4081V77.8913L63.808 68.6282L38.2079 77.8913V88.3812H45.7886ZM91.9136 89.9807H35.702V93.8541H91.9169L91.9136 89.9807Z" fill="black"/>
</svg>
