<svg width="148" height="75" viewBox="0 0 148 75" fill="none" xmlns="http://www.w3.org/2000/svg">
<g filter="url(#filter0_d_1_2761)">
<rect x="9" y="9" width="122" height="49" rx="24.5" fill="#0D0D0D" stroke="url(#paint0_linear_1_2761)" stroke-width="2"/>
<path d="M34.742 35.78H31.448V41H29.828V28.148H35.606C36.962 28.148 38.012 28.484 38.756 29.156C39.512 29.828 39.89 30.764 39.89 31.964C39.89 33.008 39.602 33.86 39.026 34.52C38.45 35.168 37.628 35.57 36.56 35.726L40.034 41H38.126L34.742 35.78ZM35.39 34.412C36.314 34.412 37.016 34.208 37.496 33.8C37.988 33.38 38.234 32.768 38.234 31.964C38.234 31.16 37.988 30.554 37.496 30.146C37.016 29.726 36.314 29.516 35.39 29.516H31.448V34.412H35.39ZM49.217 38.3C48.953 39.128 48.479 39.824 47.795 40.388C47.111 40.94 46.163 41.216 44.951 41.216C44.099 41.216 43.343 41.012 42.683 40.604C42.023 40.196 41.507 39.62 41.135 38.876C40.775 38.12 40.595 37.25 40.595 36.266C40.595 35.282 40.775 34.418 41.135 33.674C41.495 32.918 41.999 32.336 42.647 31.928C43.307 31.52 44.069 31.316 44.933 31.316C45.773 31.316 46.523 31.514 47.183 31.91C47.843 32.294 48.359 32.858 48.731 33.602C49.103 34.334 49.289 35.204 49.289 36.212V36.626H42.125C42.149 37.622 42.419 38.432 42.935 39.056C43.451 39.668 44.123 39.974 44.951 39.974C45.719 39.974 46.319 39.788 46.751 39.416C47.195 39.044 47.507 38.606 47.687 38.102L49.217 38.3ZM44.933 32.558C44.129 32.558 43.481 32.834 42.989 33.386C42.509 33.938 42.233 34.622 42.161 35.438H47.741C47.669 34.61 47.387 33.926 46.895 33.386C46.403 32.834 45.749 32.558 44.933 32.558ZM56.7978 41C56.7378 40.904 56.6838 40.742 56.6358 40.514C56.5878 40.274 56.5578 39.986 56.5458 39.65C56.2098 40.19 55.7298 40.586 55.1058 40.838C54.4818 41.09 53.8398 41.216 53.1798 41.216C52.6278 41.216 52.1178 41.102 51.6498 40.874C51.1938 40.646 50.8278 40.322 50.5518 39.902C50.2878 39.47 50.1558 38.978 50.1558 38.426C50.1558 37.442 50.4978 36.734 51.1818 36.302C51.8658 35.858 52.8558 35.558 54.1518 35.402C54.7998 35.318 55.2918 35.234 55.6278 35.15C55.9638 35.054 56.1978 34.94 56.3298 34.808C56.4618 34.676 56.5278 34.496 56.5278 34.268C56.5278 33.74 56.3538 33.326 56.0058 33.026C55.6578 32.726 55.1058 32.576 54.3498 32.576C53.7738 32.576 53.2638 32.714 52.8198 32.99C52.3878 33.266 52.0818 33.716 51.9018 34.34L50.5158 33.998C50.7318 33.134 51.1878 32.474 51.8838 32.018C52.5918 31.55 53.4378 31.316 54.4218 31.316C55.6578 31.316 56.5698 31.58 57.1578 32.108C57.7458 32.636 58.0398 33.344 58.0398 34.232V38.804C58.0398 39.428 58.0518 39.89 58.0758 40.19C58.1118 40.49 58.1838 40.76 58.2918 41H56.7978ZM56.5278 35.924C56.3958 36.08 56.1198 36.206 55.6998 36.302C55.2918 36.386 54.7278 36.476 54.0078 36.572C53.3718 36.656 52.8258 36.842 52.3698 37.13C51.9258 37.418 51.7038 37.844 51.7038 38.408C51.7038 38.9 51.8598 39.29 52.1718 39.578C52.4958 39.854 52.9278 39.992 53.4678 39.992C53.9478 39.992 54.4158 39.902 54.8718 39.722C55.3398 39.542 55.7298 39.248 56.0418 38.84C56.3658 38.42 56.5278 37.88 56.5278 37.22V35.924ZM63.4586 31.316C64.1426 31.316 64.7546 31.46 65.2946 31.748C65.8466 32.024 66.2486 32.408 66.5006 32.9H66.5546V27.968H68.0666V41H66.6266V39.56H66.5726C66.3206 40.064 65.9126 40.466 65.3486 40.766C64.7846 41.066 64.1546 41.216 63.4586 41.216C62.6306 41.216 61.8926 41.012 61.2446 40.604C60.6086 40.196 60.1046 39.62 59.7326 38.876C59.3726 38.12 59.1926 37.25 59.1926 36.266C59.1926 35.282 59.3726 34.418 59.7326 33.674C60.1046 32.918 60.6086 32.336 61.2446 31.928C61.8926 31.52 62.6306 31.316 63.4586 31.316ZM63.7106 39.974C64.5986 39.974 65.3066 39.644 65.8346 38.984C66.3746 38.312 66.6446 37.406 66.6446 36.266C66.6446 35.126 66.3746 34.226 65.8346 33.566C65.3066 32.894 64.5986 32.558 63.7106 32.558C62.8106 32.558 62.0906 32.894 61.5506 33.566C61.0106 34.226 60.7406 35.126 60.7406 36.266C60.7406 37.406 61.0106 38.312 61.5506 38.984C62.0906 39.644 62.8106 39.974 63.7106 39.974ZM85.3659 41H83.7999V30.506H83.7459L79.8039 41H78.5079L74.5659 30.506H74.5119V41H72.9999V28.148H75.3219L79.1559 38.624H79.2099L83.0439 28.148H85.3659V41ZM91.1492 31.316C92.0372 31.316 92.8172 31.52 93.4892 31.928C94.1732 32.336 94.7012 32.912 95.0732 33.656C95.4452 34.4 95.6312 35.27 95.6312 36.266C95.6312 37.262 95.4452 38.132 95.0732 38.876C94.7012 39.62 94.1732 40.196 93.4892 40.604C92.8172 41.012 92.0372 41.216 91.1492 41.216C90.2612 41.216 89.4752 41.012 88.7912 40.604C88.1192 40.196 87.5972 39.62 87.2252 38.876C86.8532 38.132 86.6672 37.262 86.6672 36.266C86.6672 35.27 86.8532 34.4 87.2252 33.656C87.5972 32.912 88.1192 32.336 88.7912 31.928C89.4752 31.52 90.2612 31.316 91.1492 31.316ZM91.1492 39.974C92.0372 39.974 92.7452 39.644 93.2732 38.984C93.8132 38.312 94.0832 37.406 94.0832 36.266C94.0832 35.126 93.8132 34.226 93.2732 33.566C92.7452 32.894 92.0372 32.558 91.1492 32.558C90.2612 32.558 89.5472 32.894 89.0072 33.566C88.4792 34.226 88.2152 35.126 88.2152 36.266C88.2152 37.406 88.4792 38.312 89.0072 38.984C89.5472 39.644 90.2612 39.974 91.1492 39.974ZM98.2917 33.152H98.3457C98.5977 32.588 98.9817 32.144 99.4977 31.82C100.026 31.484 100.632 31.316 101.316 31.316C101.592 31.316 101.862 31.34 102.126 31.388V32.846C101.73 32.81 101.436 32.792 101.244 32.792C100.38 32.792 99.6837 33.068 99.1557 33.62C98.6277 34.16 98.3637 34.982 98.3637 36.086V41H96.8517V31.532H98.2917V33.152ZM111.25 38.3C110.986 39.128 110.512 39.824 109.828 40.388C109.144 40.94 108.196 41.216 106.984 41.216C106.132 41.216 105.376 41.012 104.716 40.604C104.056 40.196 103.54 39.62 103.168 38.876C102.808 38.12 102.628 37.25 102.628 36.266C102.628 35.282 102.808 34.418 103.168 33.674C103.528 32.918 104.032 32.336 104.68 31.928C105.34 31.52 106.102 31.316 106.966 31.316C107.806 31.316 108.556 31.514 109.216 31.91C109.876 32.294 110.392 32.858 110.764 33.602C111.136 34.334 111.322 35.204 111.322 36.212V36.626H104.158C104.182 37.622 104.452 38.432 104.968 39.056C105.484 39.668 106.156 39.974 106.984 39.974C107.752 39.974 108.352 39.788 108.784 39.416C109.228 39.044 109.54 38.606 109.72 38.102L111.25 38.3ZM106.966 32.558C106.162 32.558 105.514 32.834 105.022 33.386C104.542 33.938 104.266 34.622 104.194 35.438H109.774C109.702 34.61 109.42 33.926 108.928 33.386C108.436 32.834 107.782 32.558 106.966 32.558Z" fill="white"/>
</g>
<defs>
<filter id="filter0_d_1_2761" x="0" y="0" width="148" height="75" filterUnits="userSpaceOnUse" color-interpolation-filters="sRGB">
<feFlood flood-opacity="0" result="BackgroundImageFix"/>
<feColorMatrix in="SourceAlpha" type="matrix" values="0 0 0 0 0 0 0 0 0 0 0 0 0 0 0 0 0 0 127 0" result="hardAlpha"/>
<feOffset dx="4" dy="4"/>
<feGaussianBlur stdDeviation="6"/>
<feComposite in2="hardAlpha" operator="out"/>
<feColorMatrix type="matrix" values="0 0 0 0 0 0 0 0 0 0 0 0 0 0 0 0 0 0 0.15 0"/>
<feBlend mode="normal" in2="BackgroundImageFix" result="effect1_dropShadow_1_2761"/>
<feBlend mode="normal" in="SourceGraphic" in2="effect1_dropShadow_1_2761" result="shape"/>
</filter>
<linearGradient id="paint0_linear_1_2761" x1="8" y1="33.5" x2="132" y2="33.5" gradientUnits="userSpaceOnUse">
<stop stop-color="#33FCFE"/>
<stop offset="1" stop-color="#010B66"/>
</linearGradient>
</defs>
</svg>
